{"glyphs":{"0":{"ha":903,"x_min":56,"x_max":847,"o":"m 56 189 l 56 783 l 244 972 l 658 972 l 847 783 l 847 189 l 658 0 l 244 0 l 56 189 m 325 728 l 325 244 l 578 244 l 578 728 l 325 728 z "},"1":{"ha":597,"x_min":63,"x_max":535,"o":"m 63 -6 l 63 200 l 167 207 l 167 714 l 65 701 l 65 917 l 436 972 l 436 207 l 535 200 l 535 -6 l 299 6 l 63 -6 z "},"2":{"ha":861,"x_min":56,"x_max":806,"o":"m 806 233 l 806 0 l 56 0 l 56 531 l 536 600 l 536 739 l 58 739 l 58 972 l 617 972 l 806 783 l 806 415 l 325 346 l 325 233 l 806 233 z "},"3":{"ha":869,"x_min":42,"x_max":836,"o":"m 658 0 l 42 0 l 42 222 l 558 222 l 558 389 l 125 389 l 125 600 l 531 600 l 531 750 l 56 750 l 56 972 l 631 972 l 808 794 l 808 579 l 718 508 l 836 414 l 836 178 l 658 0 z "},"4":{"ha":889,"x_min":56,"x_max":828,"o":"m 56 250 l 88 972 l 356 972 l 325 494 l 558 494 l 558 972 l 828 972 l 828 0 l 558 0 l 558 250 l 56 250 z "},"5":{"ha":861,"x_min":56,"x_max":806,"o":"m 806 739 l 325 739 l 325 622 l 806 575 l 806 189 l 617 0 l 58 0 l 58 233 l 536 233 l 536 383 l 56 431 l 56 972 l 806 972 l 806 739 z "},"6":{"ha":903,"x_min":56,"x_max":847,"o":"m 233 0 l 56 178 l 56 794 l 233 972 l 797 972 l 797 739 l 325 739 l 325 622 l 744 622 l 847 519 l 847 178 l 669 0 l 233 0 m 325 222 l 578 222 l 578 444 l 325 444 l 325 222 z "},"7":{"ha":817,"x_min":39,"x_max":778,"o":"m 81 0 l 508 640 l 508 750 l 296 750 l 296 617 l 39 617 l 39 972 l 778 972 l 778 601 l 404 0 l 81 0 z "},"8":{"ha":908,"x_min":36,"x_max":872,"o":"m 356 585 l 553 585 l 553 761 l 356 761 l 356 585 m 339 211 l 586 211 l 586 407 l 339 407 l 339 211 m 225 0 l 36 189 l 36 403 l 165 508 l 64 590 l 64 783 l 253 972 l 656 972 l 844 783 l 844 590 l 743 508 l 872 403 l 872 189 l 683 0 l 225 0 z "},"9":{"ha":903,"x_min":56,"x_max":847,"o":"m 669 972 l 847 794 l 847 178 l 669 0 l 106 0 l 106 233 l 578 233 l 578 350 l 158 350 l 56 453 l 56 794 l 233 972 l 669 972 m 578 750 l 325 750 l 325 528 l 578 528 l 578 750 z "}," ":{"ha":361,"x_min":0,"x_max":0,"o":""},"A":{"ha":914,"x_min":11,"x_max":903,"o":"m 11 0 l 211 972 l 703 972 l 903 0 l 617 0 l 583 194 l 331 194 l 297 0 l 11 0 m 361 383 l 553 383 l 489 761 l 425 761 l 361 383 z "},"B":{"ha":911,"x_min":61,"x_max":878,"o":"m 331 585 l 575 585 l 575 761 l 331 761 l 331 585 m 331 211 l 597 211 l 597 407 l 331 407 l 331 211 m 850 794 l 850 582 l 763 511 l 878 417 l 878 178 l 700 0 l 61 0 l 61 972 l 672 972 l 850 794 z "},"C":{"ha":775,"x_min":56,"x_max":739,"o":"m 56 189 l 56 783 l 244 972 l 725 972 l 725 728 l 336 728 l 336 244 l 739 244 l 739 0 l 244 0 l 56 189 z "},"D":{"ha":882,"x_min":61,"x_max":826,"o":"m 331 233 l 557 233 l 557 739 l 331 739 l 331 233 m 61 0 l 61 972 l 638 972 l 826 783 l 826 189 l 638 0 l 61 0 z "},"E":{"ha":806,"x_min":61,"x_max":764,"o":"m 61 0 l 61 972 l 750 972 l 750 750 l 331 750 l 331 600 l 681 600 l 681 389 l 331 389 l 331 222 l 764 222 l 764 0 l 61 0 z "},"F":{"ha":769,"x_min":61,"x_max":728,"o":"m 61 0 l 61 972 l 728 972 l 728 728 l 331 728 l 331 517 l 700 517 l 700 283 l 331 283 l 331 0 l 61 0 z "},"G":{"ha":892,"x_min":56,"x_max":836,"o":"m 56 189 l 56 783 l 244 972 l 772 972 l 772 739 l 325 739 l 325 233 l 601 233 l 601 385 l 431 385 l 431 596 l 836 596 l 836 0 l 244 0 l 56 189 z "},"H":{"ha":908,"x_min":61,"x_max":847,"o":"m 61 0 l 61 972 l 331 972 l 331 622 l 578 622 l 578 972 l 847 972 l 847 0 l 578 0 l 578 378 l 331 378 l 331 0 l 61 0 z "},"I":{"ha":597,"x_min":63,"x_max":535,"o":"m 63 -6 l 63 200 l 164 207 l 164 765 l 63 772 l 63 978 l 299 967 l 535 978 l 535 772 l 433 765 l 433 207 l 535 200 l 535 -6 l 299 6 l 63 -6 z "},"J":{"ha":833,"x_min":28,"x_max":778,"o":"m 28 192 l 28 472 l 297 472 l 297 244 l 508 244 l 508 739 l 78 739 l 78 972 l 778 972 l 778 192 l 586 0 l 219 0 l 28 192 z "},"K":{"ha":919,"x_min":61,"x_max":918,"o":"m 61 0 l 61 972 l 331 972 l 331 610 l 439 610 l 601 972 l 897 972 l 672 514 l 918 0 l 619 0 l 449 376 l 331 376 l 331 0 l 61 0 z "},"L":{"ha":794,"x_min":61,"x_max":758,"o":"m 61 0 l 61 972 l 331 972 l 331 222 l 524 222 l 524 389 l 758 389 l 758 0 l 61 0 z "},"M":{"ha":1083,"x_min":61,"x_max":1022,"o":"m 61 0 l 61 972 l 382 972 l 542 596 l 701 972 l 1022 972 l 1022 0 l 758 0 l 758 628 l 594 261 l 489 261 l 325 628 l 325 0 l 61 0 z "},"N":{"ha":944,"x_min":61,"x_max":883,"o":"m 61 0 l 61 972 l 297 972 l 636 424 l 636 972 l 883 972 l 883 0 l 647 0 l 308 549 l 308 0 l 61 0 z "},"O":{"ha":944,"x_min":56,"x_max":889,"o":"m 56 189 l 56 783 l 244 972 l 700 972 l 889 783 l 889 189 l 700 0 l 244 0 l 56 189 m 336 739 l 336 233 l 608 233 l 608 739 l 336 739 z "},"P":{"ha":872,"x_min":61,"x_max":839,"o":"m 331 419 l 569 419 l 569 761 l 331 761 l 331 419 m 839 783 l 839 397 l 650 208 l 331 208 l 331 0 l 61 0 l 61 972 l 650 972 l 839 783 z "},"Q":{"ha":944,"x_min":56,"x_max":911,"o":"m 56 189 l 56 783 l 244 972 l 700 972 l 889 783 l 889 247 l 608 64 l 608 739 l 336 739 l 336 217 l 911 114 l 911 -136 l 244 0 l 56 189 z "},"R":{"ha":914,"x_min":61,"x_max":913,"o":"m 331 467 l 594 467 l 594 761 l 331 761 l 331 467 m 864 783 l 864 453 l 746 335 l 913 0 l 610 0 l 497 256 l 331 256 l 331 0 l 61 0 l 61 972 l 675 972 l 864 783 z "},"S":{"ha":889,"x_min":56,"x_max":833,"o":"m 69 0 l 69 233 l 564 233 l 564 374 l 56 419 l 56 794 l 233 972 l 819 972 l 819 739 l 325 739 l 325 613 l 833 567 l 833 178 l 656 0 l 69 0 z "},"T":{"ha":800,"x_min":28,"x_max":772,"o":"m 265 0 l 265 739 l 28 739 l 28 972 l 772 972 l 772 739 l 535 739 l 535 0 l 265 0 z "},"U":{"ha":903,"x_min":61,"x_max":842,"o":"m 61 189 l 61 972 l 331 972 l 331 244 l 572 244 l 572 972 l 842 972 l 842 189 l 653 0 l 250 0 l 61 189 z "},"V":{"ha":914,"x_min":11,"x_max":903,"o":"m 211 0 l 11 972 l 307 972 l 425 244 l 489 244 l 608 972 l 903 972 l 703 0 l 211 0 z "},"W":{"ha":1183,"x_min":6,"x_max":1178,"o":"m 161 0 l 6 972 l 297 972 l 385 289 l 414 289 l 506 819 l 678 819 l 769 289 l 799 289 l 886 972 l 1178 972 l 1022 0 l 675 0 l 592 465 l 508 0 l 161 0 z "},"X":{"ha":917,"x_min":6,"x_max":911,"o":"m 6 0 l 211 514 l 26 972 l 315 972 l 428 622 l 489 622 l 601 972 l 890 972 l 706 514 l 911 0 l 619 0 l 497 378 l 419 378 l 297 0 l 6 0 z "},"Y":{"ha":889,"x_min":13,"x_max":876,"o":"m 310 0 l 310 292 l 193 292 l 13 972 l 300 972 l 397 525 l 492 525 l 589 972 l 876 972 l 696 292 l 579 292 l 579 0 l 310 0 z "},"Z":{"ha":783,"x_min":36,"x_max":747,"o":"m 36 0 l 36 197 l 440 750 l 42 750 l 42 972 l 742 972 l 742 775 l 338 222 l 747 222 l 747 0 l 36 0 z "},"a":{"ha":833,"x_min":47,"x_max":772,"o":"m 47 181 l 47 444 l 503 458 l 503 556 l 75 556 l 75 778 l 592 778 l 772 597 l 772 0 l 228 0 l 47 181 m 317 311 l 317 211 l 503 211 l 503 339 l 317 311 z "},"b":{"ha":861,"x_min":61,"x_max":813,"o":"m 61 0 l 61 972 l 331 972 l 331 778 l 621 778 l 813 586 l 813 192 l 621 0 l 61 0 m 331 222 l 543 222 l 543 556 l 331 556 l 331 222 z "},"c":{"ha":729,"x_min":49,"x_max":699,"o":"m 49 169 l 49 608 l 218 778 l 699 778 l 699 533 l 318 533 l 318 244 l 699 244 l 699 0 l 218 0 l 49 169 z "},"d":{"ha":861,"x_min":49,"x_max":800,"o":"m 800 972 l 800 0 l 240 0 l 49 192 l 49 586 l 240 778 l 531 778 l 531 972 l 800 972 m 318 222 l 531 222 l 531 556 l 318 556 l 318 222 z "},"e":{"ha":819,"x_min":49,"x_max":771,"o":"m 49 169 l 49 608 l 218 778 l 771 778 l 771 336 l 318 336 l 318 222 l 743 222 l 743 0 l 218 0 l 49 169 m 318 456 l 547 469 l 547 578 l 318 578 l 318 456 z "},"f":{"ha":614,"x_min":61,"x_max":586,"o":"m 61 0 l 61 803 l 231 972 l 586 972 l 586 739 l 331 739 l 331 597 l 586 597 l 586 375 l 331 375 l 331 0 l 61 0 z "},"g":{"ha":847,"x_min":49,"x_max":786,"o":"m 92 -194 l 92 28 l 517 28 l 517 111 l 218 111 l 49 281 l 49 608 l 221 778 l 786 778 l 786 14 l 578 -194 l 92 -194 m 318 556 l 318 322 l 517 322 l 517 556 l 318 556 z "},"h":{"ha":861,"x_min":61,"x_max":800,"o":"m 61 0 l 61 972 l 331 972 l 331 778 l 619 778 l 800 597 l 800 0 l 531 0 l 531 556 l 331 556 l 331 0 l 61 0 z "},"i":{"ha":392,"x_min":61,"x_max":331,"o":"m 61 0 l 61 778 l 331 778 l 331 0 l 61 0 m 61 842 l 61 1008 l 331 1008 l 331 842 l 61 842 z "},"j":{"ha":392,"x_min":61,"x_max":331,"o":"m 61 -194 l 61 778 l 331 778 l 331 -194 l 61 -194 m 61 842 l 61 1008 l 331 1008 l 331 842 l 61 842 z "},"k":{"ha":856,"x_min":61,"x_max":853,"o":"m 61 0 l 61 972 l 331 972 l 331 515 l 425 515 l 538 778 l 839 778 l 646 418 l 853 0 l 549 0 l 432 293 l 331 293 l 331 0 l 61 0 z "},"l":{"ha":392,"x_min":61,"x_max":331,"o":"m 61 0 l 61 972 l 331 972 l 331 0 l 61 0 z "},"m":{"ha":1278,"x_min":61,"x_max":1217,"o":"m 61 778 l 1033 778 l 1217 594 l 1217 0 l 953 0 l 953 561 l 768 561 l 768 0 l 510 0 l 510 561 l 325 561 l 325 0 l 61 0 l 61 778 z "},"n":{"ha":861,"x_min":61,"x_max":800,"o":"m 61 0 l 61 778 l 619 778 l 800 597 l 800 0 l 531 0 l 531 544 l 331 544 l 331 0 l 61 0 z "},"o":{"ha":833,"x_min":49,"x_max":785,"o":"m 49 169 l 49 608 l 218 778 l 615 778 l 785 608 l 785 169 l 615 0 l 218 0 l 49 169 m 318 211 l 515 211 l 515 567 l 318 567 l 318 211 z "},"p":{"ha":861,"x_min":61,"x_max":813,"o":"m 61 -194 l 61 778 l 621 778 l 813 586 l 813 192 l 621 0 l 331 0 l 331 -194 l 61 -194 m 543 556 l 331 556 l 331 222 l 543 222 l 543 556 z "},"q":{"ha":861,"x_min":49,"x_max":800,"o":"m 800 778 l 800 -194 l 531 -194 l 531 0 l 240 0 l 49 192 l 49 586 l 240 778 l 800 778 m 531 556 l 318 556 l 318 222 l 531 222 l 531 556 z "},"r":{"ha":653,"x_min":61,"x_max":625,"o":"m 61 0 l 61 597 l 242 778 l 625 778 l 625 533 l 331 533 l 331 0 l 61 0 z "},"s":{"ha":811,"x_min":49,"x_max":763,"o":"m 49 0 l 49 211 l 493 211 l 493 324 l 49 324 l 49 608 l 218 778 l 763 778 l 763 567 l 318 567 l 318 457 l 763 457 l 763 165 l 597 0 l 49 0 z "},"t":{"ha":597,"x_min":61,"x_max":569,"o":"m 61 903 l 331 972 l 331 750 l 569 750 l 569 528 l 331 528 l 331 222 l 569 222 l 569 0 l 242 0 l 61 181 l 61 903 z "},"u":{"ha":861,"x_min":61,"x_max":800,"o":"m 800 778 l 800 0 l 242 0 l 61 181 l 61 778 l 331 778 l 331 233 l 531 233 l 531 778 l 800 778 z "},"v":{"ha":806,"x_min":8,"x_max":797,"o":"m 168 0 l 8 778 l 283 778 l 364 222 l 446 222 l 528 778 l 797 778 l 638 0 l 168 0 z "},"w":{"ha":1167,"x_min":28,"x_max":1139,"o":"m 142 0 l 28 778 l 301 778 l 361 222 l 388 222 l 468 697 l 699 697 l 779 222 l 806 222 l 865 778 l 1139 778 l 1025 0 l 667 0 l 583 432 l 500 0 l 142 0 z "},"x":{"ha":875,"x_min":18,"x_max":857,"o":"m 18 0 l 196 407 l 29 778 l 329 778 l 411 504 l 464 504 l 546 778 l 846 778 l 679 407 l 857 0 l 553 0 l 472 282 l 403 282 l 322 0 l 18 0 z "},"y":{"ha":833,"x_min":8,"x_max":825,"o":"m 56 -194 l 56 28 l 397 28 l 417 111 l 175 111 l 8 778 l 283 778 l 378 322 l 460 322 l 551 778 l 825 778 l 588 -194 l 56 -194 z "},"z":{"ha":736,"x_min":31,"x_max":706,"o":"m 31 0 l 31 194 l 374 556 l 32 556 l 32 778 l 704 778 l 704 583 l 361 222 l 706 222 l 706 0 l 31 0 z "},"Á":{"ha":914,"x_min":11,"x_max":903,"o":"m 11 0 l 211 972 l 703 972 l 903 0 l 617 0 l 583 194 l 331 194 l 297 0 l 11 0 m 361 383 l 553 383 l 489 761 l 425 761 l 361 383 m 276 1039 l 276 1167 l 721 1207 l 721 1039 l 276 1039 z "},"á":{"ha":833,"x_min":47,"x_max":772,"o":"m 47 181 l 47 444 l 503 458 l 503 556 l 75 556 l 75 778 l 592 778 l 772 597 l 772 0 l 228 0 l 47 181 m 317 311 l 317 211 l 503 211 l 503 339 l 317 311 m 210 844 l 210 972 l 654 1013 l 654 844 l 210 844 z "},"À":{"ha":914,"x_min":11,"x_max":903,"o":"m 11 0 l 211 972 l 703 972 l 903 0 l 617 0 l 583 194 l 331 194 l 297 0 l 11 0 m 361 383 l 553 383 l 489 761 l 425 761 l 361 383 m 638 1039 l 193 1039 l 193 1207 l 638 1167 l 638 1039 z "},"à":{"ha":833,"x_min":47,"x_max":772,"o":"m 47 181 l 47 444 l 503 458 l 503 556 l 75 556 l 75 778 l 592 778 l 772 597 l 772 0 l 228 0 l 47 181 m 317 311 l 317 211 l 503 211 l 503 339 l 317 311 m 571 844 l 126 844 l 126 1013 l 571 972 l 571 844 z "},"Ă":{"ha":914,"x_min":11,"x_max":903,"o":"m 11 0 l 211 972 l 703 972 l 903 0 l 617 0 l 583 194 l 331 194 l 297 0 l 11 0 m 361 383 l 553 383 l 489 761 l 425 761 l 361 383 m 543 1225 l 757 1225 l 626 1025 l 288 1025 l 157 1225 l 371 1225 l 381 1143 l 533 1143 l 543 1225 z "},"ă":{"ha":833,"x_min":47,"x_max":772,"o":"m 47 181 l 47 444 l 503 458 l 503 556 l 75 556 l 75 778 l 592 778 l 772 597 l 772 0 l 228 0 l 47 181 m 317 311 l 317 211 l 503 211 l 503 339 l 317 311 m 476 1031 l 690 1031 l 560 831 l 221 831 l 90 1031 l 304 1031 l 314 949 l 467 949 l 476 1031 z "},"Â":{"ha":914,"x_min":11,"x_max":903,"o":"m 11 0 l 211 972 l 703 972 l 903 0 l 617 0 l 583 194 l 331 194 l 297 0 l 11 0 m 361 383 l 553 383 l 489 761 l 425 761 l 361 383 m 193 1021 l 193 1176 l 457 1263 l 721 1176 l 721 1021 l 457 1107 l 193 1021 z "},"â":{"ha":833,"x_min":47,"x_max":772,"o":"m 47 181 l 47 444 l 503 458 l 503 556 l 75 556 l 75 778 l 592 778 l 772 597 l 772 0 l 228 0 l 47 181 m 317 311 l 317 211 l 503 211 l 503 339 l 317 311 m 126 826 l 126 982 l 390 1068 l 654 982 l 654 826 l 390 913 l 126 826 z "},"Ǎ":{"ha":914,"x_min":11,"x_max":903,"o":"m 11 0 l 211 972 l 703 972 l 903 0 l 617 0 l 583 194 l 331 194 l 297 0 l 11 0 m 361 383 l 553 383 l 489 761 l 425 761 l 361 383 m 721 1263 l 721 1107 l 457 1021 l 193 1107 l 193 1263 l 457 1176 l 721 1263 z "},"ǎ":{"ha":833,"x_min":47,"x_max":772,"o":"m 47 181 l 47 444 l 503 458 l 503 556 l 75 556 l 75 778 l 592 778 l 772 597 l 772 0 l 228 0 l 47 181 m 317 311 l 317 211 l 503 211 l 503 339 l 317 311 m 654 1068 l 654 913 l 390 826 l 126 913 l 126 1068 l 390 982 l 654 1068 z "},"Å":{"ha":914,"x_min":11,"x_max":903,"o":"m 11 0 l 211 972 l 703 972 l 903 0 l 617 0 l 583 194 l 331 194 l 297 0 l 11 0 m 361 383 l 553 383 l 489 761 l 425 761 l 361 383 m 271 1085 l 271 1221 l 372 1303 l 542 1303 l 643 1221 l 643 1085 l 542 1003 l 372 1003 l 271 1085 m 394 1110 l 519 1110 l 519 1196 l 394 1196 l 394 1110 z "},"å":{"ha":833,"x_min":47,"x_max":772,"o":"m 47 181 l 47 444 l 503 458 l 503 556 l 75 556 l 75 778 l 592 778 l 772 597 l 772 0 l 228 0 l 47 181 m 317 311 l 317 211 l 503 211 l 503 339 l 317 311 m 204 890 l 204 1026 l 306 1108 l 475 1108 l 576 1026 l 576 890 l 475 808 l 306 808 l 204 890 m 328 915 l 453 915 l 453 1001 l 328 1001 l 328 915 z "},"Ǻ":{"ha":914,"x_min":11,"x_max":903,"o":"m 11 0 l 211 972 l 703 972 l 903 0 l 617 0 l 583 194 l 331 194 l 297 0 l 11 0 m 361 383 l 553 383 l 489 761 l 425 761 l 361 383 m 271 1085 l 271 1221 l 372 1303 l 542 1303 l 643 1221 l 643 1085 l 542 1003 l 372 1003 l 271 1085 m 394 1110 l 519 1110 l 519 1196 l 394 1196 l 394 1110 m 678 1217 l 629 1253 l 660 1361 l 804 1361 l 678 1217 z "},"ǻ":{"ha":833,"x_min":47,"x_max":772,"o":"m 47 181 l 47 444 l 503 458 l 503 556 l 75 556 l 75 778 l 592 778 l 772 597 l 772 0 l 228 0 l 47 181 m 317 311 l 317 211 l 503 211 l 503 339 l 317 311 m 204 890 l 204 1026 l 306 1108 l 475 1108 l 576 1026 l 576 890 l 475 808 l 306 808 l 204 890 m 328 915 l 453 915 l 453 1001 l 328 1001 l 328 915 m 611 1022 l 563 1058 l 593 1167 l 738 1167 l 611 1022 z "},"Ä":{"ha":914,"x_min":11,"x_max":903,"o":"m 11 0 l 211 972 l 703 972 l 903 0 l 617 0 l 583 194 l 331 194 l 297 0 l 11 0 m 361 383 l 553 383 l 489 761 l 425 761 l 361 383 m 158 1036 l 158 1203 l 406 1203 l 406 1036 l 158 1036 m 508 1036 l 508 1203 l 756 1203 l 756 1036 l 508 1036 z "},"ä":{"ha":833,"x_min":47,"x_max":772,"o":"m 47 181 l 47 444 l 503 458 l 503 556 l 75 556 l 75 778 l 592 778 l 772 597 l 772 0 l 228 0 l 47 181 m 317 311 l 317 211 l 503 211 l 503 339 l 317 311 m 92 842 l 92 1008 l 339 1008 l 339 842 l 92 842 m 442 842 l 442 1008 l 689 1008 l 689 842 l 442 842 z "},"Ǟ":{"ha":914,"x_min":11,"x_max":903,"o":"m 11 0 l 211 972 l 703 972 l 903 0 l 617 0 l 583 194 l 331 194 l 297 0 l 11 0 m 361 383 l 553 383 l 489 761 l 425 761 l 361 383 m 158 1036 l 158 1203 l 406 1203 l 406 1036 l 158 1036 m 508 1036 l 508 1203 l 756 1203 l 756 1036 l 508 1036 m 221 1260 l 221 1364 l 693 1364 l 693 1260 l 221 1260 z "},"ǟ":{"ha":833,"x_min":47,"x_max":772,"o":"m 47 181 l 47 444 l 503 458 l 503 556 l 75 556 l 75 778 l 592 778 l 772 597 l 772 0 l 228 0 l 47 181 m 317 311 l 317 211 l 503 211 l 503 339 l 317 311 m 92 842 l 92 1008 l 339 1008 l 339 842 l 92 842 m 442 842 l 442 1008 l 689 1008 l 689 842 l 442 842 m 154 1065 l 154 1169 l 626 1169 l 626 1065 l 154 1065 z "},"Ã":{"ha":914,"x_min":11,"x_max":903,"o":"m 11 0 l 211 972 l 703 972 l 903 0 l 617 0 l 583 194 l 331 194 l 297 0 l 11 0 m 361 383 l 553 383 l 489 761 l 425 761 l 361 383 m 193 1000 l 165 1146 l 304 1232 l 588 1171 l 721 1236 l 749 1090 l 610 1004 l 326 1065 l 193 1000 z "},"ã":{"ha":833,"x_min":47,"x_max":772,"o":"m 47 181 l 47 444 l 503 458 l 503 556 l 75 556 l 75 778 l 592 778 l 772 597 l 772 0 l 228 0 l 47 181 m 317 311 l 317 211 l 503 211 l 503 339 l 317 311 m 126 806 l 99 951 l 238 1038 l 521 976 l 654 1042 l 682 896 l 543 810 l 260 871 l 126 806 z "},"Ą":{"ha":914,"x_min":11,"x_max":903,"o":"m 11 0 l 211 972 l 703 972 l 903 0 l 617 0 l 583 194 l 331 194 l 297 0 l 11 0 m 361 383 l 553 383 l 489 761 l 425 761 l 361 383 m 869 -61 l 814 -278 l 576 -278 l 683 -61 l 869 -61 z "},"ą":{"ha":833,"x_min":47,"x_max":772,"o":"m 47 181 l 47 444 l 503 458 l 503 556 l 75 556 l 75 778 l 592 778 l 772 597 l 772 0 l 228 0 l 47 181 m 317 311 l 317 211 l 503 211 l 503 339 l 317 311 m 750 -61 l 694 -278 l 457 -278 l 564 -61 l 750 -61 z "},"Ā":{"ha":914,"x_min":11,"x_max":903,"o":"m 11 0 l 211 972 l 703 972 l 903 0 l 617 0 l 583 194 l 331 194 l 297 0 l 11 0 m 361 383 l 553 383 l 489 761 l 425 761 l 361 383 m 221 1043 l 221 1208 l 693 1208 l 693 1043 l 221 1043 z "},"ā":{"ha":833,"x_min":47,"x_max":772,"o":"m 47 181 l 47 444 l 503 458 l 503 556 l 75 556 l 75 778 l 592 778 l 772 597 l 772 0 l 228 0 l 47 181 m 317 311 l 317 211 l 503 211 l 503 339 l 317 311 m 154 849 l 154 1014 l 626 1014 l 626 849 l 154 849 z "},"Ȁ":{"ha":914,"x_min":11,"x_max":903,"o":"m 11 0 l 211 972 l 703 972 l 903 0 l 617 0 l 583 194 l 331 194 l 297 0 l 11 0 m 361 383 l 553 383 l 489 761 l 425 761 l 361 383 m 607 1208 l 663 1019 l 508 1019 l 401 1208 l 607 1208 m 356 1208 l 439 1019 l 283 1019 l 150 1208 l 356 1208 z "},"ȁ":{"ha":833,"x_min":47,"x_max":772,"o":"m 47 181 l 47 444 l 503 458 l 503 556 l 75 556 l 75 778 l 592 778 l 772 597 l 772 0 l 228 0 l 47 181 m 317 311 l 317 211 l 503 211 l 503 339 l 317 311 m 540 1014 l 596 825 l 442 825 l 335 1014 l 540 1014 m 289 1014 l 372 825 l 217 825 l 83 1014 l 289 1014 z "},"Ȃ":{"ha":914,"x_min":11,"x_max":903,"o":"m 11 0 l 211 972 l 703 972 l 903 0 l 617 0 l 583 194 l 331 194 l 297 0 l 11 0 m 361 383 l 553 383 l 489 761 l 425 761 l 361 383 m 371 1017 l 157 1017 l 288 1217 l 626 1217 l 757 1017 l 543 1017 l 533 1099 l 381 1099 l 371 1017 z "},"ȃ":{"ha":833,"x_min":47,"x_max":772,"o":"m 47 181 l 47 444 l 503 458 l 503 556 l 75 556 l 75 778 l 592 778 l 772 597 l 772 0 l 228 0 l 47 181 m 317 311 l 317 211 l 503 211 l 503 339 l 317 311 m 304 822 l 90 822 l 221 1022 l 560 1022 l 690 822 l 476 822 l 467 904 l 314 904 l 304 822 z "},"Æ":{"ha":1200,"x_min":11,"x_max":1158,"o":"m 11 0 l 218 972 l 1144 972 l 1144 750 l 783 750 l 783 600 l 1075 600 l 1075 389 l 783 389 l 783 222 l 1158 222 l 1158 0 l 525 0 l 525 194 l 331 194 l 297 0 l 11 0 m 358 383 l 525 383 l 525 761 l 424 761 l 358 383 z "},"æ":{"ha":1257,"x_min":47,"x_max":1208,"o":"m 47 181 l 47 444 l 494 458 l 494 556 l 75 556 l 75 778 l 514 778 l 629 663 l 744 778 l 1208 778 l 1208 336 l 764 336 l 764 211 l 1181 211 l 1181 0 l 228 0 l 47 181 m 764 456 l 983 469 l 983 578 l 764 578 l 764 456 m 317 311 l 317 200 l 494 200 l 494 339 l 317 311 z "},"Ǽ":{"ha":1200,"x_min":11,"x_max":1158,"o":"m 11 0 l 218 972 l 1144 972 l 1144 750 l 783 750 l 783 600 l 1075 600 l 1075 389 l 783 389 l 783 222 l 1158 222 l 1158 0 l 525 0 l 525 194 l 331 194 l 297 0 l 11 0 m 358 383 l 525 383 l 525 761 l 424 761 l 358 383 m 503 1039 l 503 1167 l 947 1207 l 947 1039 l 503 1039 z "},"ǽ":{"ha":1257,"x_min":47,"x_max":1208,"o":"m 47 181 l 47 444 l 494 458 l 494 556 l 75 556 l 75 778 l 514 778 l 629 663 l 744 778 l 1208 778 l 1208 336 l 764 336 l 764 211 l 1181 211 l 1181 0 l 228 0 l 47 181 m 764 456 l 983 469 l 983 578 l 764 578 l 764 456 m 317 311 l 317 200 l 494 200 l 494 339 l 317 311 m 449 844 l 449 972 l 893 1013 l 893 844 l 449 844 z "},"Ḃ":{"ha":911,"x_min":61,"x_max":878,"o":"m 331 585 l 575 585 l 575 761 l 331 761 l 331 585 m 331 211 l 597 211 l 597 407 l 331 407 l 331 211 m 850 794 l 850 582 l 763 511 l 878 417 l 878 178 l 700 0 l 61 0 l 61 972 l 672 972 l 850 794 m 276 1036 l 276 1203 l 546 1203 l 546 1036 l 276 1036 z "},"ḃ":{"ha":861,"x_min":61,"x_max":813,"o":"m 61 0 l 61 972 l 331 972 l 331 778 l 621 778 l 813 586 l 813 192 l 621 0 l 61 0 m 331 222 l 543 222 l 543 556 l 331 556 l 331 222 m 232 1036 l 232 1203 l 501 1203 l 501 1036 l 232 1036 z "},"Ɓ":{"ha":1146,"x_min":14,"x_max":1113,"o":"m 238 761 l 238 592 l 14 592 l 14 814 l 172 972 l 907 972 l 1085 794 l 1085 582 l 997 511 l 1113 417 l 1113 178 l 935 0 l 307 0 l 307 761 l 238 761 m 576 585 l 810 585 l 810 761 l 576 761 l 576 585 m 576 211 l 832 211 l 832 407 l 576 407 l 576 211 z "},"ɓ":{"ha":861,"x_min":61,"x_max":813,"o":"m 331 222 l 543 222 l 543 514 l 331 514 l 331 222 m 61 0 l 61 803 l 231 972 l 436 972 l 436 772 l 331 772 l 331 703 l 621 703 l 813 511 l 813 192 l 621 0 l 61 0 z "},"Ć":{"ha":775,"x_min":56,"x_max":739,"o":"m 56 189 l 56 783 l 244 972 l 725 972 l 725 728 l 336 728 l 336 244 l 739 244 l 739 0 l 244 0 l 56 189 m 281 1039 l 281 1167 l 725 1207 l 725 1039 l 281 1039 z "},"ć":{"ha":729,"x_min":49,"x_max":701,"o":"m 49 169 l 49 608 l 218 778 l 699 778 l 699 533 l 318 533 l 318 244 l 699 244 l 699 0 l 218 0 l 49 169 m 257 844 l 257 972 l 701 1013 l 701 844 l 257 844 z "},"Ĉ":{"ha":775,"x_min":56,"x_max":739,"o":"m 56 189 l 56 783 l 244 972 l 725 972 l 725 728 l 336 728 l 336 244 l 739 244 l 739 0 l 244 0 l 56 189 m 197 1021 l 197 1176 l 461 1263 l 725 1176 l 725 1021 l 461 1107 l 197 1021 z "},"ĉ":{"ha":729,"x_min":49,"x_max":701,"o":"m 49 169 l 49 608 l 218 778 l 699 778 l 699 533 l 318 533 l 318 244 l 699 244 l 699 0 l 218 0 l 49 169 m 174 826 l 174 982 l 438 1068 l 701 982 l 701 826 l 438 913 l 174 826 z "},"Č":{"ha":775,"x_min":56,"x_max":739,"o":"m 56 189 l 56 783 l 244 972 l 725 972 l 725 728 l 336 728 l 336 244 l 739 244 l 739 0 l 244 0 l 56 189 m 725 1263 l 725 1107 l 461 1021 l 197 1107 l 197 1263 l 461 1176 l 725 1263 z "},"č":{"ha":729,"x_min":49,"x_max":701,"o":"m 49 169 l 49 608 l 218 778 l 699 778 l 699 533 l 318 533 l 318 244 l 699 244 l 699 0 l 218 0 l 49 169 m 701 1068 l 701 913 l 438 826 l 174 913 l 174 1068 l 438 982 l 701 1068 z "},"Ċ":{"ha":775,"x_min":56,"x_max":739,"o":"m 56 189 l 56 783 l 244 972 l 725 972 l 725 728 l 336 728 l 336 244 l 739 244 l 739 0 l 244 0 l 56 189 m 326 1036 l 326 1203 l 596 1203 l 596 1036 l 326 1036 z "},"ċ":{"ha":729,"x_min":49,"x_max":699,"o":"m 49 169 l 49 608 l 218 778 l 699 778 l 699 533 l 318 533 l 318 244 l 699 244 l 699 0 l 218 0 l 49 169 m 303 842 l 303 1008 l 572 1008 l 572 842 l 303 842 z "},"Ç":{"ha":775,"x_min":56,"x_max":739,"o":"m 56 189 l 56 783 l 244 972 l 725 972 l 725 728 l 336 728 l 336 244 l 739 244 l 739 0 l 244 0 l 56 189 m 300 -278 l 368 -72 l 606 -72 l 488 -278 l 300 -278 z "},"ç":{"ha":729,"x_min":49,"x_max":699,"o":"m 49 169 l 49 608 l 218 778 l 699 778 l 699 533 l 318 533 l 318 244 l 699 244 l 699 0 l 218 0 l 49 169 m 276 -278 l 344 -72 l 582 -72 l 464 -278 l 276 -278 z "},"Ď":{"ha":882,"x_min":61,"x_max":826,"o":"m 331 233 l 557 233 l 557 739 l 331 739 l 331 233 m 61 0 l 61 972 l 638 972 l 826 783 l 826 189 l 638 0 l 61 0 m 669 1263 l 669 1107 l 406 1021 l 142 1107 l 142 1263 l 406 1176 l 669 1263 z "},"ď":{"ha":950,"x_min":49,"x_max":950,"o":"m 800 972 l 800 0 l 240 0 l 49 192 l 49 586 l 240 778 l 531 778 l 531 972 l 800 972 m 318 222 l 531 222 l 531 556 l 318 556 l 318 222 m 861 644 l 861 972 l 950 972 l 950 644 l 861 644 z "},"Ḋ":{"ha":882,"x_min":61,"x_max":826,"o":"m 331 233 l 557 233 l 557 739 l 331 739 l 331 233 m 61 0 l 61 972 l 638 972 l 826 783 l 826 189 l 638 0 l 61 0 m 271 1036 l 271 1203 l 540 1203 l 540 1036 l 271 1036 z "},"ḋ":{"ha":861,"x_min":49,"x_max":800,"o":"m 800 972 l 800 0 l 240 0 l 49 192 l 49 586 l 240 778 l 531 778 l 531 972 l 800 972 m 318 222 l 531 222 l 531 556 l 318 556 l 318 222 m 360 1036 l 360 1203 l 629 1203 l 629 1036 l 360 1036 z "},"Ḑ":{"ha":882,"x_min":61,"x_max":826,"o":"m 331 233 l 557 233 l 557 739 l 331 739 l 331 233 m 61 0 l 61 972 l 638 972 l 826 783 l 826 189 l 638 0 l 61 0 m 244 -278 l 313 -72 l 550 -72 l 432 -278 l 244 -278 z "},"ḑ":{"ha":861,"x_min":49,"x_max":800,"o":"m 800 972 l 800 0 l 240 0 l 49 192 l 49 586 l 240 778 l 531 778 l 531 972 l 800 972 m 318 222 l 531 222 l 531 556 l 318 556 l 318 222 m 333 -278 l 401 -72 l 639 -72 l 521 -278 l 333 -278 z "},"Đ":{"ha":893,"x_min":14,"x_max":838,"o":"m 14 397 l 14 575 l 467 575 l 467 397 l 14 397 m 342 233 l 568 233 l 568 739 l 342 739 l 342 233 m 72 0 l 72 972 l 649 972 l 838 783 l 838 189 l 649 0 l 72 0 z "},"đ":{"ha":861,"x_min":49,"x_max":800,"o":"m 800 972 l 800 0 l 240 0 l 49 192 l 49 508 l 240 700 l 531 700 l 531 972 l 800 972 m 318 222 l 531 222 l 531 478 l 318 478 l 318 222 m 249 779 l 249 883 l 790 883 l 790 779 l 249 779 z "},"Ḍ":{"ha":882,"x_min":61,"x_max":826,"o":"m 331 233 l 557 233 l 557 739 l 331 739 l 331 233 m 61 0 l 61 972 l 638 972 l 826 783 l 826 189 l 638 0 l 61 0 m 271 -256 l 271 -89 l 540 -89 l 540 -256 l 271 -256 z "},"ḍ":{"ha":861,"x_min":49,"x_max":800,"o":"m 800 972 l 800 0 l 240 0 l 49 192 l 49 586 l 240 778 l 531 778 l 531 972 l 800 972 m 318 222 l 531 222 l 531 556 l 318 556 l 318 222 m 360 -256 l 360 -89 l 629 -89 l 629 -256 l 360 -256 z "},"Ð":{"ha":893,"x_min":14,"x_max":838,"o":"m 14 397 l 14 575 l 467 575 l 467 397 l 14 397 m 342 233 l 568 233 l 568 739 l 342 739 l 342 233 m 72 0 l 72 972 l 649 972 l 838 783 l 838 189 l 649 0 l 72 0 z "},"ð":{"ha":847,"x_min":49,"x_max":799,"o":"m 229 0 l 618 0 l 799 181 l 799 628 l 474 972 l 146 972 l 471 635 l 49 531 l 49 181 l 229 0 m 529 504 l 529 222 l 318 222 l 318 440 l 529 504 m 118 674 l 740 838 l 740 972 l 118 808 l 118 674 z "},"Ɖ":{"ha":893,"x_min":14,"x_max":838,"o":"m 14 397 l 14 575 l 467 575 l 467 397 l 14 397 m 342 233 l 568 233 l 568 739 l 342 739 l 342 233 m 72 0 l 72 972 l 649 972 l 838 783 l 838 189 l 649 0 l 72 0 z "},"ɖ":{"ha":861,"x_min":49,"x_max":864,"o":"m 800 39 l 864 39 l 864 -194 l 656 -194 l 531 -69 l 531 0 l 240 0 l 49 192 l 49 586 l 240 778 l 531 778 l 531 972 l 800 972 l 800 39 m 318 556 l 318 222 l 531 222 l 531 556 l 318 556 z "},"Ɗ":{"ha":1128,"x_min":14,"x_max":1072,"o":"m 238 761 l 238 592 l 14 592 l 14 814 l 172 972 l 883 972 l 1072 783 l 1072 189 l 883 0 l 307 0 l 307 761 l 238 761 m 576 233 l 803 233 l 803 739 l 576 739 l 576 233 z "},"ɗ":{"ha":861,"x_min":49,"x_max":869,"o":"m 318 222 l 531 222 l 531 556 l 318 556 l 318 222 m 49 192 l 49 586 l 240 778 l 531 778 l 531 861 l 642 972 l 869 972 l 869 772 l 800 772 l 800 0 l 240 0 l 49 192 z "},"É":{"ha":806,"x_min":61,"x_max":764,"o":"m 61 0 l 61 972 l 750 972 l 750 750 l 331 750 l 331 600 l 681 600 l 681 389 l 331 389 l 331 222 l 764 222 l 764 0 l 61 0 m 232 1039 l 232 1167 l 676 1207 l 676 1039 l 232 1039 z "},"é":{"ha":819,"x_min":49,"x_max":771,"o":"m 49 169 l 49 608 l 218 778 l 771 778 l 771 336 l 318 336 l 318 222 l 743 222 l 743 0 l 218 0 l 49 169 m 318 456 l 547 469 l 547 578 l 318 578 l 318 456 m 250 844 l 250 972 l 694 1013 l 694 844 l 250 844 z "},"È":{"ha":806,"x_min":61,"x_max":764,"o":"m 61 0 l 61 972 l 750 972 l 750 750 l 331 750 l 331 600 l 681 600 l 681 389 l 331 389 l 331 222 l 764 222 l 764 0 l 61 0 m 593 1039 l 149 1039 l 149 1207 l 593 1167 l 593 1039 z "},"è":{"ha":819,"x_min":49,"x_max":771,"o":"m 49 169 l 49 608 l 218 778 l 771 778 l 771 336 l 318 336 l 318 222 l 743 222 l 743 0 l 218 0 l 49 169 m 318 456 l 547 469 l 547 578 l 318 578 l 318 456 m 611 844 l 167 844 l 167 1013 l 611 972 l 611 844 z "},"Ĕ":{"ha":806,"x_min":61,"x_max":764,"o":"m 61 0 l 61 972 l 750 972 l 750 750 l 331 750 l 331 600 l 681 600 l 681 389 l 331 389 l 331 222 l 764 222 l 764 0 l 61 0 m 499 1225 l 713 1225 l 582 1025 l 243 1025 l 113 1225 l 326 1225 l 336 1143 l 489 1143 l 499 1225 z "},"ĕ":{"ha":819,"x_min":49,"x_max":771,"o":"m 49 169 l 49 608 l 218 778 l 771 778 l 771 336 l 318 336 l 318 222 l 743 222 l 743 0 l 218 0 l 49 169 m 318 456 l 547 469 l 547 578 l 318 578 l 318 456 m 517 1031 l 731 1031 l 600 831 l 261 831 l 131 1031 l 344 1031 l 354 949 l 507 949 l 517 1031 z "},"Ê":{"ha":806,"x_min":61,"x_max":764,"o":"m 61 0 l 61 972 l 750 972 l 750 750 l 331 750 l 331 600 l 681 600 l 681 389 l 331 389 l 331 222 l 764 222 l 764 0 l 61 0 m 149 1021 l 149 1176 l 413 1263 l 676 1176 l 676 1021 l 413 1107 l 149 1021 z "},"ê":{"ha":819,"x_min":49,"x_max":771,"o":"m 49 169 l 49 608 l 218 778 l 771 778 l 771 336 l 318 336 l 318 222 l 743 222 l 743 0 l 218 0 l 49 169 m 318 456 l 547 469 l 547 578 l 318 578 l 318 456 m 167 826 l 167 982 l 431 1068 l 694 982 l 694 826 l 431 913 l 167 826 z "},"Ě":{"ha":806,"x_min":61,"x_max":764,"o":"m 61 0 l 61 972 l 750 972 l 750 750 l 331 750 l 331 600 l 681 600 l 681 389 l 331 389 l 331 222 l 764 222 l 764 0 l 61 0 m 676 1263 l 676 1107 l 413 1021 l 149 1107 l 149 1263 l 413 1176 l 676 1263 z "},"ě":{"ha":819,"x_min":49,"x_max":771,"o":"m 49 169 l 49 608 l 218 778 l 771 778 l 771 336 l 318 336 l 318 222 l 743 222 l 743 0 l 218 0 l 49 169 m 318 456 l 547 469 l 547 578 l 318 578 l 318 456 m 694 1068 l 694 913 l 431 826 l 167 913 l 167 1068 l 431 982 l 694 1068 z "},"Ë":{"ha":806,"x_min":61,"x_max":764,"o":"m 61 0 l 61 972 l 750 972 l 750 750 l 331 750 l 331 600 l 681 600 l 681 389 l 331 389 l 331 222 l 764 222 l 764 0 l 61 0 m 114 1036 l 114 1203 l 361 1203 l 361 1036 l 114 1036 m 464 1036 l 464 1203 l 711 1203 l 711 1036 l 464 1036 z "},"ë":{"ha":819,"x_min":49,"x_max":771,"o":"m 49 169 l 49 608 l 218 778 l 771 778 l 771 336 l 318 336 l 318 222 l 743 222 l 743 0 l 218 0 l 49 169 m 318 456 l 547 469 l 547 578 l 318 578 l 318 456 m 132 842 l 132 1008 l 379 1008 l 379 842 l 132 842 m 482 842 l 482 1008 l 729 1008 l 729 842 l 482 842 z "},"Ė":{"ha":806,"x_min":61,"x_max":764,"o":"m 61 0 l 61 972 l 750 972 l 750 750 l 331 750 l 331 600 l 681 600 l 681 389 l 331 389 l 331 222 l 764 222 l 764 0 l 61 0 m 278 1036 l 278 1203 l 547 1203 l 547 1036 l 278 1036 z "},"ė":{"ha":819,"x_min":49,"x_max":771,"o":"m 49 169 l 49 608 l 218 778 l 771 778 l 771 336 l 318 336 l 318 222 l 743 222 l 743 0 l 218 0 l 49 169 m 318 456 l 547 469 l 547 578 l 318 578 l 318 456 m 296 842 l 296 1008 l 565 1008 l 565 842 l 296 842 z "},"Ę":{"ha":806,"x_min":61,"x_max":764,"o":"m 61 0 l 61 972 l 750 972 l 750 750 l 331 750 l 331 600 l 681 600 l 681 389 l 331 389 l 331 222 l 764 222 l 764 0 l 61 0 m 703 -61 l 647 -278 l 410 -278 l 517 -61 l 703 -61 z "},"ę":{"ha":819,"x_min":49,"x_max":771,"o":"m 49 169 l 49 608 l 218 778 l 771 778 l 771 336 l 318 336 l 318 222 l 743 222 l 743 0 l 218 0 l 49 169 m 318 456 l 547 469 l 547 578 l 318 578 l 318 456 m 715 -61 l 660 -278 l 422 -278 l 529 -61 l 715 -61 z "},"Ē":{"ha":806,"x_min":61,"x_max":764,"o":"m 61 0 l 61 972 l 750 972 l 750 750 l 331 750 l 331 600 l 681 600 l 681 389 l 331 389 l 331 222 l 764 222 l 764 0 l 61 0 m 176 1043 l 176 1208 l 649 1208 l 649 1043 l 176 1043 z "},"ē":{"ha":819,"x_min":49,"x_max":771,"o":"m 49 169 l 49 608 l 218 778 l 771 778 l 771 336 l 318 336 l 318 222 l 743 222 l 743 0 l 218 0 l 49 169 m 318 456 l 547 469 l 547 578 l 318 578 l 318 456 m 194 849 l 194 1014 l 667 1014 l 667 849 l 194 849 z "},"Ȅ":{"ha":806,"x_min":61,"x_max":764,"o":"m 61 0 l 61 972 l 750 972 l 750 750 l 331 750 l 331 600 l 681 600 l 681 389 l 331 389 l 331 222 l 764 222 l 764 0 l 61 0 m 563 1208 l 618 1019 l 464 1019 l 357 1208 l 563 1208 m 311 1208 l 394 1019 l 239 1019 l 106 1208 l 311 1208 z "},"ȅ":{"ha":819,"x_min":49,"x_max":771,"o":"m 49 169 l 49 608 l 218 778 l 771 778 l 771 336 l 318 336 l 318 222 l 743 222 l 743 0 l 218 0 l 49 169 m 318 456 l 547 469 l 547 578 l 318 578 l 318 456 m 581 1014 l 636 825 l 482 825 l 375 1014 l 581 1014 m 329 1014 l 413 825 l 257 825 l 124 1014 l 329 1014 z "},"Ȇ":{"ha":806,"x_min":61,"x_max":764,"o":"m 61 0 l 61 972 l 750 972 l 750 750 l 331 750 l 331 600 l 681 600 l 681 389 l 331 389 l 331 222 l 764 222 l 764 0 l 61 0 m 326 1017 l 113 1017 l 243 1217 l 582 1217 l 713 1017 l 499 1017 l 489 1099 l 336 1099 l 326 1017 z "},"ȇ":{"ha":819,"x_min":49,"x_max":771,"o":"m 49 169 l 49 608 l 218 778 l 771 778 l 771 336 l 318 336 l 318 222 l 743 222 l 743 0 l 218 0 l 49 169 m 318 456 l 547 469 l 547 578 l 318 578 l 318 456 m 344 822 l 131 822 l 261 1022 l 600 1022 l 731 822 l 517 822 l 507 904 l 354 904 l 344 822 z "},"Ə":{"ha":903,"x_min":56,"x_max":847,"o":"m 847 801 l 847 171 l 676 0 l 226 0 l 56 171 l 56 603 l 578 603 l 578 750 l 83 750 l 83 972 l 676 972 l 847 801 m 578 439 l 325 425 l 325 222 l 578 222 l 578 439 z "},"ə":{"ha":819,"x_min":49,"x_max":771,"o":"m 771 607 l 771 171 l 600 0 l 219 0 l 49 171 l 49 442 l 501 442 l 501 556 l 76 556 l 76 778 l 600 778 l 771 607 m 501 322 l 285 308 l 285 200 l 501 200 l 501 322 z "},"Ɛ":{"ha":869,"x_min":33,"x_max":828,"o":"m 211 0 l 33 178 l 33 414 l 151 508 l 61 579 l 61 794 l 239 972 l 814 972 l 814 750 l 339 750 l 339 600 l 744 600 l 744 389 l 311 389 l 311 222 l 828 222 l 828 0 l 211 0 z "},"ɛ":{"ha":808,"x_min":38,"x_max":765,"o":"m 182 0 l 38 144 l 38 315 l 156 410 l 65 481 l 65 644 l 199 778 l 751 778 l 751 578 l 347 578 l 347 474 l 707 474 l 707 307 l 319 307 l 319 200 l 765 200 l 765 0 l 182 0 z "},"Ḟ":{"ha":769,"x_min":61,"x_max":728,"o":"m 61 0 l 61 972 l 728 972 l 728 728 l 331 728 l 331 517 l 700 517 l 700 283 l 331 283 l 331 0 l 61 0 m 250 1036 l 250 1203 l 519 1203 l 519 1036 l 250 1036 z "},"ḟ":{"ha":614,"x_min":61,"x_max":586,"o":"m 61 0 l 61 803 l 231 972 l 586 972 l 586 739 l 331 739 l 331 597 l 586 597 l 586 375 l 331 375 l 331 0 l 61 0 m 176 1036 l 176 1203 l 446 1203 l 446 1036 l 176 1036 z "},"Ƒ":{"ha":769,"x_min":-3,"x_max":728,"o":"m -3 0 l -3 233 l 61 233 l 61 972 l 728 972 l 728 728 l 331 728 l 331 539 l 700 539 l 700 306 l 331 306 l 331 144 l 186 0 l -3 0 z "},"ƒ":{"ha":614,"x_min":8,"x_max":586,"o":"m 8 -194 l 8 39 l 72 39 l 72 803 l 242 972 l 586 972 l 586 739 l 342 739 l 342 575 l 586 575 l 586 353 l 342 353 l 342 -25 l 172 -194 l 8 -194 z "},"Ǵ":{"ha":892,"x_min":56,"x_max":836,"o":"m 56 189 l 56 783 l 244 972 l 772 972 l 772 739 l 325 739 l 325 233 l 601 233 l 601 385 l 431 385 l 431 596 l 836 596 l 836 0 l 244 0 l 56 189 m 292 1039 l 292 1167 l 736 1207 l 736 1039 l 292 1039 z "},"ǵ":{"ha":847,"x_min":49,"x_max":786,"o":"m 92 -194 l 92 28 l 517 28 l 517 111 l 218 111 l 49 281 l 49 608 l 221 778 l 786 778 l 786 14 l 578 -194 l 92 -194 m 318 556 l 318 322 l 517 322 l 517 556 l 318 556 m 263 844 l 263 972 l 707 1013 l 707 844 l 263 844 z "},"Ğ":{"ha":892,"x_min":56,"x_max":836,"o":"m 56 189 l 56 783 l 244 972 l 772 972 l 772 739 l 325 739 l 325 233 l 601 233 l 601 385 l 431 385 l 431 596 l 836 596 l 836 0 l 244 0 l 56 189 m 558 1225 l 772 1225 l 642 1025 l 303 1025 l 172 1225 l 386 1225 l 396 1143 l 549 1143 l 558 1225 z "},"ğ":{"ha":847,"x_min":49,"x_max":786,"o":"m 92 -194 l 92 28 l 517 28 l 517 111 l 218 111 l 49 281 l 49 608 l 221 778 l 786 778 l 786 14 l 578 -194 l 92 -194 m 318 556 l 318 322 l 517 322 l 517 556 l 318 556 m 529 1031 l 743 1031 l 613 831 l 274 831 l 143 1031 l 357 1031 l 367 949 l 519 949 l 529 1031 z "},"Ĝ":{"ha":892,"x_min":56,"x_max":836,"o":"m 56 189 l 56 783 l 244 972 l 772 972 l 772 739 l 325 739 l 325 233 l 601 233 l 601 385 l 431 385 l 431 596 l 836 596 l 836 0 l 244 0 l 56 189 m 208 1021 l 208 1176 l 472 1263 l 736 1176 l 736 1021 l 472 1107 l 208 1021 z "},"ĝ":{"ha":847,"x_min":49,"x_max":786,"o":"m 92 -194 l 92 28 l 517 28 l 517 111 l 218 111 l 49 281 l 49 608 l 221 778 l 786 778 l 786 14 l 578 -194 l 92 -194 m 318 556 l 318 322 l 517 322 l 517 556 l 318 556 m 179 826 l 179 982 l 443 1068 l 707 982 l 707 826 l 443 913 l 179 826 z "},"Ǧ":{"ha":892,"x_min":56,"x_max":836,"o":"m 56 189 l 56 783 l 244 972 l 772 972 l 772 739 l 325 739 l 325 233 l 601 233 l 601 385 l 431 385 l 431 596 l 836 596 l 836 0 l 244 0 l 56 189 m 736 1263 l 736 1107 l 472 1021 l 208 1107 l 208 1263 l 472 1176 l 736 1263 z "},"ǧ":{"ha":847,"x_min":49,"x_max":786,"o":"m 92 -194 l 92 28 l 517 28 l 517 111 l 218 111 l 49 281 l 49 608 l 221 778 l 786 778 l 786 14 l 578 -194 l 92 -194 m 318 556 l 318 322 l 517 322 l 517 556 l 318 556 m 707 1068 l 707 913 l 443 826 l 179 913 l 179 1068 l 443 982 l 707 1068 z "},"Ġ":{"ha":892,"x_min":56,"x_max":836,"o":"m 56 189 l 56 783 l 244 972 l 772 972 l 772 739 l 325 739 l 325 233 l 601 233 l 601 385 l 431 385 l 431 596 l 836 596 l 836 0 l 244 0 l 56 189 m 338 1036 l 338 1203 l 607 1203 l 607 1036 l 338 1036 z "},"ġ":{"ha":847,"x_min":49,"x_max":786,"o":"m 92 -194 l 92 28 l 517 28 l 517 111 l 218 111 l 49 281 l 49 608 l 221 778 l 786 778 l 786 14 l 578 -194 l 92 -194 m 318 556 l 318 322 l 517 322 l 517 556 l 318 556 m 308 842 l 308 1008 l 578 1008 l 578 842 l 308 842 z "},"Ģ":{"ha":892,"x_min":56,"x_max":836,"o":"m 56 189 l 56 783 l 244 972 l 772 972 l 772 739 l 325 739 l 325 233 l 601 233 l 601 385 l 431 385 l 431 596 l 836 596 l 836 0 l 244 0 l 56 189 m 311 -278 l 379 -72 l 617 -72 l 497 -278 l 311 -278 z "},"ģ":{"ha":847,"x_min":49,"x_max":786,"o":"m 92 -194 l 92 28 l 517 28 l 517 111 l 218 111 l 49 281 l 49 608 l 221 778 l 786 778 l 786 14 l 578 -194 l 92 -194 m 318 556 l 318 322 l 517 322 l 517 556 l 318 556 m 603 1044 l 535 839 l 297 839 l 417 1044 l 603 1044 z "},"Ǥ":{"ha":889,"x_min":56,"x_max":879,"o":"m 56 189 l 56 783 l 244 972 l 767 972 l 767 728 l 325 728 l 325 233 l 597 233 l 597 440 l 419 440 l 419 596 l 833 596 l 833 0 l 244 0 l 56 189 m 419 292 l 419 397 l 879 397 l 879 292 l 419 292 z "},"ǥ":{"ha":847,"x_min":49,"x_max":840,"o":"m 92 -194 l 92 17 l 517 17 l 517 211 l 149 211 l 49 311 l 49 608 l 221 778 l 786 778 l 786 14 l 578 -194 l 92 -194 m 318 556 l 318 347 l 517 347 l 517 556 l 318 556 m 135 67 l 135 161 l 840 161 l 840 67 l 135 67 z "},"Ɠ":{"ha":889,"x_min":56,"x_max":858,"o":"m 244 0 l 56 189 l 56 783 l 244 972 l 532 972 l 532 1064 l 654 1186 l 858 1186 l 858 953 l 767 953 l 767 728 l 325 728 l 325 244 l 597 244 l 597 385 l 431 385 l 431 596 l 833 596 l 833 0 l 244 0 z "},"ɠ":{"ha":847,"x_min":49,"x_max":844,"o":"m 318 322 l 517 322 l 517 556 l 318 556 l 318 322 m 92 -194 l 92 28 l 517 28 l 517 111 l 218 111 l 49 281 l 49 608 l 221 778 l 517 778 l 517 861 l 628 972 l 844 972 l 844 772 l 775 772 l 775 14 l 567 -194 l 92 -194 z "},"Ɣ":{"ha":867,"x_min":7,"x_max":860,"o":"m 246 0 l 76 169 l 76 396 l 238 576 l 7 972 l 317 972 l 426 689 l 440 689 l 550 972 l 860 972 l 629 576 l 790 396 l 790 169 l 621 0 l 246 0 m 335 222 l 532 222 l 532 356 l 433 461 l 335 356 l 335 222 z "},"ɣ":{"ha":853,"x_min":6,"x_max":847,"o":"m 253 -194 l 83 -25 l 83 201 l 232 382 l 6 778 l 314 778 l 419 494 l 433 494 l 539 778 l 847 778 l 621 382 l 769 201 l 769 -25 l 600 -194 l 253 -194 m 342 28 l 511 28 l 511 164 l 426 267 l 342 164 l 342 28 z "},"Ĥ":{"ha":908,"x_min":61,"x_max":847,"o":"m 61 0 l 61 972 l 331 972 l 331 622 l 578 622 l 578 972 l 847 972 l 847 0 l 578 0 l 578 378 l 331 378 l 331 0 l 61 0 m 190 1021 l 190 1176 l 454 1263 l 718 1176 l 718 1021 l 454 1107 l 190 1021 z "},"ĥ":{"ha":861,"x_min":61,"x_max":800,"o":"m 61 0 l 61 972 l 331 972 l 331 778 l 619 778 l 800 597 l 800 0 l 531 0 l 531 556 l 331 556 l 331 0 l 61 0 m 92 1021 l 92 1176 l 356 1263 l 619 1176 l 619 1021 l 356 1107 l 92 1021 z "},"Ȟ":{"ha":908,"x_min":61,"x_max":847,"o":"m 61 0 l 61 972 l 331 972 l 331 622 l 578 622 l 578 972 l 847 972 l 847 0 l 578 0 l 578 378 l 331 378 l 331 0 l 61 0 m 718 1263 l 718 1107 l 454 1021 l 190 1107 l 190 1263 l 454 1176 l 718 1263 z "},"ȟ":{"ha":861,"x_min":61,"x_max":800,"o":"m 61 0 l 61 972 l 331 972 l 331 778 l 619 778 l 800 597 l 800 0 l 531 0 l 531 556 l 331 556 l 331 0 l 61 0 m 619 1263 l 619 1107 l 356 1021 l 92 1107 l 92 1263 l 356 1176 l 619 1263 z "},"Ħ":{"ha":903,"x_min":7,"x_max":896,"o":"m 7 747 l 7 853 l 896 853 l 896 747 l 7 747 m 61 0 l 61 972 l 331 972 l 331 622 l 578 622 l 578 972 l 847 972 l 847 0 l 578 0 l 578 378 l 331 378 l 331 0 l 61 0 z "},"ħ":{"ha":861,"x_min":61,"x_max":800,"o":"m 61 0 l 61 972 l 331 972 l 331 700 l 619 700 l 800 519 l 800 0 l 531 0 l 531 478 l 331 478 l 331 0 l 61 0 m 71 779 l 71 883 l 613 883 l 613 779 l 71 779 z "},"Ḥ":{"ha":908,"x_min":61,"x_max":847,"o":"m 61 0 l 61 972 l 331 972 l 331 622 l 578 622 l 578 972 l 847 972 l 847 0 l 578 0 l 578 378 l 331 378 l 331 0 l 61 0 m 319 -256 l 319 -89 l 589 -89 l 589 -256 l 319 -256 z "},"ḥ":{"ha":861,"x_min":61,"x_max":800,"o":"m 61 0 l 61 972 l 331 972 l 331 778 l 619 778 l 800 597 l 800 0 l 531 0 l 531 556 l 331 556 l 331 0 l 61 0 m 296 -256 l 296 -89 l 565 -89 l 565 -256 l 296 -256 z "},"Í":{"ha":597,"x_min":63,"x_max":563,"o":"m 63 -6 l 63 200 l 164 207 l 164 765 l 63 772 l 63 978 l 299 967 l 535 978 l 535 772 l 433 765 l 433 207 l 535 200 l 535 -6 l 299 6 l 63 -6 m 118 1039 l 118 1167 l 563 1207 l 563 1039 l 118 1039 z "},"í":{"ha":392,"x_min":57,"x_max":379,"o":"m 61 0 l 61 778 l 331 778 l 331 0 l 61 0 m 57 825 l 57 953 l 379 1013 l 379 844 l 57 825 z "},"Ì":{"ha":597,"x_min":35,"x_max":535,"o":"m 63 -6 l 63 200 l 164 207 l 164 765 l 63 772 l 63 978 l 299 967 l 535 978 l 535 772 l 433 765 l 433 207 l 535 200 l 535 -6 l 299 6 l 63 -6 m 479 1039 l 35 1039 l 35 1207 l 479 1167 l 479 1039 z "},"ì":{"ha":392,"x_min":13,"x_max":335,"o":"m 61 0 l 61 778 l 331 778 l 331 0 l 61 0 m 335 825 l 13 844 l 13 1013 l 335 953 l 335 825 z "},"Ĭ":{"ha":597,"x_min":-1,"x_max":599,"o":"m 63 -6 l 63 200 l 164 207 l 164 765 l 63 772 l 63 978 l 299 967 l 535 978 l 535 772 l 433 765 l 433 207 l 535 200 l 535 -6 l 299 6 l 63 -6 m 385 1225 l 599 1225 l 468 1025 l 129 1025 l -1 1225 l 213 1225 l 222 1143 l 375 1143 l 385 1225 z "},"ĭ":{"ha":392,"x_min":-104,"x_max":496,"o":"m 61 0 l 61 778 l 331 778 l 331 0 l 61 0 m 282 1031 l 496 1031 l 365 831 l 26 831 l -104 1031 l 110 1031 l 119 949 l 272 949 l 282 1031 z "},"Î":{"ha":597,"x_min":35,"x_max":563,"o":"m 63 -6 l 63 200 l 164 207 l 164 765 l 63 772 l 63 978 l 299 967 l 535 978 l 535 772 l 433 765 l 433 207 l 535 200 l 535 -6 l 299 6 l 63 -6 m 35 1021 l 35 1176 l 299 1263 l 563 1176 l 563 1021 l 299 1107 l 35 1021 z "},"î":{"ha":392,"x_min":-68,"x_max":460,"o":"m 61 0 l 61 778 l 331 778 l 331 0 l 61 0 m -68 826 l -68 982 l 196 1068 l 460 982 l 460 826 l 196 913 l -68 826 z "},"Ǐ":{"ha":597,"x_min":35,"x_max":563,"o":"m 63 -6 l 63 200 l 164 207 l 164 765 l 63 772 l 63 978 l 299 967 l 535 978 l 535 772 l 433 765 l 433 207 l 535 200 l 535 -6 l 299 6 l 63 -6 m 563 1263 l 563 1107 l 299 1021 l 35 1107 l 35 1263 l 299 1176 l 563 1263 z "},"ǐ":{"ha":392,"x_min":-68,"x_max":460,"o":"m 61 0 l 61 778 l 331 778 l 331 0 l 61 0 m 460 1068 l 460 913 l 196 826 l -68 913 l -68 1068 l 196 982 l 460 1068 z "},"Ï":{"ha":597,"x_min":0,"x_max":597,"o":"m 63 -6 l 63 200 l 164 207 l 164 765 l 63 772 l 63 978 l 299 967 l 535 978 l 535 772 l 433 765 l 433 207 l 535 200 l 535 -6 l 299 6 l 63 -6 m 0 1036 l 0 1203 l 247 1203 l 247 1036 l 0 1036 m 350 1036 l 350 1203 l 597 1203 l 597 1036 l 350 1036 z "},"ï":{"ha":392,"x_min":-17,"x_max":408,"o":"m 61 0 l 61 778 l 331 778 l 331 0 l 61 0 m -17 842 l -17 1008 l 164 1008 l 164 842 l -17 842 m 228 842 l 228 1008 l 408 1008 l 408 842 l 228 842 z "},"Ĩ":{"ha":597,"x_min":7,"x_max":590,"o":"m 63 -6 l 63 200 l 164 207 l 164 765 l 63 772 l 63 978 l 299 967 l 535 978 l 535 772 l 433 765 l 433 207 l 535 200 l 535 -6 l 299 6 l 63 -6 m 35 1000 l 7 1146 l 146 1232 l 429 1171 l 563 1236 l 590 1090 l 451 1004 l 168 1065 l 35 1000 z "},"ĩ":{"ha":392,"x_min":-15,"x_max":410,"o":"m 61 0 l 61 778 l 331 778 l 331 0 l 61 0 m -15 803 l -15 951 l 93 1035 l 304 974 l 410 1039 l 410 890 l 301 807 l 90 868 l -15 803 z "},"İ":{"ha":597,"x_min":63,"x_max":535,"o":"m 63 -6 l 63 200 l 164 207 l 164 765 l 63 772 l 63 978 l 299 967 l 535 978 l 535 772 l 433 765 l 433 207 l 535 200 l 535 -6 l 299 6 l 63 -6 m 164 1036 l 164 1203 l 433 1203 l 433 1036 l 164 1036 z "},"ı":{"ha":392,"x_min":61,"x_max":331,"o":"m 61 0 l 61 778 l 331 778 l 331 0 l 61 0 z "},"Į":{"ha":597,"x_min":63,"x_max":535,"o":"m 63 -6 l 63 200 l 164 207 l 164 765 l 63 772 l 63 978 l 299 967 l 535 978 l 535 772 l 433 765 l 433 207 l 535 200 l 535 -6 l 299 6 l 63 -6 m 418 -61 l 363 -278 l 125 -278 l 232 -61 l 418 -61 z "},"į":{"ha":392,"x_min":22,"x_max":331,"o":"m 61 0 l 61 778 l 331 778 l 331 0 l 61 0 m 61 842 l 61 1008 l 331 1008 l 331 842 l 61 842 m 315 -61 l 260 -278 l 22 -278 l 129 -61 l 315 -61 z "},"Ī":{"ha":597,"x_min":63,"x_max":535,"o":"m 63 -6 l 63 200 l 164 207 l 164 765 l 63 772 l 63 978 l 299 967 l 535 978 l 535 772 l 433 765 l 433 207 l 535 200 l 535 -6 l 299 6 l 63 -6 m 63 1043 l 63 1208 l 535 1208 l 535 1043 l 63 1043 z "},"ī":{"ha":392,"x_min":-12,"x_max":404,"o":"m -12 849 l -12 1014 l 404 1014 l 404 849 l -12 849 m 61 0 l 61 778 l 331 778 l 331 0 l 61 0 z "},"Ȉ":{"ha":597,"x_min":-8,"x_max":535,"o":"m 63 -6 l 63 200 l 164 207 l 164 765 l 63 772 l 63 978 l 299 967 l 535 978 l 535 772 l 433 765 l 433 207 l 535 200 l 535 -6 l 299 6 l 63 -6 m 449 1208 l 504 1019 l 350 1019 l 243 1208 l 449 1208 m 197 1208 l 281 1019 l 125 1019 l -8 1208 l 197 1208 z "},"ȉ":{"ha":392,"x_min":-111,"x_max":401,"o":"m 61 0 l 61 778 l 331 778 l 331 0 l 61 0 m 346 1014 l 401 825 l 247 825 l 140 1014 l 346 1014 m 94 1014 l 178 825 l 22 825 l -111 1014 l 94 1014 z "},"Ȋ":{"ha":597,"x_min":-1,"x_max":599,"o":"m 63 -6 l 63 200 l 164 207 l 164 765 l 63 772 l 63 978 l 299 967 l 535 978 l 535 772 l 433 765 l 433 207 l 535 200 l 535 -6 l 299 6 l 63 -6 m 213 1017 l -1 1017 l 129 1217 l 468 1217 l 599 1017 l 385 1017 l 375 1099 l 222 1099 l 213 1017 z "},"ȋ":{"ha":392,"x_min":-104,"x_max":496,"o":"m 61 0 l 61 778 l 331 778 l 331 0 l 61 0 m 110 822 l -104 822 l 26 1022 l 365 1022 l 496 822 l 282 822 l 272 904 l 119 904 l 110 822 z "},"Ĳ":{"ha":1317,"x_min":63,"x_max":1261,"o":"m 63 -6 l 63 200 l 144 207 l 144 765 l 63 772 l 63 978 l 279 967 l 496 978 l 496 772 l 414 765 l 414 207 l 496 200 l 496 -6 l 279 6 l 63 -6 m 558 181 l 558 472 l 817 472 l 817 244 l 992 244 l 992 739 l 589 739 l 589 972 l 1261 972 l 1261 192 l 1069 0 l 739 0 l 558 181 z "},"ĳ":{"ha":783,"x_min":61,"x_max":722,"o":"m 61 0 l 61 778 l 331 778 l 331 0 l 61 0 m 61 842 l 61 1008 l 331 1008 l 331 842 l 61 842 m 453 -194 l 453 778 l 722 778 l 722 -194 l 453 -194 m 453 842 l 453 1008 l 722 1008 l 722 842 l 453 842 z "},"Ɨ":{"ha":597,"x_min":63,"x_max":535,"o":"m 63 -6 l 63 200 l 164 207 l 164 765 l 63 772 l 63 978 l 299 967 l 535 978 l 535 772 l 433 765 l 433 207 l 535 200 l 535 -6 l 299 6 l 63 -6 m 76 414 l 76 558 l 521 558 l 521 414 l 76 414 z "},"ɨ":{"ha":392,"x_min":14,"x_max":378,"o":"m 14 343 l 14 486 l 378 486 l 378 343 l 14 343 m 61 0 l 61 778 l 331 778 l 331 0 l 61 0 m 61 842 l 61 1008 l 331 1008 l 331 842 l 61 842 z "},"Ĵ":{"ha":833,"x_min":28,"x_max":778,"o":"m 28 192 l 28 472 l 297 472 l 297 244 l 508 244 l 508 739 l 78 739 l 78 972 l 778 972 l 778 192 l 586 0 l 219 0 l 28 192 m 150 1021 l 150 1176 l 414 1263 l 678 1176 l 678 1021 l 414 1107 l 150 1021 z "},"ĵ":{"ha":392,"x_min":-68,"x_max":460,"o":"m 61 -194 l 61 778 l 331 778 l 331 -194 l 61 -194 m -68 826 l -68 982 l 196 1068 l 460 982 l 460 826 l 196 913 l -68 826 z "},"ȷ":{"ha":392,"x_min":61,"x_max":331,"o":"m 61 -194 l 61 778 l 331 778 l 331 -194 l 61 -194 z "},"Ǩ":{"ha":919,"x_min":61,"x_max":918,"o":"m 61 0 l 61 972 l 331 972 l 331 610 l 439 610 l 601 972 l 897 972 l 672 514 l 918 0 l 619 0 l 449 376 l 331 376 l 331 0 l 61 0 m 713 1263 l 713 1107 l 449 1021 l 185 1107 l 185 1263 l 449 1176 l 713 1263 z "},"ǩ":{"ha":856,"x_min":61,"x_max":853,"o":"m 61 0 l 61 972 l 331 972 l 331 515 l 425 515 l 538 778 l 839 778 l 646 418 l 853 0 l 549 0 l 432 293 l 331 293 l 331 0 l 61 0 m 631 1263 l 631 1107 l 367 1021 l 103 1107 l 103 1263 l 367 1176 l 631 1263 z "},"Ķ":{"ha":919,"x_min":61,"x_max":918,"o":"m 61 0 l 61 972 l 331 972 l 331 610 l 439 610 l 601 972 l 897 972 l 672 514 l 918 0 l 619 0 l 449 376 l 331 376 l 331 0 l 61 0 m 288 -278 l 356 -72 l 593 -72 l 474 -278 l 288 -278 z "},"ķ":{"ha":856,"x_min":61,"x_max":853,"o":"m 61 0 l 61 972 l 331 972 l 331 515 l 425 515 l 538 778 l 839 778 l 646 418 l 853 0 l 549 0 l 432 293 l 331 293 l 331 0 l 61 0 m 261 -278 l 329 -72 l 567 -72 l 447 -278 l 261 -278 z "},"Ƙ":{"ha":904,"x_min":61,"x_max":903,"o":"m 61 0 l 61 972 l 331 972 l 331 610 l 453 610 l 550 886 l 636 972 l 903 972 l 903 739 l 768 739 l 686 518 l 903 0 l 599 0 l 453 376 l 331 376 l 331 0 l 61 0 z "},"ƙ":{"ha":861,"x_min":61,"x_max":858,"o":"m 61 0 l 61 803 l 231 972 l 436 972 l 436 772 l 331 772 l 331 515 l 428 515 l 549 778 l 850 778 l 651 418 l 858 0 l 554 0 l 438 293 l 331 293 l 331 0 l 61 0 z "},"Ĺ":{"ha":794,"x_min":61,"x_max":758,"o":"m 61 0 l 61 972 l 331 972 l 331 222 l 524 222 l 524 389 l 758 389 l 758 0 l 61 0 m 61 1039 l 61 1167 l 506 1207 l 506 1039 l 61 1039 z "},"ĺ":{"ha":392,"x_min":57,"x_max":379,"o":"m 61 0 l 61 972 l 331 972 l 331 0 l 61 0 m 57 1019 l 57 1147 l 379 1207 l 379 1039 l 57 1019 z "},"Ľ":{"ha":811,"x_min":61,"x_max":758,"o":"m 61 0 l 61 972 l 331 972 l 331 222 l 524 222 l 524 389 l 758 389 l 758 0 l 61 0 m 422 644 l 422 972 l 511 972 l 511 644 l 422 644 z "},"ľ":{"ha":481,"x_min":61,"x_max":481,"o":"m 61 0 l 61 972 l 331 972 l 331 0 l 61 0 m 392 644 l 392 972 l 481 972 l 481 644 l 392 644 z "},"Ļ":{"ha":794,"x_min":61,"x_max":758,"o":"m 61 0 l 61 972 l 331 972 l 331 222 l 524 222 l 524 389 l 758 389 l 758 0 l 61 0 m 254 -278 l 322 -72 l 560 -72 l 440 -278 l 254 -278 z "},"ļ":{"ha":392,"x_min":35,"x_max":340,"o":"m 61 0 l 61 972 l 331 972 l 331 0 l 61 0 m 35 -278 l 103 -72 l 340 -72 l 221 -278 l 35 -278 z "},"Ł":{"ha":794,"x_min":61,"x_max":758,"o":"m 174 353 l 174 575 l 643 786 l 643 564 l 174 353 m 61 0 l 61 972 l 331 972 l 331 222 l 524 222 l 524 389 l 758 389 l 758 0 l 61 0 z "},"ł":{"ha":464,"x_min":13,"x_max":451,"o":"m 13 247 l 13 494 l 451 735 l 451 488 l 13 247 m 97 0 l 97 972 l 367 972 l 367 0 l 97 0 z "},"Ḷ":{"ha":794,"x_min":61,"x_max":758,"o":"m 61 0 l 61 972 l 331 972 l 331 222 l 524 222 l 524 389 l 758 389 l 758 0 l 61 0 m 281 -256 l 281 -89 l 550 -89 l 550 -256 l 281 -256 z "},"ḷ":{"ha":392,"x_min":61,"x_max":331,"o":"m 61 0 l 61 972 l 331 972 l 331 0 l 61 0 m 61 -256 l 61 -89 l 331 -89 l 331 -256 l 61 -256 z "},"Ḻ":{"ha":794,"x_min":61,"x_max":758,"o":"m 61 0 l 61 972 l 331 972 l 331 222 l 524 222 l 524 389 l 758 389 l 758 0 l 61 0 m 179 -236 l 179 -71 l 651 -71 l 651 -236 l 179 -236 z "},"ḻ":{"ha":392,"x_min":-40,"x_max":432,"o":"m 61 0 l 61 972 l 331 972 l 331 0 l 61 0 m -40 -236 l -40 -71 l 432 -71 l 432 -236 l -40 -236 z "},"Ŀ":{"ha":794,"x_min":61,"x_max":758,"o":"m 61 0 l 61 972 l 331 972 l 331 222 l 524 222 l 524 389 l 758 389 l 758 0 l 61 0 m 482 500 l 482 747 l 718 747 l 718 500 l 482 500 z "},"ŀ":{"ha":544,"x_min":61,"x_max":546,"o":"m 61 0 l 61 972 l 331 972 l 331 0 l 61 0 m 390 375 l 390 622 l 546 622 l 546 375 l 390 375 z "},"Ḿ":{"ha":1083,"x_min":61,"x_max":1022,"o":"m 61 0 l 61 972 l 382 972 l 542 596 l 701 972 l 1022 972 l 1022 0 l 758 0 l 758 628 l 594 261 l 489 261 l 325 628 l 325 0 l 61 0 m 361 1039 l 361 1167 l 806 1207 l 806 1039 l 361 1039 z "},"ḿ":{"ha":1278,"x_min":61,"x_max":1217,"o":"m 61 778 l 1033 778 l 1217 594 l 1217 0 l 953 0 l 953 561 l 768 561 l 768 0 l 510 0 l 510 561 l 325 561 l 325 0 l 61 0 l 61 778 m 458 844 l 458 972 l 903 1013 l 903 844 l 458 844 z "},"Ṁ":{"ha":1083,"x_min":61,"x_max":1022,"o":"m 61 0 l 61 972 l 382 972 l 542 596 l 701 972 l 1022 972 l 1022 0 l 758 0 l 758 628 l 594 261 l 489 261 l 325 628 l 325 0 l 61 0 m 407 1036 l 407 1203 l 676 1203 l 676 1036 l 407 1036 z "},"ṁ":{"ha":1278,"x_min":61,"x_max":1217,"o":"m 61 778 l 1033 778 l 1217 594 l 1217 0 l 953 0 l 953 561 l 768 561 l 768 0 l 510 0 l 510 561 l 325 561 l 325 0 l 61 0 l 61 778 m 504 842 l 504 1008 l 774 1008 l 774 842 l 504 842 z "},"Ń":{"ha":944,"x_min":61,"x_max":883,"o":"m 61 0 l 61 972 l 297 972 l 636 424 l 636 972 l 883 972 l 883 0 l 647 0 l 308 549 l 308 0 l 61 0 m 292 1039 l 292 1167 l 736 1207 l 736 1039 l 292 1039 z "},"ń":{"ha":861,"x_min":61,"x_max":800,"o":"m 61 0 l 61 778 l 619 778 l 800 597 l 800 0 l 531 0 l 531 544 l 331 544 l 331 0 l 61 0 m 250 844 l 250 972 l 694 1013 l 694 844 l 250 844 z "},"Ǹ":{"ha":944,"x_min":61,"x_max":883,"o":"m 61 0 l 61 972 l 297 972 l 636 424 l 636 972 l 883 972 l 883 0 l 647 0 l 308 549 l 308 0 l 61 0 m 653 1039 l 208 1039 l 208 1207 l 653 1167 l 653 1039 z "},"ǹ":{"ha":861,"x_min":61,"x_max":800,"o":"m 61 0 l 61 778 l 619 778 l 800 597 l 800 0 l 531 0 l 531 544 l 331 544 l 331 0 l 61 0 m 611 844 l 167 844 l 167 1013 l 611 972 l 611 844 z "},"Ň":{"ha":944,"x_min":61,"x_max":883,"o":"m 61 0 l 61 972 l 297 972 l 636 424 l 636 972 l 883 972 l 883 0 l 647 0 l 308 549 l 308 0 l 61 0 m 736 1263 l 736 1107 l 472 1021 l 208 1107 l 208 1263 l 472 1176 l 736 1263 z "},"ň":{"ha":861,"x_min":61,"x_max":800,"o":"m 61 0 l 61 778 l 619 778 l 800 597 l 800 0 l 531 0 l 531 544 l 331 544 l 331 0 l 61 0 m 694 1068 l 694 913 l 431 826 l 167 913 l 167 1068 l 431 982 l 694 1068 z "},"Ñ":{"ha":944,"x_min":61,"x_max":883,"o":"m 61 0 l 61 972 l 297 972 l 636 424 l 636 972 l 883 972 l 883 0 l 647 0 l 308 549 l 308 0 l 61 0 m 208 1000 l 181 1146 l 319 1232 l 603 1171 l 736 1236 l 764 1090 l 625 1004 l 342 1065 l 208 1000 z "},"ñ":{"ha":861,"x_min":61,"x_max":800,"o":"m 61 0 l 61 778 l 619 778 l 800 597 l 800 0 l 531 0 l 531 544 l 331 544 l 331 0 l 61 0 m 167 806 l 139 951 l 278 1038 l 561 976 l 694 1042 l 722 896 l 583 810 l 300 871 l 167 806 z "},"Ṅ":{"ha":944,"x_min":61,"x_max":883,"o":"m 61 0 l 61 972 l 297 972 l 636 424 l 636 972 l 883 972 l 883 0 l 647 0 l 308 549 l 308 0 l 61 0 m 338 1036 l 338 1203 l 607 1203 l 607 1036 l 338 1036 z "},"ṅ":{"ha":861,"x_min":61,"x_max":800,"o":"m 61 0 l 61 778 l 619 778 l 800 597 l 800 0 l 531 0 l 531 544 l 331 544 l 331 0 l 61 0 m 296 842 l 296 1008 l 565 1008 l 565 842 l 296 842 z "},"Ņ":{"ha":944,"x_min":61,"x_max":883,"o":"m 61 0 l 61 972 l 297 972 l 636 424 l 636 972 l 883 972 l 883 0 l 647 0 l 308 549 l 308 0 l 61 0 m 311 -278 l 379 -72 l 617 -72 l 497 -278 l 311 -278 z "},"ņ":{"ha":861,"x_min":61,"x_max":800,"o":"m 61 0 l 61 778 l 619 778 l 800 597 l 800 0 l 531 0 l 531 544 l 331 544 l 331 0 l 61 0 m 269 -278 l 338 -72 l 575 -72 l 456 -278 l 269 -278 z "},"Ṉ":{"ha":944,"x_min":61,"x_max":883,"o":"m 61 0 l 61 972 l 297 972 l 636 424 l 636 972 l 883 972 l 883 0 l 647 0 l 308 549 l 308 0 l 61 0 m 236 -236 l 236 -71 l 708 -71 l 708 -236 l 236 -236 z "},"ṉ":{"ha":861,"x_min":61,"x_max":800,"o":"m 61 0 l 61 778 l 619 778 l 800 597 l 800 0 l 531 0 l 531 544 l 331 544 l 331 0 l 61 0 m 194 -236 l 194 -71 l 667 -71 l 667 -236 l 194 -236 z "},"Ɲ":{"ha":944,"x_min":-3,"x_max":883,"o":"m -3 0 l -3 233 l 61 233 l 61 972 l 297 972 l 636 424 l 636 972 l 883 972 l 883 0 l 647 0 l 308 549 l 308 122 l 186 0 l -3 0 z "},"ɲ":{"ha":861,"x_min":-3,"x_max":800,"o":"m -3 -194 l -3 39 l 61 39 l 61 778 l 619 778 l 800 597 l 800 0 l 531 0 l 531 544 l 331 544 l 331 -25 l 161 -194 l -3 -194 z "},"Ŋ":{"ha":944,"x_min":61,"x_max":883,"o":"m 61 0 l 61 972 l 296 972 l 636 431 l 636 972 l 883 972 l 883 -56 l 722 -217 l 531 -217 l 531 -28 l 638 -28 l 638 24 l 308 549 l 308 0 l 61 0 z "},"ŋ":{"ha":861,"x_min":61,"x_max":800,"o":"m 61 0 l 61 778 l 619 778 l 800 597 l 800 -61 l 639 -222 l 447 -222 l 447 -33 l 531 -33 l 531 544 l 331 544 l 331 0 l 61 0 z "},"Ó":{"ha":944,"x_min":56,"x_max":889,"o":"m 56 189 l 56 783 l 244 972 l 700 972 l 889 783 l 889 189 l 700 0 l 244 0 l 56 189 m 336 739 l 336 233 l 608 233 l 608 739 l 336 739 m 292 1039 l 292 1167 l 736 1207 l 736 1039 l 292 1039 z "},"ó":{"ha":833,"x_min":49,"x_max":785,"o":"m 49 169 l 49 608 l 218 778 l 615 778 l 785 608 l 785 169 l 615 0 l 218 0 l 49 169 m 318 211 l 515 211 l 515 567 l 318 567 l 318 211 m 236 844 l 236 972 l 681 1013 l 681 844 l 236 844 z "},"Ò":{"ha":944,"x_min":56,"x_max":889,"o":"m 56 189 l 56 783 l 244 972 l 700 972 l 889 783 l 889 189 l 700 0 l 244 0 l 56 189 m 336 739 l 336 233 l 608 233 l 608 739 l 336 739 m 653 1039 l 208 1039 l 208 1207 l 653 1167 l 653 1039 z "},"ò":{"ha":833,"x_min":49,"x_max":785,"o":"m 49 169 l 49 608 l 218 778 l 615 778 l 785 608 l 785 169 l 615 0 l 218 0 l 49 169 m 318 211 l 515 211 l 515 567 l 318 567 l 318 211 m 597 844 l 153 844 l 153 1013 l 597 972 l 597 844 z "},"Ŏ":{"ha":944,"x_min":56,"x_max":889,"o":"m 56 189 l 56 783 l 244 972 l 700 972 l 889 783 l 889 189 l 700 0 l 244 0 l 56 189 m 336 739 l 336 233 l 608 233 l 608 739 l 336 739 m 558 1225 l 772 1225 l 642 1025 l 303 1025 l 172 1225 l 386 1225 l 396 1143 l 549 1143 l 558 1225 z "},"ŏ":{"ha":833,"x_min":49,"x_max":785,"o":"m 49 169 l 49 608 l 218 778 l 615 778 l 785 608 l 785 169 l 615 0 l 218 0 l 49 169 m 318 211 l 515 211 l 515 567 l 318 567 l 318 211 m 503 1031 l 717 1031 l 586 831 l 247 831 l 117 1031 l 331 1031 l 340 949 l 493 949 l 503 1031 z "},"Ô":{"ha":944,"x_min":56,"x_max":889,"o":"m 56 189 l 56 783 l 244 972 l 700 972 l 889 783 l 889 189 l 700 0 l 244 0 l 56 189 m 336 739 l 336 233 l 608 233 l 608 739 l 336 739 m 208 1021 l 208 1176 l 472 1263 l 736 1176 l 736 1021 l 472 1107 l 208 1021 z "},"ô":{"ha":833,"x_min":49,"x_max":785,"o":"m 49 169 l 49 608 l 218 778 l 615 778 l 785 608 l 785 169 l 615 0 l 218 0 l 49 169 m 318 211 l 515 211 l 515 567 l 318 567 l 318 211 m 153 826 l 153 982 l 417 1068 l 681 982 l 681 826 l 417 913 l 153 826 z "},"Ǒ":{"ha":944,"x_min":56,"x_max":889,"o":"m 56 189 l 56 783 l 244 972 l 700 972 l 889 783 l 889 189 l 700 0 l 244 0 l 56 189 m 336 739 l 336 233 l 608 233 l 608 739 l 336 739 m 736 1263 l 736 1107 l 472 1021 l 208 1107 l 208 1263 l 472 1176 l 736 1263 z "},"ǒ":{"ha":833,"x_min":49,"x_max":785,"o":"m 49 169 l 49 608 l 218 778 l 615 778 l 785 608 l 785 169 l 615 0 l 218 0 l 49 169 m 318 211 l 515 211 l 515 567 l 318 567 l 318 211 m 681 1068 l 681 913 l 417 826 l 153 913 l 153 1068 l 417 982 l 681 1068 z "},"Ö":{"ha":944,"x_min":56,"x_max":889,"o":"m 56 189 l 56 783 l 244 972 l 700 972 l 889 783 l 889 189 l 700 0 l 244 0 l 56 189 m 336 739 l 336 233 l 608 233 l 608 739 l 336 739 m 174 1036 l 174 1203 l 421 1203 l 421 1036 l 174 1036 m 524 1036 l 524 1203 l 771 1203 l 771 1036 l 524 1036 z "},"ö":{"ha":833,"x_min":49,"x_max":785,"o":"m 49 169 l 49 608 l 218 778 l 615 778 l 785 608 l 785 169 l 615 0 l 218 0 l 49 169 m 318 211 l 515 211 l 515 567 l 318 567 l 318 211 m 118 842 l 118 1008 l 365 1008 l 365 842 l 118 842 m 468 842 l 468 1008 l 715 1008 l 715 842 l 468 842 z "},"Ȫ":{"ha":944,"x_min":56,"x_max":889,"o":"m 56 189 l 56 783 l 244 972 l 700 972 l 889 783 l 889 189 l 700 0 l 244 0 l 56 189 m 336 739 l 336 233 l 608 233 l 608 739 l 336 739 m 174 1036 l 174 1203 l 421 1203 l 421 1036 l 174 1036 m 524 1036 l 524 1203 l 771 1203 l 771 1036 l 524 1036 m 236 1260 l 236 1364 l 708 1364 l 708 1260 l 236 1260 z "},"ȫ":{"ha":833,"x_min":49,"x_max":785,"o":"m 49 169 l 49 608 l 218 778 l 615 778 l 785 608 l 785 169 l 615 0 l 218 0 l 49 169 m 318 211 l 515 211 l 515 567 l 318 567 l 318 211 m 118 842 l 118 1008 l 365 1008 l 365 842 l 118 842 m 468 842 l 468 1008 l 715 1008 l 715 842 l 468 842 m 181 1065 l 181 1169 l 653 1169 l 653 1065 l 181 1065 z "},"Ő":{"ha":944,"x_min":56,"x_max":889,"o":"m 56 189 l 56 783 l 244 972 l 700 972 l 889 783 l 889 189 l 700 0 l 244 0 l 56 189 m 336 739 l 336 233 l 608 233 l 608 739 l 336 739 m 267 1019 l 322 1208 l 528 1208 l 421 1019 l 267 1019 m 490 1019 l 574 1208 l 779 1208 l 646 1019 l 490 1019 z "},"ő":{"ha":833,"x_min":49,"x_max":785,"o":"m 49 169 l 49 608 l 218 778 l 615 778 l 785 608 l 785 169 l 615 0 l 218 0 l 49 169 m 318 211 l 515 211 l 515 567 l 318 567 l 318 211 m 211 825 l 267 1014 l 472 1014 l 365 825 l 211 825 m 435 825 l 518 1014 l 724 1014 l 590 825 l 435 825 z "},"Õ":{"ha":944,"x_min":56,"x_max":889,"o":"m 56 189 l 56 783 l 244 972 l 700 972 l 889 783 l 889 189 l 700 0 l 244 0 l 56 189 m 336 739 l 336 233 l 608 233 l 608 739 l 336 739 m 208 1000 l 181 1146 l 319 1232 l 603 1171 l 736 1236 l 764 1090 l 625 1004 l 342 1065 l 208 1000 z "},"õ":{"ha":833,"x_min":49,"x_max":785,"o":"m 49 169 l 49 608 l 218 778 l 615 778 l 785 608 l 785 169 l 615 0 l 218 0 l 49 169 m 318 211 l 515 211 l 515 567 l 318 567 l 318 211 m 153 806 l 125 951 l 264 1038 l 547 976 l 681 1042 l 708 896 l 569 810 l 286 871 l 153 806 z "},"Ȭ":{"ha":944,"x_min":56,"x_max":889,"o":"m 56 189 l 56 783 l 244 972 l 700 972 l 889 783 l 889 189 l 700 0 l 244 0 l 56 189 m 336 739 l 336 233 l 608 233 l 608 739 l 336 739 m 208 1000 l 181 1146 l 319 1232 l 603 1171 l 736 1236 l 764 1090 l 625 1004 l 342 1065 l 208 1000 m 236 1265 l 236 1369 l 708 1369 l 708 1265 l 236 1265 z "},"ȭ":{"ha":833,"x_min":49,"x_max":785,"o":"m 49 169 l 49 608 l 218 778 l 615 778 l 785 608 l 785 169 l 615 0 l 218 0 l 49 169 m 318 211 l 515 211 l 515 567 l 318 567 l 318 211 m 153 806 l 125 951 l 264 1038 l 547 976 l 681 1042 l 708 896 l 569 810 l 286 871 l 153 806 m 181 1071 l 181 1175 l 653 1175 l 653 1071 l 181 1071 z "},"Ȯ":{"ha":944,"x_min":56,"x_max":889,"o":"m 56 189 l 56 783 l 244 972 l 700 972 l 889 783 l 889 189 l 700 0 l 244 0 l 56 189 m 336 739 l 336 233 l 608 233 l 608 739 l 336 739 m 338 1036 l 338 1203 l 607 1203 l 607 1036 l 338 1036 z "},"ȯ":{"ha":833,"x_min":49,"x_max":785,"o":"m 49 169 l 49 608 l 218 778 l 615 778 l 785 608 l 785 169 l 615 0 l 218 0 l 49 169 m 318 211 l 515 211 l 515 567 l 318 567 l 318 211 m 282 842 l 282 1008 l 551 1008 l 551 842 l 282 842 z "},"Ȱ":{"ha":944,"x_min":56,"x_max":889,"o":"m 56 189 l 56 783 l 244 972 l 700 972 l 889 783 l 889 189 l 700 0 l 244 0 l 56 189 m 336 739 l 336 233 l 608 233 l 608 739 l 336 739 m 338 1036 l 338 1203 l 607 1203 l 607 1036 l 338 1036 m 236 1260 l 236 1364 l 708 1364 l 708 1260 l 236 1260 z "},"ȱ":{"ha":833,"x_min":49,"x_max":785,"o":"m 49 169 l 49 608 l 218 778 l 615 778 l 785 608 l 785 169 l 615 0 l 218 0 l 49 169 m 318 211 l 515 211 l 515 567 l 318 567 l 318 211 m 282 842 l 282 1008 l 551 1008 l 551 842 l 282 842 m 181 1065 l 181 1169 l 653 1169 l 653 1065 l 181 1065 z "},"Ø":{"ha":944,"x_min":54,"x_max":890,"o":"m 56 194 l 56 783 l 244 972 l 694 972 l 889 778 l 889 189 l 700 0 l 250 0 l 56 194 m 325 739 l 325 233 l 619 233 l 619 739 l 325 739 m 54 0 l 788 972 l 890 972 l 157 0 l 54 0 z "},"ø":{"ha":833,"x_min":42,"x_max":792,"o":"m 49 172 l 49 608 l 218 778 l 613 778 l 785 606 l 785 169 l 615 0 l 221 0 l 49 172 m 311 200 l 522 200 l 522 578 l 311 578 l 311 200 m 42 0 l 688 778 l 792 778 l 146 0 l 42 0 z "},"Ǿ":{"ha":944,"x_min":54,"x_max":890,"o":"m 56 194 l 56 783 l 244 972 l 694 972 l 889 778 l 889 189 l 700 0 l 250 0 l 56 194 m 325 739 l 325 233 l 619 233 l 619 739 l 325 739 m 54 0 l 788 972 l 890 972 l 157 0 l 54 0 m 292 1039 l 292 1167 l 736 1207 l 736 1039 l 292 1039 z "},"ǿ":{"ha":833,"x_min":42,"x_max":792,"o":"m 49 172 l 49 608 l 218 778 l 613 778 l 785 606 l 785 169 l 615 0 l 221 0 l 49 172 m 311 200 l 522 200 l 522 578 l 311 578 l 311 200 m 42 0 l 688 778 l 792 778 l 146 0 l 42 0 m 236 844 l 236 972 l 681 1013 l 681 844 l 236 844 z "},"Ǫ":{"ha":944,"x_min":56,"x_max":889,"o":"m 56 189 l 56 783 l 244 972 l 700 972 l 889 783 l 889 189 l 700 0 l 244 0 l 56 189 m 336 739 l 336 233 l 608 233 l 608 739 l 336 739 m 592 -61 l 536 -278 l 299 -278 l 406 -61 l 592 -61 z "},"ǫ":{"ha":833,"x_min":49,"x_max":785,"o":"m 49 169 l 49 608 l 218 778 l 615 778 l 785 608 l 785 169 l 615 0 l 218 0 l 49 169 m 318 211 l 515 211 l 515 567 l 318 567 l 318 211 m 536 -61 l 481 -278 l 243 -278 l 350 -61 l 536 -61 z "},"Ō":{"ha":944,"x_min":56,"x_max":889,"o":"m 56 189 l 56 783 l 244 972 l 700 972 l 889 783 l 889 189 l 700 0 l 244 0 l 56 189 m 336 739 l 336 233 l 608 233 l 608 739 l 336 739 m 236 1043 l 236 1208 l 708 1208 l 708 1043 l 236 1043 z "},"ō":{"ha":833,"x_min":49,"x_max":785,"o":"m 49 169 l 49 608 l 218 778 l 615 778 l 785 608 l 785 169 l 615 0 l 218 0 l 49 169 m 318 211 l 515 211 l 515 567 l 318 567 l 318 211 m 181 849 l 181 1014 l 653 1014 l 653 849 l 181 849 z "},"Ȍ":{"ha":944,"x_min":56,"x_max":889,"o":"m 56 189 l 56 783 l 244 972 l 700 972 l 889 783 l 889 189 l 700 0 l 244 0 l 56 189 m 336 739 l 336 233 l 608 233 l 608 739 l 336 739 m 622 1208 l 678 1019 l 524 1019 l 417 1208 l 622 1208 m 371 1208 l 454 1019 l 299 1019 l 165 1208 l 371 1208 z "},"ȍ":{"ha":833,"x_min":49,"x_max":785,"o":"m 49 169 l 49 608 l 218 778 l 615 778 l 785 608 l 785 169 l 615 0 l 218 0 l 49 169 m 318 211 l 515 211 l 515 567 l 318 567 l 318 211 m 567 1014 l 622 825 l 468 825 l 361 1014 l 567 1014 m 315 1014 l 399 825 l 243 825 l 110 1014 l 315 1014 z "},"Ȏ":{"ha":944,"x_min":56,"x_max":889,"o":"m 56 189 l 56 783 l 244 972 l 700 972 l 889 783 l 889 189 l 700 0 l 244 0 l 56 189 m 336 739 l 336 233 l 608 233 l 608 739 l 336 739 m 386 1017 l 172 1017 l 303 1217 l 642 1217 l 772 1017 l 558 1017 l 549 1099 l 396 1099 l 386 1017 z "},"ȏ":{"ha":833,"x_min":49,"x_max":785,"o":"m 49 169 l 49 608 l 218 778 l 615 778 l 785 608 l 785 169 l 615 0 l 218 0 l 49 169 m 318 211 l 515 211 l 515 567 l 318 567 l 318 211 m 331 822 l 117 822 l 247 1022 l 586 1022 l 717 822 l 503 822 l 493 904 l 340 904 l 331 822 z "},"Œ":{"ha":1272,"x_min":56,"x_max":1231,"o":"m 56 189 l 56 783 l 244 972 l 1217 972 l 1217 750 l 833 750 l 833 600 l 1147 600 l 1147 389 l 833 389 l 833 222 l 1231 222 l 1231 0 l 244 0 l 56 189 m 325 728 l 325 244 l 564 244 l 564 728 l 325 728 z "},"œ":{"ha":1269,"x_min":49,"x_max":1221,"o":"m 49 181 l 49 597 l 229 778 l 563 778 l 642 699 l 721 778 l 1221 778 l 1221 336 l 776 336 l 776 222 l 1193 222 l 1193 0 l 721 0 l 642 79 l 563 0 l 229 0 l 49 181 m 318 211 l 507 211 l 507 567 l 318 567 l 318 211 m 776 456 l 996 469 l 996 578 l 776 578 l 776 456 z "},"Ɔ":{"ha":775,"x_min":36,"x_max":719,"o":"m 719 783 l 719 189 l 531 0 l 50 0 l 50 244 l 439 244 l 439 728 l 36 728 l 36 972 l 531 972 l 719 783 z "},"ɔ":{"ha":729,"x_min":49,"x_max":699,"o":"m 699 608 l 699 169 l 529 0 l 49 0 l 49 244 l 429 244 l 429 533 l 49 533 l 49 778 l 529 778 l 699 608 z "},"Ṗ":{"ha":872,"x_min":61,"x_max":839,"o":"m 331 419 l 569 419 l 569 761 l 331 761 l 331 419 m 839 783 l 839 397 l 650 208 l 331 208 l 331 0 l 61 0 l 61 972 l 650 972 l 839 783 m 260 1036 l 260 1203 l 529 1203 l 529 1036 l 260 1036 z "},"ṗ":{"ha":861,"x_min":61,"x_max":813,"o":"m 61 -194 l 61 778 l 621 778 l 813 586 l 813 192 l 621 0 l 331 0 l 331 -194 l 61 -194 m 543 556 l 331 556 l 331 222 l 543 222 l 543 556 m 260 842 l 260 1008 l 529 1008 l 529 842 l 260 842 z "},"ĸ":{"ha":861,"x_min":61,"x_max":858,"o":"m 61 0 l 61 778 l 331 778 l 331 515 l 428 515 l 549 778 l 850 778 l 651 418 l 858 0 l 554 0 l 438 293 l 331 293 l 331 0 l 61 0 z "},"Ŕ":{"ha":914,"x_min":61,"x_max":913,"o":"m 331 467 l 594 467 l 594 761 l 331 761 l 331 467 m 864 783 l 864 453 l 746 335 l 913 0 l 610 0 l 497 256 l 331 256 l 331 0 l 61 0 l 61 972 l 675 972 l 864 783 m 242 1039 l 242 1167 l 686 1207 l 686 1039 l 242 1039 z "},"ŕ":{"ha":653,"x_min":61,"x_max":625,"o":"m 61 0 l 61 597 l 242 778 l 625 778 l 625 533 l 331 533 l 331 0 l 61 0 m 169 844 l 169 972 l 614 1013 l 614 844 l 169 844 z "},"Ř":{"ha":914,"x_min":61,"x_max":913,"o":"m 331 467 l 594 467 l 594 761 l 331 761 l 331 467 m 864 783 l 864 453 l 746 335 l 913 0 l 610 0 l 497 256 l 331 256 l 331 0 l 61 0 l 61 972 l 675 972 l 864 783 m 686 1263 l 686 1107 l 422 1021 l 158 1107 l 158 1263 l 422 1176 l 686 1263 z "},"ř":{"ha":653,"x_min":61,"x_max":625,"o":"m 61 0 l 61 597 l 242 778 l 625 778 l 625 533 l 331 533 l 331 0 l 61 0 m 614 1068 l 614 913 l 350 826 l 86 913 l 86 1068 l 350 982 l 614 1068 z "},"Ŗ":{"ha":914,"x_min":61,"x_max":913,"o":"m 331 467 l 594 467 l 594 761 l 331 761 l 331 467 m 864 783 l 864 453 l 746 335 l 913 0 l 610 0 l 497 256 l 331 256 l 331 0 l 61 0 l 61 972 l 675 972 l 864 783 m 288 -278 l 356 -72 l 593 -72 l 474 -278 l 288 -278 z "},"ŗ":{"ha":653,"x_min":35,"x_max":625,"o":"m 61 0 l 61 597 l 242 778 l 625 778 l 625 533 l 331 533 l 331 0 l 61 0 m 35 -278 l 103 -72 l 340 -72 l 221 -278 l 35 -278 z "},"Ȑ":{"ha":914,"x_min":61,"x_max":913,"o":"m 331 467 l 594 467 l 594 761 l 331 761 l 331 467 m 864 783 l 864 453 l 746 335 l 913 0 l 610 0 l 497 256 l 331 256 l 331 0 l 61 0 l 61 972 l 675 972 l 864 783 m 572 1208 l 628 1019 l 474 1019 l 367 1208 l 572 1208 m 321 1208 l 404 1019 l 249 1019 l 115 1208 l 321 1208 z "},"ȑ":{"ha":653,"x_min":43,"x_max":625,"o":"m 61 0 l 61 597 l 242 778 l 625 778 l 625 533 l 331 533 l 331 0 l 61 0 m 500 1014 l 556 825 l 401 825 l 294 1014 l 500 1014 m 249 1014 l 332 825 l 176 825 l 43 1014 l 249 1014 z "},"Ȓ":{"ha":914,"x_min":61,"x_max":913,"o":"m 331 467 l 594 467 l 594 761 l 331 761 l 331 467 m 864 783 l 864 453 l 746 335 l 913 0 l 610 0 l 497 256 l 331 256 l 331 0 l 61 0 l 61 972 l 675 972 l 864 783 m 336 1017 l 122 1017 l 253 1217 l 592 1217 l 722 1017 l 508 1017 l 499 1099 l 346 1099 l 336 1017 z "},"ȓ":{"ha":653,"x_min":50,"x_max":650,"o":"m 61 0 l 61 597 l 242 778 l 625 778 l 625 533 l 331 533 l 331 0 l 61 0 m 264 822 l 50 822 l 181 1022 l 519 1022 l 650 822 l 436 822 l 426 904 l 274 904 l 264 822 z "},"Ṛ":{"ha":914,"x_min":61,"x_max":913,"o":"m 331 467 l 594 467 l 594 761 l 331 761 l 331 467 m 864 783 l 864 453 l 746 335 l 913 0 l 610 0 l 497 256 l 331 256 l 331 0 l 61 0 l 61 972 l 675 972 l 864 783 m 314 -256 l 314 -89 l 583 -89 l 583 -256 l 314 -256 z "},"ṛ":{"ha":653,"x_min":61,"x_max":625,"o":"m 61 0 l 61 597 l 242 778 l 625 778 l 625 533 l 331 533 l 331 0 l 61 0 m 61 -256 l 61 -89 l 331 -89 l 331 -256 l 61 -256 z "},"Ś":{"ha":889,"x_min":56,"x_max":833,"o":"m 69 0 l 69 233 l 564 233 l 564 374 l 56 419 l 56 794 l 233 972 l 819 972 l 819 739 l 325 739 l 325 613 l 833 567 l 833 178 l 656 0 l 69 0 m 290 1039 l 290 1167 l 735 1207 l 735 1039 l 290 1039 z "},"ś":{"ha":811,"x_min":49,"x_max":763,"o":"m 49 0 l 49 211 l 493 211 l 493 324 l 49 324 l 49 608 l 218 778 l 763 778 l 763 567 l 318 567 l 318 457 l 763 457 l 763 165 l 597 0 l 49 0 m 253 844 l 253 972 l 697 1013 l 697 844 l 253 844 z "},"Ŝ":{"ha":889,"x_min":56,"x_max":833,"o":"m 69 0 l 69 233 l 564 233 l 564 374 l 56 419 l 56 794 l 233 972 l 819 972 l 819 739 l 325 739 l 325 613 l 833 567 l 833 178 l 656 0 l 69 0 m 207 1021 l 207 1176 l 471 1263 l 735 1176 l 735 1021 l 471 1107 l 207 1021 z "},"ŝ":{"ha":811,"x_min":49,"x_max":763,"o":"m 49 0 l 49 211 l 493 211 l 493 324 l 49 324 l 49 608 l 218 778 l 763 778 l 763 567 l 318 567 l 318 457 l 763 457 l 763 165 l 597 0 l 49 0 m 169 826 l 169 982 l 433 1068 l 697 982 l 697 826 l 433 913 l 169 826 z "},"Š":{"ha":889,"x_min":56,"x_max":833,"o":"m 69 0 l 69 233 l 564 233 l 564 374 l 56 419 l 56 794 l 233 972 l 819 972 l 819 739 l 325 739 l 325 613 l 833 567 l 833 178 l 656 0 l 69 0 m 735 1263 l 735 1107 l 471 1021 l 207 1107 l 207 1263 l 471 1176 l 735 1263 z "},"š":{"ha":811,"x_min":49,"x_max":763,"o":"m 49 0 l 49 211 l 493 211 l 493 324 l 49 324 l 49 608 l 218 778 l 763 778 l 763 567 l 318 567 l 318 457 l 763 457 l 763 165 l 597 0 l 49 0 m 697 1068 l 697 913 l 433 826 l 169 913 l 169 1068 l 433 982 l 697 1068 z "},"Ṡ":{"ha":889,"x_min":56,"x_max":833,"o":"m 69 0 l 69 233 l 564 233 l 564 374 l 56 419 l 56 794 l 233 972 l 819 972 l 819 739 l 325 739 l 325 613 l 833 567 l 833 178 l 656 0 l 69 0 m 336 1036 l 336 1203 l 606 1203 l 606 1036 l 336 1036 z "},"ṡ":{"ha":811,"x_min":49,"x_max":763,"o":"m 49 0 l 49 211 l 493 211 l 493 324 l 49 324 l 49 608 l 218 778 l 763 778 l 763 567 l 318 567 l 318 457 l 763 457 l 763 165 l 597 0 l 49 0 m 299 842 l 299 1008 l 568 1008 l 568 842 l 299 842 z "},"Ş":{"ha":889,"x_min":56,"x_max":833,"o":"m 69 0 l 69 233 l 564 233 l 564 374 l 56 419 l 56 794 l 233 972 l 819 972 l 819 739 l 325 739 l 325 613 l 833 567 l 833 178 l 656 0 l 69 0 m 257 -278 l 325 -72 l 563 -72 l 444 -278 l 257 -278 z "},"ş":{"ha":811,"x_min":49,"x_max":763,"o":"m 49 0 l 49 211 l 493 211 l 493 324 l 49 324 l 49 608 l 218 778 l 763 778 l 763 567 l 318 567 l 318 457 l 763 457 l 763 165 l 597 0 l 49 0 m 217 -278 l 285 -72 l 522 -72 l 404 -278 l 217 -278 z "},"Ṣ":{"ha":889,"x_min":56,"x_max":833,"o":"m 69 0 l 69 233 l 564 233 l 564 374 l 56 419 l 56 794 l 233 972 l 819 972 l 819 739 l 325 739 l 325 613 l 833 567 l 833 178 l 656 0 l 69 0 m 283 -256 l 283 -89 l 553 -89 l 553 -256 l 283 -256 z "},"ṣ":{"ha":811,"x_min":49,"x_max":763,"o":"m 49 0 l 49 211 l 493 211 l 493 324 l 49 324 l 49 608 l 218 778 l 763 778 l 763 567 l 318 567 l 318 457 l 763 457 l 763 165 l 597 0 l 49 0 m 243 -256 l 243 -89 l 513 -89 l 513 -256 l 243 -256 z "},"Ș":{"ha":889,"x_min":56,"x_max":833,"o":"m 69 0 l 69 233 l 564 233 l 564 374 l 56 419 l 56 794 l 233 972 l 819 972 l 819 739 l 325 739 l 325 613 l 833 567 l 833 178 l 656 0 l 69 0 m 257 -278 l 325 -72 l 563 -72 l 443 -278 l 257 -278 z "},"ș":{"ha":811,"x_min":49,"x_max":763,"o":"m 49 0 l 49 211 l 493 211 l 493 324 l 49 324 l 49 608 l 218 778 l 763 778 l 763 567 l 318 567 l 318 457 l 763 457 l 763 165 l 597 0 l 49 0 m 217 -278 l 285 -72 l 522 -72 l 403 -278 l 217 -278 z "},"ſ":{"ha":603,"x_min":61,"x_max":575,"o":"m 61 0 l 61 803 l 231 972 l 575 972 l 575 739 l 331 739 l 331 0 l 61 0 z "},"ẞ":{"ha":972,"x_min":61,"x_max":939,"o":"m 904 972 l 904 610 l 819 536 l 939 444 l 939 192 l 747 0 l 433 0 l 433 233 l 669 233 l 669 410 l 467 410 l 467 588 l 640 588 l 640 750 l 331 750 l 331 0 l 61 0 l 61 792 l 242 972 l 904 972 z "},"ß":{"ha":875,"x_min":61,"x_max":842,"o":"m 813 781 l 813 599 l 713 514 l 842 408 l 842 169 l 672 0 l 425 0 l 425 211 l 572 211 l 572 410 l 428 410 l 428 588 l 549 588 l 549 761 l 331 761 l 331 0 l 61 0 l 61 781 l 253 972 l 621 972 l 813 781 z "},"Ť":{"ha":800,"x_min":28,"x_max":772,"o":"m 265 0 l 265 739 l 28 739 l 28 972 l 772 972 l 772 739 l 535 739 l 535 0 l 265 0 m 664 1263 l 664 1107 l 400 1021 l 136 1107 l 136 1263 l 400 1176 l 664 1263 z "},"ť":{"ha":597,"x_min":61,"x_max":569,"o":"m 481 806 l 481 1069 l 569 1069 l 569 806 l 481 806 m 61 903 l 331 972 l 331 750 l 569 750 l 569 528 l 331 528 l 331 222 l 569 222 l 569 0 l 242 0 l 61 181 l 61 903 z "},"Ṫ":{"ha":800,"x_min":28,"x_max":772,"o":"m 265 0 l 265 739 l 28 739 l 28 972 l 772 972 l 772 739 l 535 739 l 535 0 l 265 0 m 265 1036 l 265 1203 l 535 1203 l 535 1036 l 265 1036 z "},"ṫ":{"ha":597,"x_min":61,"x_max":569,"o":"m 61 903 l 331 972 l 331 750 l 569 750 l 569 528 l 331 528 l 331 222 l 569 222 l 569 0 l 242 0 l 61 181 l 61 903 m 215 1036 l 215 1203 l 485 1203 l 485 1036 l 215 1036 z "},"Ţ":{"ha":800,"x_min":28,"x_max":772,"o":"m 265 0 l 265 739 l 28 739 l 28 972 l 772 972 l 772 739 l 535 739 l 535 0 l 265 0 m 239 -278 l 307 -72 l 544 -72 l 425 -278 l 239 -278 z "},"ţ":{"ha":597,"x_min":61,"x_max":569,"o":"m 61 903 l 331 972 l 331 750 l 569 750 l 569 528 l 331 528 l 331 222 l 569 222 l 569 0 l 242 0 l 61 181 l 61 903 m 178 -278 l 246 -72 l 483 -72 l 364 -278 l 178 -278 z "},"Ṭ":{"ha":800,"x_min":28,"x_max":772,"o":"m 265 0 l 265 739 l 28 739 l 28 972 l 772 972 l 772 739 l 535 739 l 535 0 l 265 0 m 265 -256 l 265 -89 l 535 -89 l 535 -256 l 265 -256 z "},"ṭ":{"ha":597,"x_min":61,"x_max":569,"o":"m 61 903 l 331 972 l 331 750 l 569 750 l 569 528 l 331 528 l 331 222 l 569 222 l 569 0 l 242 0 l 61 181 l 61 903 m 204 -256 l 204 -89 l 474 -89 l 474 -256 l 204 -256 z "},"Ț":{"ha":800,"x_min":28,"x_max":772,"o":"m 265 0 l 265 739 l 28 739 l 28 972 l 772 972 l 772 739 l 535 739 l 535 0 l 265 0 m 239 -278 l 307 -72 l 544 -72 l 425 -278 l 239 -278 z "},"ț":{"ha":597,"x_min":61,"x_max":569,"o":"m 61 903 l 331 972 l 331 750 l 569 750 l 569 528 l 331 528 l 331 222 l 569 222 l 569 0 l 242 0 l 61 181 l 61 903 m 178 -278 l 246 -72 l 483 -72 l 364 -278 l 178 -278 z "},"Ŧ":{"ha":778,"x_min":17,"x_max":761,"o":"m 89 329 l 89 517 l 689 517 l 689 329 l 89 329 m 254 0 l 254 739 l 17 739 l 17 972 l 761 972 l 761 739 l 524 739 l 524 0 l 254 0 z "},"ŧ":{"ha":597,"x_min":10,"x_max":569,"o":"m 61 903 l 331 972 l 331 750 l 569 750 l 569 539 l 331 539 l 331 222 l 569 222 l 569 0 l 242 0 l 61 181 l 61 903 m 10 346 l 10 451 l 569 451 l 569 346 l 10 346 z "},"Ú":{"ha":903,"x_min":61,"x_max":842,"o":"m 61 189 l 61 972 l 331 972 l 331 244 l 572 244 l 572 972 l 842 972 l 842 189 l 653 0 l 250 0 l 61 189 m 271 1039 l 271 1167 l 715 1207 l 715 1039 l 271 1039 z "},"ú":{"ha":861,"x_min":61,"x_max":800,"o":"m 800 778 l 800 0 l 242 0 l 61 181 l 61 778 l 331 778 l 331 233 l 531 233 l 531 778 l 800 778 m 250 844 l 250 972 l 694 1013 l 694 844 l 250 844 z "},"Ù":{"ha":903,"x_min":61,"x_max":842,"o":"m 61 189 l 61 972 l 331 972 l 331 244 l 572 244 l 572 972 l 842 972 l 842 189 l 653 0 l 250 0 l 61 189 m 632 1039 l 188 1039 l 188 1207 l 632 1167 l 632 1039 z "},"ù":{"ha":861,"x_min":61,"x_max":800,"o":"m 800 778 l 800 0 l 242 0 l 61 181 l 61 778 l 331 778 l 331 233 l 531 233 l 531 778 l 800 778 m 611 844 l 167 844 l 167 1013 l 611 972 l 611 844 z "},"Ŭ":{"ha":903,"x_min":61,"x_max":842,"o":"m 61 189 l 61 972 l 331 972 l 331 244 l 572 244 l 572 972 l 842 972 l 842 189 l 653 0 l 250 0 l 61 189 m 538 1225 l 751 1225 l 621 1025 l 282 1025 l 151 1225 l 365 1225 l 375 1143 l 528 1143 l 538 1225 z "},"ŭ":{"ha":861,"x_min":61,"x_max":800,"o":"m 800 778 l 800 0 l 242 0 l 61 181 l 61 778 l 331 778 l 331 233 l 531 233 l 531 778 l 800 778 m 517 1031 l 731 1031 l 600 831 l 261 831 l 131 1031 l 344 1031 l 354 949 l 507 949 l 517 1031 z "},"Û":{"ha":903,"x_min":61,"x_max":842,"o":"m 61 189 l 61 972 l 331 972 l 331 244 l 572 244 l 572 972 l 842 972 l 842 189 l 653 0 l 250 0 l 61 189 m 188 1021 l 188 1176 l 451 1263 l 715 1176 l 715 1021 l 451 1107 l 188 1021 z "},"û":{"ha":861,"x_min":61,"x_max":800,"o":"m 800 778 l 800 0 l 242 0 l 61 181 l 61 778 l 331 778 l 331 233 l 531 233 l 531 778 l 800 778 m 167 826 l 167 982 l 431 1068 l 694 982 l 694 826 l 431 913 l 167 826 z "},"Ǔ":{"ha":903,"x_min":61,"x_max":842,"o":"m 61 189 l 61 972 l 331 972 l 331 244 l 572 244 l 572 972 l 842 972 l 842 189 l 653 0 l 250 0 l 61 189 m 715 1263 l 715 1107 l 451 1021 l 188 1107 l 188 1263 l 451 1176 l 715 1263 z "},"ǔ":{"ha":861,"x_min":61,"x_max":800,"o":"m 800 778 l 800 0 l 242 0 l 61 181 l 61 778 l 331 778 l 331 233 l 531 233 l 531 778 l 800 778 m 694 1068 l 694 913 l 431 826 l 167 913 l 167 1068 l 431 982 l 694 1068 z "},"Ů":{"ha":903,"x_min":61,"x_max":842,"o":"m 61 189 l 61 972 l 331 972 l 331 244 l 572 244 l 572 972 l 842 972 l 842 189 l 653 0 l 250 0 l 61 189 m 265 1085 l 265 1221 l 367 1303 l 536 1303 l 638 1221 l 638 1085 l 536 1003 l 367 1003 l 265 1085 m 389 1110 l 514 1110 l 514 1196 l 389 1196 l 389 1110 z "},"ů":{"ha":861,"x_min":61,"x_max":800,"o":"m 800 778 l 800 0 l 242 0 l 61 181 l 61 778 l 331 778 l 331 233 l 531 233 l 531 778 l 800 778 m 244 890 l 244 1026 l 346 1108 l 515 1108 l 617 1026 l 617 890 l 515 808 l 346 808 l 244 890 m 368 915 l 493 915 l 493 1001 l 368 1001 l 368 915 z "},"Ü":{"ha":903,"x_min":61,"x_max":842,"o":"m 61 189 l 61 972 l 331 972 l 331 244 l 572 244 l 572 972 l 842 972 l 842 189 l 653 0 l 250 0 l 61 189 m 153 1036 l 153 1203 l 400 1203 l 400 1036 l 153 1036 m 503 1036 l 503 1203 l 750 1203 l 750 1036 l 503 1036 z "},"ü":{"ha":861,"x_min":61,"x_max":800,"o":"m 800 778 l 800 0 l 242 0 l 61 181 l 61 778 l 331 778 l 331 233 l 531 233 l 531 778 l 800 778 m 132 842 l 132 1008 l 379 1008 l 379 842 l 132 842 m 482 842 l 482 1008 l 729 1008 l 729 842 l 482 842 z "},"Ǘ":{"ha":903,"x_min":61,"x_max":842,"o":"m 61 189 l 61 972 l 331 972 l 331 244 l 572 244 l 572 972 l 842 972 l 842 189 l 653 0 l 250 0 l 61 189 m 153 1031 l 153 1153 l 400 1153 l 400 1031 l 153 1031 m 503 1031 l 503 1153 l 750 1153 l 750 1031 l 503 1031 m 271 1219 l 271 1347 l 715 1388 l 715 1219 l 271 1219 z "},"ǘ":{"ha":861,"x_min":61,"x_max":800,"o":"m 800 778 l 800 0 l 242 0 l 61 181 l 61 778 l 331 778 l 331 233 l 531 233 l 531 778 l 800 778 m 132 836 l 132 958 l 379 958 l 379 836 l 132 836 m 482 836 l 482 958 l 729 958 l 729 836 l 482 836 m 250 1025 l 250 1153 l 694 1193 l 694 1025 l 250 1025 z "},"Ǜ":{"ha":903,"x_min":61,"x_max":842,"o":"m 61 189 l 61 972 l 331 972 l 331 244 l 572 244 l 572 972 l 842 972 l 842 189 l 653 0 l 250 0 l 61 189 m 153 1031 l 153 1153 l 400 1153 l 400 1031 l 153 1031 m 503 1031 l 503 1153 l 750 1153 l 750 1031 l 503 1031 m 632 1219 l 188 1219 l 188 1388 l 632 1347 l 632 1219 z "},"ǜ":{"ha":861,"x_min":61,"x_max":800,"o":"m 800 778 l 800 0 l 242 0 l 61 181 l 61 778 l 331 778 l 331 233 l 531 233 l 531 778 l 800 778 m 132 836 l 132 958 l 379 958 l 379 836 l 132 836 m 482 836 l 482 958 l 729 958 l 729 836 l 482 836 m 611 1025 l 167 1025 l 167 1193 l 611 1153 l 611 1025 z "},"Ǚ":{"ha":903,"x_min":61,"x_max":842,"o":"m 61 189 l 61 972 l 331 972 l 331 244 l 572 244 l 572 972 l 842 972 l 842 189 l 653 0 l 250 0 l 61 189 m 153 1031 l 153 1153 l 400 1153 l 400 1031 l 153 1031 m 503 1031 l 503 1153 l 750 1153 l 750 1031 l 503 1031 m 715 1389 l 715 1268 l 451 1182 l 188 1268 l 188 1389 l 451 1303 l 715 1389 z "},"ǚ":{"ha":861,"x_min":61,"x_max":800,"o":"m 800 778 l 800 0 l 242 0 l 61 181 l 61 778 l 331 778 l 331 233 l 531 233 l 531 778 l 800 778 m 132 836 l 132 958 l 379 958 l 379 836 l 132 836 m 482 836 l 482 958 l 729 958 l 729 836 l 482 836 m 694 1194 l 694 1074 l 431 988 l 167 1074 l 167 1194 l 431 1108 l 694 1194 z "},"Ǖ":{"ha":903,"x_min":61,"x_max":842,"o":"m 61 189 l 61 972 l 331 972 l 331 244 l 572 244 l 572 972 l 842 972 l 842 189 l 653 0 l 250 0 l 61 189 m 153 1031 l 153 1153 l 400 1153 l 400 1031 l 153 1031 m 503 1031 l 503 1153 l 750 1153 l 750 1031 l 503 1031 m 215 1210 l 215 1314 l 688 1314 l 688 1210 l 215 1210 z "},"ǖ":{"ha":861,"x_min":61,"x_max":800,"o":"m 800 778 l 800 0 l 242 0 l 61 181 l 61 778 l 331 778 l 331 233 l 531 233 l 531 778 l 800 778 m 132 836 l 132 958 l 379 958 l 379 836 l 132 836 m 482 836 l 482 958 l 729 958 l 729 836 l 482 836 m 194 1015 l 194 1119 l 667 1119 l 667 1015 l 194 1015 z "},"Ű":{"ha":903,"x_min":61,"x_max":842,"o":"m 61 189 l 61 972 l 331 972 l 331 244 l 572 244 l 572 972 l 842 972 l 842 189 l 653 0 l 250 0 l 61 189 m 246 1019 l 301 1208 l 507 1208 l 400 1019 l 246 1019 m 469 1019 l 553 1208 l 758 1208 l 625 1019 l 469 1019 z "},"ű":{"ha":861,"x_min":61,"x_max":800,"o":"m 800 778 l 800 0 l 242 0 l 61 181 l 61 778 l 331 778 l 331 233 l 531 233 l 531 778 l 800 778 m 225 825 l 281 1014 l 486 1014 l 379 825 l 225 825 m 449 825 l 532 1014 l 738 1014 l 604 825 l 449 825 z "},"Ũ":{"ha":903,"x_min":61,"x_max":842,"o":"m 61 189 l 61 972 l 331 972 l 331 244 l 572 244 l 572 972 l 842 972 l 842 189 l 653 0 l 250 0 l 61 189 m 188 1000 l 160 1146 l 299 1232 l 582 1171 l 715 1236 l 743 1090 l 604 1004 l 321 1065 l 188 1000 z "},"ũ":{"ha":861,"x_min":61,"x_max":800,"o":"m 800 778 l 800 0 l 242 0 l 61 181 l 61 778 l 331 778 l 331 233 l 531 233 l 531 778 l 800 778 m 167 806 l 139 951 l 278 1038 l 561 976 l 694 1042 l 722 896 l 583 810 l 300 871 l 167 806 z "},"Ų":{"ha":903,"x_min":61,"x_max":842,"o":"m 61 189 l 61 972 l 331 972 l 331 244 l 572 244 l 572 972 l 842 972 l 842 189 l 653 0 l 250 0 l 61 189 m 622 -61 l 567 -278 l 329 -278 l 436 -61 l 622 -61 z "},"ų":{"ha":861,"x_min":61,"x_max":800,"o":"m 800 778 l 800 0 l 242 0 l 61 181 l 61 778 l 331 778 l 331 233 l 531 233 l 531 778 l 800 778 m 754 -61 l 699 -278 l 461 -278 l 568 -61 l 754 -61 z "},"Ū":{"ha":903,"x_min":61,"x_max":842,"o":"m 61 189 l 61 972 l 331 972 l 331 244 l 572 244 l 572 972 l 842 972 l 842 189 l 653 0 l 250 0 l 61 189 m 215 1043 l 215 1208 l 688 1208 l 688 1043 l 215 1043 z "},"ū":{"ha":861,"x_min":61,"x_max":800,"o":"m 800 778 l 800 0 l 242 0 l 61 181 l 61 778 l 331 778 l 331 233 l 531 233 l 531 778 l 800 778 m 194 849 l 194 1014 l 667 1014 l 667 849 l 194 849 z "},"Ȕ":{"ha":903,"x_min":61,"x_max":842,"o":"m 61 189 l 61 972 l 331 972 l 331 244 l 572 244 l 572 972 l 842 972 l 842 189 l 653 0 l 250 0 l 61 189 m 601 1208 l 657 1019 l 503 1019 l 396 1208 l 601 1208 m 350 1208 l 433 1019 l 278 1019 l 144 1208 l 350 1208 z "},"ȕ":{"ha":861,"x_min":61,"x_max":800,"o":"m 800 778 l 800 0 l 242 0 l 61 181 l 61 778 l 331 778 l 331 233 l 531 233 l 531 778 l 800 778 m 581 1014 l 636 825 l 482 825 l 375 1014 l 581 1014 m 329 1014 l 413 825 l 257 825 l 124 1014 l 329 1014 z "},"Ȗ":{"ha":903,"x_min":61,"x_max":842,"o":"m 61 189 l 61 972 l 331 972 l 331 244 l 572 244 l 572 972 l 842 972 l 842 189 l 653 0 l 250 0 l 61 189 m 365 1017 l 151 1017 l 282 1217 l 621 1217 l 751 1017 l 538 1017 l 528 1099 l 375 1099 l 365 1017 z "},"ȗ":{"ha":861,"x_min":61,"x_max":800,"o":"m 800 778 l 800 0 l 242 0 l 61 181 l 61 778 l 331 778 l 331 233 l 531 233 l 531 778 l 800 778 m 344 822 l 131 822 l 261 1022 l 600 1022 l 731 822 l 517 822 l 507 904 l 354 904 l 344 822 z "},"Ʉ":{"ha":903,"x_min":7,"x_max":896,"o":"m 7 472 l 7 617 l 896 617 l 896 472 l 7 472 m 61 189 l 61 972 l 331 972 l 331 244 l 572 244 l 572 972 l 842 972 l 842 189 l 653 0 l 250 0 l 61 189 z "},"ʉ":{"ha":861,"x_min":8,"x_max":853,"o":"m 8 399 l 8 542 l 853 542 l 853 399 l 8 399 m 800 778 l 800 0 l 242 0 l 61 181 l 61 778 l 331 778 l 331 233 l 531 233 l 531 778 l 800 778 z "},"Ṽ":{"ha":914,"x_min":11,"x_max":903,"o":"m 211 0 l 11 972 l 307 972 l 425 244 l 489 244 l 608 972 l 903 972 l 703 0 l 211 0 m 193 1000 l 165 1146 l 304 1232 l 588 1171 l 721 1236 l 749 1090 l 610 1004 l 326 1065 l 193 1000 z "},"ṽ":{"ha":806,"x_min":8,"x_max":797,"o":"m 168 0 l 8 778 l 283 778 l 364 222 l 446 222 l 528 778 l 797 778 l 638 0 l 168 0 m 139 806 l 111 951 l 250 1038 l 533 976 l 667 1042 l 694 896 l 556 810 l 272 871 l 139 806 z "},"Ʋ":{"ha":903,"x_min":61,"x_max":842,"o":"m 250 0 l 61 189 l 61 972 l 331 972 l 331 244 l 572 244 l 572 739 l 436 739 l 436 972 l 694 972 l 842 825 l 842 189 l 653 0 l 250 0 z "},"ʋ":{"ha":861,"x_min":61,"x_max":800,"o":"m 239 0 l 61 178 l 61 778 l 331 778 l 331 233 l 531 233 l 531 556 l 436 556 l 436 778 l 653 778 l 800 631 l 800 178 l 622 0 l 239 0 z "},"Ẃ":{"ha":1183,"x_min":6,"x_max":1178,"o":"m 161 0 l 6 972 l 297 972 l 385 289 l 414 289 l 506 819 l 678 819 l 769 289 l 799 289 l 886 972 l 1178 972 l 1022 0 l 675 0 l 592 465 l 508 0 l 161 0 m 411 1039 l 411 1167 l 856 1207 l 856 1039 l 411 1039 z "},"ẃ":{"ha":1167,"x_min":28,"x_max":1139,"o":"m 142 0 l 28 778 l 301 778 l 361 222 l 388 222 l 468 697 l 699 697 l 779 222 l 806 222 l 865 778 l 1139 778 l 1025 0 l 667 0 l 583 432 l 500 0 l 142 0 m 403 844 l 403 972 l 847 1013 l 847 844 l 403 844 z "},"Ẁ":{"ha":1183,"x_min":6,"x_max":1178,"o":"m 161 0 l 6 972 l 297 972 l 385 289 l 414 289 l 506 819 l 678 819 l 769 289 l 799 289 l 886 972 l 1178 972 l 1022 0 l 675 0 l 592 465 l 508 0 l 161 0 m 772 1039 l 328 1039 l 328 1207 l 772 1167 l 772 1039 z "},"ẁ":{"ha":1167,"x_min":28,"x_max":1139,"o":"m 142 0 l 28 778 l 301 778 l 361 222 l 388 222 l 468 697 l 699 697 l 779 222 l 806 222 l 865 778 l 1139 778 l 1025 0 l 667 0 l 583 432 l 500 0 l 142 0 m 764 844 l 319 844 l 319 1013 l 764 972 l 764 844 z "},"Ŵ":{"ha":1183,"x_min":6,"x_max":1178,"o":"m 161 0 l 6 972 l 297 972 l 385 289 l 414 289 l 506 819 l 678 819 l 769 289 l 799 289 l 886 972 l 1178 972 l 1022 0 l 675 0 l 592 465 l 508 0 l 161 0 m 328 1021 l 328 1176 l 592 1263 l 856 1176 l 856 1021 l 592 1107 l 328 1021 z "},"ŵ":{"ha":1167,"x_min":28,"x_max":1139,"o":"m 142 0 l 28 778 l 301 778 l 361 222 l 388 222 l 468 697 l 699 697 l 779 222 l 806 222 l 865 778 l 1139 778 l 1025 0 l 667 0 l 583 432 l 500 0 l 142 0 m 319 826 l 319 982 l 583 1068 l 847 982 l 847 826 l 583 913 l 319 826 z "},"Ẅ":{"ha":1183,"x_min":6,"x_max":1178,"o":"m 161 0 l 6 972 l 297 972 l 385 289 l 414 289 l 506 819 l 678 819 l 769 289 l 799 289 l 886 972 l 1178 972 l 1022 0 l 675 0 l 592 465 l 508 0 l 161 0 m 293 1036 l 293 1203 l 540 1203 l 540 1036 l 293 1036 m 643 1036 l 643 1203 l 890 1203 l 890 1036 l 643 1036 z "},"ẅ":{"ha":1167,"x_min":28,"x_max":1139,"o":"m 142 0 l 28 778 l 301 778 l 361 222 l 388 222 l 468 697 l 699 697 l 779 222 l 806 222 l 865 778 l 1139 778 l 1025 0 l 667 0 l 583 432 l 500 0 l 142 0 m 285 842 l 285 1008 l 532 1008 l 532 842 l 285 842 m 635 842 l 635 1008 l 882 1008 l 882 842 l 635 842 z "},"Ý":{"ha":889,"x_min":13,"x_max":876,"o":"m 310 0 l 310 292 l 193 292 l 13 972 l 300 972 l 397 525 l 492 525 l 589 972 l 876 972 l 696 292 l 579 292 l 579 0 l 310 0 m 264 1039 l 264 1167 l 708 1207 l 708 1039 l 264 1039 z "},"ý":{"ha":833,"x_min":8,"x_max":825,"o":"m 56 -194 l 56 28 l 397 28 l 417 111 l 175 111 l 8 778 l 283 778 l 378 322 l 460 322 l 551 778 l 825 778 l 588 -194 l 56 -194 m 236 844 l 236 972 l 681 1013 l 681 844 l 236 844 z "},"Ỳ":{"ha":889,"x_min":13,"x_max":876,"o":"m 310 0 l 310 292 l 193 292 l 13 972 l 300 972 l 397 525 l 492 525 l 589 972 l 876 972 l 696 292 l 579 292 l 579 0 l 310 0 m 625 1039 l 181 1039 l 181 1207 l 625 1167 l 625 1039 z "},"ỳ":{"ha":833,"x_min":8,"x_max":825,"o":"m 56 -194 l 56 28 l 397 28 l 417 111 l 175 111 l 8 778 l 283 778 l 378 322 l 460 322 l 551 778 l 825 778 l 588 -194 l 56 -194 m 597 844 l 153 844 l 153 1013 l 597 972 l 597 844 z "},"Ŷ":{"ha":889,"x_min":13,"x_max":876,"o":"m 310 0 l 310 292 l 193 292 l 13 972 l 300 972 l 397 525 l 492 525 l 589 972 l 876 972 l 696 292 l 579 292 l 579 0 l 310 0 m 181 1021 l 181 1176 l 444 1263 l 708 1176 l 708 1021 l 444 1107 l 181 1021 z "},"ŷ":{"ha":833,"x_min":8,"x_max":825,"o":"m 56 -194 l 56 28 l 397 28 l 417 111 l 175 111 l 8 778 l 283 778 l 378 322 l 460 322 l 551 778 l 825 778 l 588 -194 l 56 -194 m 153 826 l 153 982 l 417 1068 l 681 982 l 681 826 l 417 913 l 153 826 z "},"Ÿ":{"ha":889,"x_min":13,"x_max":876,"o":"m 310 0 l 310 292 l 193 292 l 13 972 l 300 972 l 397 525 l 492 525 l 589 972 l 876 972 l 696 292 l 579 292 l 579 0 l 310 0 m 146 1036 l 146 1203 l 393 1203 l 393 1036 l 146 1036 m 496 1036 l 496 1203 l 743 1203 l 743 1036 l 496 1036 z "},"ÿ":{"ha":833,"x_min":8,"x_max":825,"o":"m 56 -194 l 56 28 l 397 28 l 417 111 l 175 111 l 8 778 l 283 778 l 378 322 l 460 322 l 551 778 l 825 778 l 588 -194 l 56 -194 m 118 842 l 118 1008 l 365 1008 l 365 842 l 118 842 m 468 842 l 468 1008 l 715 1008 l 715 842 l 468 842 z "},"Ỹ":{"ha":889,"x_min":13,"x_max":876,"o":"m 310 0 l 310 292 l 193 292 l 13 972 l 300 972 l 397 525 l 492 525 l 589 972 l 876 972 l 696 292 l 579 292 l 579 0 l 310 0 m 181 1000 l 153 1146 l 292 1232 l 575 1171 l 708 1236 l 736 1090 l 597 1004 l 314 1065 l 181 1000 z "},"ỹ":{"ha":833,"x_min":8,"x_max":825,"o":"m 56 -194 l 56 28 l 397 28 l 417 111 l 175 111 l 8 778 l 283 778 l 378 322 l 460 322 l 551 778 l 825 778 l 588 -194 l 56 -194 m 153 806 l 125 951 l 264 1038 l 547 976 l 681 1042 l 708 896 l 569 810 l 286 871 l 153 806 z "},"Ȳ":{"ha":889,"x_min":13,"x_max":876,"o":"m 310 0 l 310 292 l 193 292 l 13 972 l 300 972 l 397 525 l 492 525 l 589 972 l 876 972 l 696 292 l 579 292 l 579 0 l 310 0 m 208 1043 l 208 1208 l 681 1208 l 681 1043 l 208 1043 z "},"ȳ":{"ha":833,"x_min":8,"x_max":825,"o":"m 56 -194 l 56 28 l 397 28 l 417 111 l 175 111 l 8 778 l 283 778 l 378 322 l 460 322 l 551 778 l 825 778 l 588 -194 l 56 -194 m 181 849 l 181 1014 l 653 1014 l 653 849 l 181 849 z "},"Ƴ":{"ha":900,"x_min":13,"x_max":893,"o":"m 310 0 l 310 292 l 193 292 l 13 972 l 300 972 l 397 525 l 492 525 l 572 886 l 658 972 l 893 972 l 893 739 l 811 739 l 696 292 l 579 292 l 579 0 l 310 0 z "},"ƴ":{"ha":833,"x_min":8,"x_max":842,"o":"m 56 -194 l 56 28 l 400 28 l 417 111 l 175 111 l 8 778 l 283 778 l 378 322 l 458 322 l 553 875 l 650 972 l 842 972 l 842 772 l 783 772 l 601 -194 l 56 -194 z "},"Ź":{"ha":783,"x_min":36,"x_max":747,"o":"m 36 0 l 36 197 l 440 750 l 42 750 l 42 972 l 742 972 l 742 775 l 338 222 l 747 222 l 747 0 l 36 0 m 211 1039 l 211 1167 l 656 1207 l 656 1039 l 211 1039 z "},"ź":{"ha":736,"x_min":31,"x_max":706,"o":"m 31 0 l 31 194 l 374 556 l 32 556 l 32 778 l 704 778 l 704 583 l 361 222 l 706 222 l 706 0 l 31 0 m 188 844 l 188 972 l 632 1013 l 632 844 l 188 844 z "},"Ž":{"ha":783,"x_min":36,"x_max":747,"o":"m 36 0 l 36 197 l 440 750 l 42 750 l 42 972 l 742 972 l 742 775 l 338 222 l 747 222 l 747 0 l 36 0 m 656 1263 l 656 1107 l 392 1021 l 128 1107 l 128 1263 l 392 1176 l 656 1263 z "},"ž":{"ha":736,"x_min":31,"x_max":706,"o":"m 31 0 l 31 194 l 374 556 l 32 556 l 32 778 l 704 778 l 704 583 l 361 222 l 706 222 l 706 0 l 31 0 m 632 1068 l 632 913 l 368 826 l 104 913 l 104 1068 l 368 982 l 632 1068 z "},"Ż":{"ha":783,"x_min":36,"x_max":747,"o":"m 36 0 l 36 197 l 440 750 l 42 750 l 42 972 l 742 972 l 742 775 l 338 222 l 747 222 l 747 0 l 36 0 m 257 1036 l 257 1203 l 526 1203 l 526 1036 l 257 1036 z "},"ż":{"ha":736,"x_min":31,"x_max":706,"o":"m 31 0 l 31 194 l 374 556 l 32 556 l 32 778 l 704 778 l 704 583 l 361 222 l 706 222 l 706 0 l 31 0 m 233 842 l 233 1008 l 503 1008 l 503 842 l 233 842 z "},"Ẓ":{"ha":783,"x_min":36,"x_max":747,"o":"m 36 0 l 36 197 l 440 750 l 42 750 l 42 972 l 742 972 l 742 775 l 338 222 l 747 222 l 747 0 l 36 0 m 257 -256 l 257 -89 l 526 -89 l 526 -256 l 257 -256 z "},"ẓ":{"ha":736,"x_min":31,"x_max":706,"o":"m 31 0 l 31 194 l 374 556 l 32 556 l 32 778 l 704 778 l 704 583 l 361 222 l 706 222 l 706 0 l 31 0 m 233 -256 l 233 -89 l 503 -89 l 503 -256 l 233 -256 z "},"Ʒ":{"ha":847,"x_min":40,"x_max":814,"o":"m 636 0 l 40 0 l 40 222 l 539 222 l 539 390 l 175 390 l 175 567 l 426 750 l 56 750 l 56 972 l 786 972 l 786 797 l 449 578 l 694 578 l 814 458 l 814 178 l 636 0 z "},"ʒ":{"ha":839,"x_min":40,"x_max":806,"o":"m 628 -194 l 40 -194 l 40 28 l 531 28 l 531 182 l 167 182 l 167 358 l 418 556 l 56 556 l 56 778 l 778 778 l 778 603 l 440 369 l 686 369 l 806 250 l 806 -17 l 628 -194 z "},"Ǯ":{"ha":847,"x_min":40,"x_max":814,"o":"m 636 0 l 40 0 l 40 222 l 539 222 l 539 390 l 175 390 l 175 567 l 426 750 l 56 750 l 56 972 l 786 972 l 786 797 l 449 578 l 694 578 l 814 458 l 814 178 l 636 0 m 688 1263 l 688 1107 l 424 1021 l 160 1107 l 160 1263 l 424 1176 l 688 1263 z "},"ǯ":{"ha":839,"x_min":40,"x_max":806,"o":"m 628 -194 l 40 -194 l 40 28 l 531 28 l 531 182 l 167 182 l 167 358 l 418 556 l 56 556 l 56 778 l 778 778 l 778 603 l 440 369 l 686 369 l 806 250 l 806 -17 l 628 -194 m 683 1068 l 683 913 l 419 826 l 156 913 l 156 1068 l 419 982 l 683 1068 z "},"Þ":{"ha":889,"x_min":61,"x_max":856,"o":"m 61 0 l 61 972 l 331 972 l 331 861 l 667 861 l 856 672 l 856 314 l 667 125 l 331 125 l 331 0 l 61 0 m 331 336 l 586 336 l 586 650 l 331 650 l 331 336 z "},"þ":{"ha":861,"x_min":61,"x_max":813,"o":"m 61 -194 l 61 972 l 331 972 l 331 778 l 621 778 l 813 586 l 813 192 l 621 0 l 331 0 l 331 -194 l 61 -194 m 331 222 l 543 222 l 543 556 l 331 556 l 331 222 z "},"ʔ":{"ha":775,"x_min":21,"x_max":754,"o":"m 408 0 l 161 0 l 161 560 l 507 640 l 507 739 l 21 739 l 21 972 l 574 972 l 754 792 l 754 483 l 408 388 l 408 0 z "},"Ꞌ":{"ha":397,"x_min":44,"x_max":353,"o":"m 94 278 l 44 972 l 353 972 l 303 278 l 94 278 z "},"ꞌ":{"ha":347,"x_min":31,"x_max":317,"o":"m 69 417 l 31 972 l 317 972 l 278 417 l 69 417 z "},"ǀ":{"ha":383,"x_min":69,"x_max":314,"o":"m 69 -42 l 69 1014 l 314 1014 l 314 -42 l 69 -42 z "},"ǁ":{"ha":700,"x_min":64,"x_max":636,"o":"m 64 -42 l 64 1014 l 308 1014 l 308 -42 l 64 -42 m 392 -42 l 392 1014 l 636 1014 l 636 -42 l 392 -42 z "},"ǂ":{"ha":833,"x_min":56,"x_max":778,"o":"m 294 -42 l 294 224 l 56 224 l 56 435 l 294 435 l 294 538 l 56 538 l 56 749 l 294 749 l 294 1014 l 539 1014 l 539 749 l 778 749 l 778 538 l 539 538 l 539 435 l 778 435 l 778 224 l 539 224 l 539 -42 l 294 -42 z "},"ǃ":{"ha":408,"x_min":50,"x_max":358,"o":"m 81 0 l 81 250 l 328 250 l 328 0 l 81 0 m 100 339 l 50 972 l 358 972 l 308 339 l 100 339 z "},"Ạ":{"ha":914,"x_min":11,"x_max":903,"o":"m 11 0 l 211 972 l 703 972 l 903 0 l 617 0 l 583 194 l 331 194 l 297 0 l 11 0 m 361 383 l 553 383 l 489 761 l 425 761 l 361 383 m 322 -256 l 322 -89 l 592 -89 l 592 -256 l 322 -256 z "},"ạ":{"ha":833,"x_min":47,"x_max":772,"o":"m 47 181 l 47 444 l 503 458 l 503 556 l 75 556 l 75 778 l 592 778 l 772 597 l 772 0 l 228 0 l 47 181 m 317 311 l 317 211 l 503 211 l 503 339 l 317 311 m 256 -256 l 256 -89 l 525 -89 l 525 -256 l 256 -256 z "},"Ả":{"ha":914,"x_min":11,"x_max":903,"o":"m 11 0 l 211 972 l 703 972 l 903 0 l 617 0 l 583 194 l 331 194 l 297 0 l 11 0 m 361 383 l 553 383 l 489 761 l 425 761 l 361 383 m 321 1114 l 321 1208 l 599 1208 l 599 1114 l 501 1014 l 356 1014 l 453 1114 l 321 1114 z "},"ả":{"ha":833,"x_min":47,"x_max":772,"o":"m 47 181 l 47 444 l 503 458 l 503 556 l 75 556 l 75 778 l 592 778 l 772 597 l 772 0 l 228 0 l 47 181 m 317 311 l 317 211 l 503 211 l 503 339 l 317 311 m 254 919 l 254 1014 l 532 1014 l 532 919 l 435 819 l 289 819 l 386 919 l 254 919 z "},"Ấ":{"ha":914,"x_min":11,"x_max":903,"o":"m 11 0 l 211 972 l 703 972 l 903 0 l 617 0 l 583 194 l 331 194 l 297 0 l 11 0 m 361 383 l 553 383 l 489 761 l 425 761 l 361 383 m 521 1246 l 521 1332 l 754 1389 l 754 1268 l 521 1246 m 193 1013 l 193 1168 l 457 1249 l 721 1168 l 721 1013 l 457 1093 l 193 1013 z "},"ấ":{"ha":833,"x_min":47,"x_max":772,"o":"m 47 181 l 47 444 l 503 458 l 503 556 l 75 556 l 75 778 l 592 778 l 772 597 l 772 0 l 228 0 l 47 181 m 317 311 l 317 211 l 503 211 l 503 339 l 317 311 m 454 1051 l 454 1138 l 688 1194 l 688 1074 l 454 1051 m 126 818 l 126 974 l 390 1054 l 654 974 l 654 818 l 390 899 l 126 818 z "},"Ầ":{"ha":914,"x_min":11,"x_max":903,"o":"m 11 0 l 211 972 l 703 972 l 903 0 l 617 0 l 583 194 l 331 194 l 297 0 l 11 0 m 361 383 l 553 383 l 489 761 l 425 761 l 361 383 m 743 1238 l 510 1268 l 510 1389 l 743 1329 l 743 1238 m 193 1013 l 193 1168 l 457 1254 l 721 1168 l 721 1013 l 457 1099 l 193 1013 z "},"ầ":{"ha":833,"x_min":47,"x_max":772,"o":"m 47 181 l 47 444 l 503 458 l 503 556 l 75 556 l 75 778 l 592 778 l 772 597 l 772 0 l 228 0 l 47 181 m 317 311 l 317 211 l 503 211 l 503 339 l 317 311 m 676 1043 l 443 1074 l 443 1194 l 676 1135 l 676 1043 m 126 818 l 126 974 l 390 1060 l 654 974 l 654 818 l 390 904 l 126 818 z "},"Ẩ":{"ha":914,"x_min":11,"x_max":903,"o":"m 11 0 l 211 972 l 703 972 l 903 0 l 617 0 l 583 194 l 331 194 l 297 0 l 11 0 m 361 383 l 553 383 l 489 761 l 425 761 l 361 383 m 193 1013 l 193 1168 l 457 1254 l 721 1168 l 721 1013 l 457 1099 l 193 1013 m 581 1307 l 581 1389 l 728 1389 l 806 1319 l 708 1211 l 614 1238 l 676 1307 l 581 1307 z "},"ẩ":{"ha":833,"x_min":47,"x_max":772,"o":"m 47 181 l 47 444 l 503 458 l 503 556 l 75 556 l 75 778 l 592 778 l 772 597 l 772 0 l 228 0 l 47 181 m 317 311 l 317 211 l 503 211 l 503 339 l 317 311 m 126 818 l 126 974 l 390 1060 l 654 974 l 654 818 l 390 904 l 126 818 m 514 1113 l 514 1194 l 661 1194 l 739 1125 l 642 1017 l 547 1043 l 610 1113 l 514 1113 z "},"Ẫ":{"ha":914,"x_min":11,"x_max":903,"o":"m 11 0 l 211 972 l 703 972 l 903 0 l 617 0 l 583 194 l 331 194 l 297 0 l 11 0 m 361 383 l 553 383 l 489 761 l 425 761 l 361 383 m 193 1000 l 193 1143 l 457 1221 l 721 1143 l 721 1000 l 457 1076 l 193 1000 m 268 1231 l 240 1318 l 349 1389 l 557 1339 l 646 1389 l 674 1301 l 565 1231 l 357 1281 l 268 1231 z "},"ẫ":{"ha":833,"x_min":47,"x_max":772,"o":"m 47 181 l 47 444 l 503 458 l 503 556 l 75 556 l 75 778 l 592 778 l 772 597 l 772 0 l 228 0 l 47 181 m 317 311 l 317 211 l 503 211 l 503 339 l 317 311 m 126 806 l 126 949 l 390 1026 l 654 949 l 654 806 l 390 882 l 126 806 m 201 1036 l 174 1124 l 282 1194 l 490 1144 l 579 1194 l 607 1107 l 499 1036 l 290 1086 l 201 1036 z "},"Ậ":{"ha":914,"x_min":11,"x_max":903,"o":"m 11 0 l 211 972 l 703 972 l 903 0 l 617 0 l 583 194 l 331 194 l 297 0 l 11 0 m 361 383 l 553 383 l 489 761 l 425 761 l 361 383 m 322 -256 l 322 -89 l 592 -89 l 592 -256 l 322 -256 m 193 1021 l 193 1176 l 457 1263 l 721 1176 l 721 1021 l 457 1107 l 193 1021 z "},"ậ":{"ha":833,"x_min":47,"x_max":772,"o":"m 47 181 l 47 444 l 503 458 l 503 556 l 75 556 l 75 778 l 592 778 l 772 597 l 772 0 l 228 0 l 47 181 m 317 311 l 317 211 l 503 211 l 503 339 l 317 311 m 256 -256 l 256 -89 l 525 -89 l 525 -256 l 256 -256 m 126 826 l 126 982 l 390 1068 l 654 982 l 654 826 l 390 913 l 126 826 z "},"Ắ":{"ha":914,"x_min":11,"x_max":903,"o":"m 11 0 l 211 972 l 703 972 l 903 0 l 617 0 l 583 194 l 331 194 l 297 0 l 11 0 m 361 383 l 553 383 l 489 761 l 425 761 l 361 383 m 426 1240 l 426 1332 l 660 1389 l 660 1268 l 426 1240 m 543 1225 l 757 1225 l 626 1025 l 288 1025 l 157 1225 l 371 1225 l 379 1143 l 535 1143 l 543 1225 z "},"ắ":{"ha":833,"x_min":47,"x_max":772,"o":"m 47 181 l 47 444 l 503 458 l 503 556 l 75 556 l 75 778 l 592 778 l 772 597 l 772 0 l 228 0 l 47 181 m 317 311 l 317 211 l 503 211 l 503 339 l 317 311 m 360 1046 l 360 1138 l 593 1194 l 593 1074 l 360 1046 m 476 1031 l 690 1031 l 560 831 l 221 831 l 90 1031 l 304 1031 l 313 949 l 468 949 l 476 1031 z "},"Ằ":{"ha":914,"x_min":11,"x_max":903,"o":"m 11 0 l 211 972 l 703 972 l 903 0 l 617 0 l 583 194 l 331 194 l 297 0 l 11 0 m 361 383 l 553 383 l 489 761 l 425 761 l 361 383 m 488 1238 l 254 1268 l 254 1389 l 488 1329 l 488 1238 m 543 1225 l 757 1225 l 626 1025 l 288 1025 l 157 1225 l 371 1225 l 379 1143 l 535 1143 l 543 1225 z "},"ằ":{"ha":833,"x_min":47,"x_max":772,"o":"m 47 181 l 47 444 l 503 458 l 503 556 l 75 556 l 75 778 l 592 778 l 772 597 l 772 0 l 228 0 l 47 181 m 317 311 l 317 211 l 503 211 l 503 339 l 317 311 m 421 1043 l 188 1074 l 188 1194 l 421 1135 l 421 1043 m 476 1031 l 690 1031 l 560 831 l 221 831 l 90 1031 l 304 1031 l 313 949 l 468 949 l 476 1031 z "},"Ẳ":{"ha":914,"x_min":11,"x_max":903,"o":"m 11 0 l 211 972 l 703 972 l 903 0 l 617 0 l 583 194 l 331 194 l 297 0 l 11 0 m 361 383 l 553 383 l 489 761 l 425 761 l 361 383 m 364 1307 l 364 1389 l 511 1389 l 589 1319 l 492 1211 l 397 1238 l 460 1307 l 364 1307 m 543 1225 l 757 1225 l 626 1025 l 288 1025 l 157 1225 l 371 1225 l 379 1143 l 535 1143 l 543 1225 z "},"ẳ":{"ha":833,"x_min":47,"x_max":772,"o":"m 47 181 l 47 444 l 503 458 l 503 556 l 75 556 l 75 778 l 592 778 l 772 597 l 772 0 l 228 0 l 47 181 m 317 311 l 317 211 l 503 211 l 503 339 l 317 311 m 297 1113 l 297 1194 l 444 1194 l 522 1125 l 425 1017 l 331 1043 l 393 1113 l 297 1113 m 476 1031 l 690 1031 l 560 831 l 221 831 l 90 1031 l 304 1031 l 313 949 l 468 949 l 476 1031 z "},"Ẵ":{"ha":914,"x_min":11,"x_max":903,"o":"m 11 0 l 211 972 l 703 972 l 903 0 l 617 0 l 583 194 l 331 194 l 297 0 l 11 0 m 361 383 l 553 383 l 489 761 l 425 761 l 361 383 m 274 1232 l 246 1319 l 349 1389 l 557 1339 l 640 1389 l 668 1301 l 565 1231 l 357 1281 l 274 1232 m 546 1215 l 758 1215 l 628 1024 l 286 1024 l 156 1215 l 368 1215 l 378 1142 l 536 1142 l 546 1215 z "},"ẵ":{"ha":833,"x_min":47,"x_max":772,"o":"m 47 181 l 47 444 l 503 458 l 503 556 l 75 556 l 75 778 l 592 778 l 772 597 l 772 0 l 228 0 l 47 181 m 317 311 l 317 211 l 503 211 l 503 339 l 317 311 m 207 1038 l 179 1125 l 282 1194 l 490 1144 l 574 1194 l 601 1107 l 499 1036 l 290 1086 l 207 1038 m 479 1021 l 692 1021 l 561 829 l 219 829 l 89 1021 l 301 1021 l 311 947 l 469 947 l 479 1021 z "},"Ặ":{"ha":914,"x_min":11,"x_max":903,"o":"m 11 0 l 211 972 l 703 972 l 903 0 l 617 0 l 583 194 l 331 194 l 297 0 l 11 0 m 361 383 l 553 383 l 489 761 l 425 761 l 361 383 m 322 -256 l 322 -89 l 592 -89 l 592 -256 l 322 -256 m 543 1225 l 757 1225 l 626 1025 l 288 1025 l 157 1225 l 371 1225 l 381 1143 l 533 1143 l 543 1225 z "},"ặ":{"ha":833,"x_min":47,"x_max":772,"o":"m 47 181 l 47 444 l 503 458 l 503 556 l 75 556 l 75 778 l 592 778 l 772 597 l 772 0 l 228 0 l 47 181 m 317 311 l 317 211 l 503 211 l 503 339 l 317 311 m 256 -256 l 256 -89 l 525 -89 l 525 -256 l 256 -256 m 476 1031 l 690 1031 l 560 831 l 221 831 l 90 1031 l 304 1031 l 314 949 l 467 949 l 476 1031 z "},"Ẹ":{"ha":806,"x_min":61,"x_max":764,"o":"m 61 0 l 61 972 l 750 972 l 750 750 l 331 750 l 331 600 l 681 600 l 681 389 l 331 389 l 331 222 l 764 222 l 764 0 l 61 0 m 278 -256 l 278 -89 l 547 -89 l 547 -256 l 278 -256 z "},"ẹ":{"ha":819,"x_min":49,"x_max":771,"o":"m 49 169 l 49 608 l 218 778 l 771 778 l 771 336 l 318 336 l 318 222 l 743 222 l 743 0 l 218 0 l 49 169 m 318 456 l 547 469 l 547 578 l 318 578 l 318 456 m 296 -256 l 296 -89 l 565 -89 l 565 -256 l 296 -256 z "},"Ẻ":{"ha":806,"x_min":61,"x_max":764,"o":"m 61 0 l 61 972 l 750 972 l 750 750 l 331 750 l 331 600 l 681 600 l 681 389 l 331 389 l 331 222 l 764 222 l 764 0 l 61 0 m 276 1114 l 276 1208 l 554 1208 l 554 1114 l 457 1014 l 311 1014 l 408 1114 l 276 1114 z "},"ẻ":{"ha":819,"x_min":49,"x_max":771,"o":"m 49 169 l 49 608 l 218 778 l 771 778 l 771 336 l 318 336 l 318 222 l 743 222 l 743 0 l 218 0 l 49 169 m 318 456 l 547 469 l 547 578 l 318 578 l 318 456 m 294 919 l 294 1014 l 572 1014 l 572 919 l 475 819 l 329 819 l 426 919 l 294 919 z "},"Ẽ":{"ha":806,"x_min":61,"x_max":764,"o":"m 61 0 l 61 972 l 750 972 l 750 750 l 331 750 l 331 600 l 681 600 l 681 389 l 331 389 l 331 222 l 764 222 l 764 0 l 61 0 m 149 1000 l 121 1146 l 260 1232 l 543 1171 l 676 1236 l 704 1090 l 565 1004 l 282 1065 l 149 1000 z "},"ẽ":{"ha":819,"x_min":49,"x_max":771,"o":"m 49 169 l 49 608 l 218 778 l 771 778 l 771 336 l 318 336 l 318 222 l 743 222 l 743 0 l 218 0 l 49 169 m 318 456 l 547 469 l 547 578 l 318 578 l 318 456 m 167 806 l 139 951 l 278 1038 l 561 976 l 694 1042 l 722 896 l 583 810 l 300 871 l 167 806 z "},"Ế":{"ha":806,"x_min":61,"x_max":764,"o":"m 61 0 l 61 972 l 750 972 l 750 750 l 331 750 l 331 600 l 681 600 l 681 389 l 331 389 l 331 222 l 764 222 l 764 0 l 61 0 m 476 1246 l 476 1332 l 710 1389 l 710 1268 l 476 1246 m 149 1013 l 149 1168 l 413 1249 l 676 1168 l 676 1013 l 413 1093 l 149 1013 z "},"ế":{"ha":819,"x_min":49,"x_max":771,"o":"m 49 169 l 49 608 l 218 778 l 771 778 l 771 336 l 318 336 l 318 222 l 743 222 l 743 0 l 218 0 l 49 169 m 318 456 l 547 469 l 547 578 l 318 578 l 318 456 m 494 1051 l 494 1138 l 728 1194 l 728 1074 l 494 1051 m 167 818 l 167 974 l 431 1054 l 694 974 l 694 818 l 431 899 l 167 818 z "},"Ề":{"ha":806,"x_min":61,"x_max":764,"o":"m 61 0 l 61 972 l 750 972 l 750 750 l 331 750 l 331 600 l 681 600 l 681 389 l 331 389 l 331 222 l 764 222 l 764 0 l 61 0 m 699 1238 l 465 1268 l 465 1389 l 699 1329 l 699 1238 m 149 1013 l 149 1168 l 413 1254 l 676 1168 l 676 1013 l 413 1099 l 149 1013 z "},"ề":{"ha":819,"x_min":49,"x_max":771,"o":"m 49 169 l 49 608 l 218 778 l 771 778 l 771 336 l 318 336 l 318 222 l 743 222 l 743 0 l 218 0 l 49 169 m 318 456 l 547 469 l 547 578 l 318 578 l 318 456 m 717 1043 l 483 1074 l 483 1194 l 717 1135 l 717 1043 m 167 818 l 167 974 l 431 1060 l 694 974 l 694 818 l 431 904 l 167 818 z "},"Ể":{"ha":806,"x_min":61,"x_max":764,"o":"m 61 0 l 61 972 l 750 972 l 750 750 l 331 750 l 331 600 l 681 600 l 681 389 l 331 389 l 331 222 l 764 222 l 764 0 l 61 0 m 149 1013 l 149 1168 l 413 1254 l 676 1168 l 676 1013 l 413 1099 l 149 1013 m 536 1307 l 536 1389 l 683 1389 l 761 1319 l 664 1211 l 569 1238 l 632 1307 l 536 1307 z "},"ể":{"ha":819,"x_min":49,"x_max":779,"o":"m 49 169 l 49 608 l 218 778 l 771 778 l 771 336 l 318 336 l 318 222 l 743 222 l 743 0 l 218 0 l 49 169 m 318 456 l 547 469 l 547 578 l 318 578 l 318 456 m 167 818 l 167 974 l 431 1060 l 694 974 l 694 818 l 431 904 l 167 818 m 554 1113 l 554 1194 l 701 1194 l 779 1125 l 682 1017 l 588 1043 l 650 1113 l 554 1113 z "},"Ễ":{"ha":806,"x_min":61,"x_max":764,"o":"m 61 0 l 61 972 l 750 972 l 750 750 l 331 750 l 331 600 l 681 600 l 681 389 l 331 389 l 331 222 l 764 222 l 764 0 l 61 0 m 149 1000 l 149 1143 l 413 1221 l 676 1143 l 676 1000 l 413 1076 l 149 1000 m 224 1231 l 196 1318 l 304 1389 l 513 1339 l 601 1389 l 629 1301 l 521 1231 l 313 1281 l 224 1231 z "},"ễ":{"ha":819,"x_min":49,"x_max":771,"o":"m 49 169 l 49 608 l 218 778 l 771 778 l 771 336 l 318 336 l 318 222 l 743 222 l 743 0 l 218 0 l 49 169 m 318 456 l 547 469 l 547 578 l 318 578 l 318 456 m 167 806 l 167 949 l 431 1026 l 694 949 l 694 806 l 431 882 l 167 806 m 242 1036 l 214 1124 l 322 1194 l 531 1144 l 619 1194 l 647 1107 l 539 1036 l 331 1086 l 242 1036 z "},"Ệ":{"ha":806,"x_min":61,"x_max":764,"o":"m 61 0 l 61 972 l 750 972 l 750 750 l 331 750 l 331 600 l 681 600 l 681 389 l 331 389 l 331 222 l 764 222 l 764 0 l 61 0 m 278 -256 l 278 -89 l 547 -89 l 547 -256 l 278 -256 m 149 1021 l 149 1176 l 413 1263 l 676 1176 l 676 1021 l 413 1107 l 149 1021 z "},"ệ":{"ha":819,"x_min":49,"x_max":771,"o":"m 49 169 l 49 608 l 218 778 l 771 778 l 771 336 l 318 336 l 318 222 l 743 222 l 743 0 l 218 0 l 49 169 m 318 456 l 547 469 l 547 578 l 318 578 l 318 456 m 296 -256 l 296 -89 l 565 -89 l 565 -256 l 296 -256 m 167 826 l 167 982 l 431 1068 l 694 982 l 694 826 l 431 913 l 167 826 z "},"Ỉ":{"ha":597,"x_min":63,"x_max":535,"o":"m 63 -6 l 63 200 l 164 207 l 164 765 l 63 772 l 63 978 l 299 967 l 535 978 l 535 772 l 433 765 l 433 207 l 535 200 l 535 -6 l 299 6 l 63 -6 m 163 1114 l 163 1208 l 440 1208 l 440 1114 l 343 1014 l 197 1014 l 294 1114 l 163 1114 z "},"ỉ":{"ha":392,"x_min":60,"x_max":338,"o":"m 61 0 l 61 778 l 331 778 l 331 0 l 61 0 m 60 919 l 60 1014 l 338 1014 l 338 919 l 240 819 l 94 819 l 192 919 l 60 919 z "},"Ị":{"ha":597,"x_min":63,"x_max":535,"o":"m 63 -6 l 63 200 l 164 207 l 164 765 l 63 772 l 63 978 l 299 967 l 535 978 l 535 772 l 433 765 l 433 207 l 535 200 l 535 -6 l 299 6 l 63 -6 m 164 -256 l 164 -89 l 433 -89 l 433 -256 l 164 -256 z "},"ị":{"ha":392,"x_min":61,"x_max":331,"o":"m 61 0 l 61 778 l 331 778 l 331 0 l 61 0 m 61 842 l 61 1008 l 331 1008 l 331 842 l 61 842 m 61 -256 l 61 -89 l 331 -89 l 331 -256 l 61 -256 z "},"Ọ":{"ha":944,"x_min":56,"x_max":889,"o":"m 56 189 l 56 783 l 244 972 l 700 972 l 889 783 l 889 189 l 700 0 l 244 0 l 56 189 m 336 739 l 336 233 l 608 233 l 608 739 l 336 739 m 338 -256 l 338 -89 l 607 -89 l 607 -256 l 338 -256 z "},"ọ":{"ha":833,"x_min":49,"x_max":785,"o":"m 49 169 l 49 608 l 218 778 l 615 778 l 785 608 l 785 169 l 615 0 l 218 0 l 49 169 m 318 211 l 515 211 l 515 567 l 318 567 l 318 211 m 282 -256 l 282 -89 l 551 -89 l 551 -256 l 282 -256 z "},"Ỏ":{"ha":944,"x_min":56,"x_max":889,"o":"m 56 189 l 56 783 l 244 972 l 700 972 l 889 783 l 889 189 l 700 0 l 244 0 l 56 189 m 336 739 l 336 233 l 608 233 l 608 739 l 336 739 m 336 1114 l 336 1208 l 614 1208 l 614 1114 l 517 1014 l 371 1014 l 468 1114 l 336 1114 z "},"ỏ":{"ha":833,"x_min":49,"x_max":785,"o":"m 49 169 l 49 608 l 218 778 l 615 778 l 785 608 l 785 169 l 615 0 l 218 0 l 49 169 m 318 211 l 515 211 l 515 567 l 318 567 l 318 211 m 281 919 l 281 1014 l 558 1014 l 558 919 l 461 819 l 315 819 l 413 919 l 281 919 z "},"Ố":{"ha":944,"x_min":56,"x_max":889,"o":"m 56 189 l 56 783 l 244 972 l 700 972 l 889 783 l 889 189 l 700 0 l 244 0 l 56 189 m 336 739 l 336 233 l 608 233 l 608 739 l 336 739 m 536 1246 l 536 1332 l 769 1389 l 769 1268 l 536 1246 m 208 1013 l 208 1168 l 472 1249 l 736 1168 l 736 1013 l 472 1093 l 208 1013 z "},"ố":{"ha":833,"x_min":49,"x_max":785,"o":"m 49 169 l 49 608 l 218 778 l 615 778 l 785 608 l 785 169 l 615 0 l 218 0 l 49 169 m 318 211 l 515 211 l 515 567 l 318 567 l 318 211 m 481 1051 l 481 1138 l 714 1194 l 714 1074 l 481 1051 m 153 818 l 153 974 l 417 1054 l 681 974 l 681 818 l 417 899 l 153 818 z "},"Ồ":{"ha":944,"x_min":56,"x_max":889,"o":"m 56 189 l 56 783 l 244 972 l 700 972 l 889 783 l 889 189 l 700 0 l 244 0 l 56 189 m 336 739 l 336 233 l 608 233 l 608 739 l 336 739 m 758 1238 l 525 1268 l 525 1389 l 758 1329 l 758 1238 m 208 1013 l 208 1168 l 472 1254 l 736 1168 l 736 1013 l 472 1099 l 208 1013 z "},"ồ":{"ha":833,"x_min":49,"x_max":785,"o":"m 49 169 l 49 608 l 218 778 l 615 778 l 785 608 l 785 169 l 615 0 l 218 0 l 49 169 m 318 211 l 515 211 l 515 567 l 318 567 l 318 211 m 703 1043 l 469 1074 l 469 1194 l 703 1135 l 703 1043 m 153 818 l 153 974 l 417 1060 l 681 974 l 681 818 l 417 904 l 153 818 z "},"Ổ":{"ha":944,"x_min":56,"x_max":889,"o":"m 56 189 l 56 783 l 244 972 l 700 972 l 889 783 l 889 189 l 700 0 l 244 0 l 56 189 m 336 739 l 336 233 l 608 233 l 608 739 l 336 739 m 208 1013 l 208 1168 l 472 1254 l 736 1168 l 736 1013 l 472 1099 l 208 1013 m 596 1307 l 596 1389 l 743 1389 l 821 1319 l 724 1211 l 629 1238 l 692 1307 l 596 1307 z "},"ổ":{"ha":833,"x_min":49,"x_max":785,"o":"m 49 169 l 49 608 l 218 778 l 615 778 l 785 608 l 785 169 l 615 0 l 218 0 l 49 169 m 318 211 l 515 211 l 515 567 l 318 567 l 318 211 m 153 818 l 153 974 l 417 1060 l 681 974 l 681 818 l 417 904 l 153 818 m 540 1113 l 540 1194 l 688 1194 l 765 1125 l 668 1017 l 574 1043 l 636 1113 l 540 1113 z "},"Ỗ":{"ha":944,"x_min":56,"x_max":889,"o":"m 56 189 l 56 783 l 244 972 l 700 972 l 889 783 l 889 189 l 700 0 l 244 0 l 56 189 m 336 739 l 336 233 l 608 233 l 608 739 l 336 739 m 208 1000 l 208 1143 l 472 1221 l 736 1143 l 736 1000 l 472 1076 l 208 1000 m 283 1231 l 256 1318 l 364 1389 l 572 1339 l 661 1389 l 689 1301 l 581 1231 l 372 1281 l 283 1231 z "},"ỗ":{"ha":833,"x_min":49,"x_max":785,"o":"m 49 169 l 49 608 l 218 778 l 615 778 l 785 608 l 785 169 l 615 0 l 218 0 l 49 169 m 318 211 l 515 211 l 515 567 l 318 567 l 318 211 m 153 806 l 153 949 l 417 1026 l 681 949 l 681 806 l 417 882 l 153 806 m 228 1036 l 200 1124 l 308 1194 l 517 1144 l 606 1194 l 633 1107 l 525 1036 l 317 1086 l 228 1036 z "},"Ộ":{"ha":944,"x_min":56,"x_max":889,"o":"m 56 189 l 56 783 l 244 972 l 700 972 l 889 783 l 889 189 l 700 0 l 244 0 l 56 189 m 336 739 l 336 233 l 608 233 l 608 739 l 336 739 m 338 -256 l 338 -89 l 607 -89 l 607 -256 l 338 -256 m 208 1021 l 208 1176 l 472 1263 l 736 1176 l 736 1021 l 472 1107 l 208 1021 z "},"ộ":{"ha":833,"x_min":49,"x_max":785,"o":"m 49 169 l 49 608 l 218 778 l 615 778 l 785 608 l 785 169 l 615 0 l 218 0 l 49 169 m 318 211 l 515 211 l 515 567 l 318 567 l 318 211 m 282 -256 l 282 -89 l 551 -89 l 551 -256 l 282 -256 m 153 826 l 153 982 l 417 1068 l 681 982 l 681 826 l 417 913 l 153 826 z "},"Ơ":{"ha":944,"x_min":56,"x_max":978,"o":"m 56 189 l 56 783 l 244 972 l 788 972 l 788 1083 l 978 1083 l 978 906 l 889 817 l 889 189 l 700 0 l 244 0 l 56 189 m 336 739 l 336 233 l 608 233 l 608 739 l 336 739 z "},"ơ":{"ha":869,"x_min":49,"x_max":894,"o":"m 49 169 l 49 608 l 218 778 l 703 778 l 703 889 l 894 889 l 894 711 l 785 601 l 785 169 l 615 0 l 218 0 l 49 169 m 318 211 l 515 211 l 515 567 l 318 567 l 318 211 z "},"Ớ":{"ha":944,"x_min":56,"x_max":978,"o":"m 56 189 l 56 783 l 244 972 l 788 972 l 788 1083 l 978 1083 l 978 906 l 889 817 l 889 189 l 700 0 l 244 0 l 56 189 m 336 739 l 336 233 l 608 233 l 608 739 l 336 739 m 286 1039 l 286 1167 l 731 1207 l 731 1039 l 286 1039 z "},"ớ":{"ha":869,"x_min":49,"x_max":894,"o":"m 49 169 l 49 608 l 218 778 l 703 778 l 703 889 l 894 889 l 894 711 l 785 601 l 785 169 l 615 0 l 218 0 l 49 169 m 318 211 l 515 211 l 515 567 l 318 567 l 318 211 m 213 844 l 213 972 l 657 1013 l 657 844 l 213 844 z "},"Ờ":{"ha":944,"x_min":56,"x_max":978,"o":"m 56 189 l 56 783 l 244 972 l 788 972 l 788 1083 l 978 1083 l 978 906 l 889 817 l 889 189 l 700 0 l 244 0 l 56 189 m 336 739 l 336 233 l 608 233 l 608 739 l 336 739 m 647 1039 l 203 1039 l 203 1207 l 647 1167 l 647 1039 z "},"ờ":{"ha":869,"x_min":49,"x_max":894,"o":"m 49 169 l 49 608 l 218 778 l 703 778 l 703 889 l 894 889 l 894 711 l 785 601 l 785 169 l 615 0 l 218 0 l 49 169 m 318 211 l 515 211 l 515 567 l 318 567 l 318 211 m 574 844 l 129 844 l 129 1013 l 574 972 l 574 844 z "},"Ở":{"ha":944,"x_min":56,"x_max":978,"o":"m 56 189 l 56 783 l 244 972 l 788 972 l 788 1083 l 978 1083 l 978 906 l 889 817 l 889 189 l 700 0 l 244 0 l 56 189 m 336 739 l 336 233 l 608 233 l 608 739 l 336 739 m 331 1114 l 331 1208 l 608 1208 l 608 1114 l 511 1014 l 365 1014 l 463 1114 l 331 1114 z "},"ở":{"ha":869,"x_min":49,"x_max":894,"o":"m 49 169 l 49 608 l 218 778 l 703 778 l 703 889 l 894 889 l 894 711 l 785 601 l 785 169 l 615 0 l 218 0 l 49 169 m 318 211 l 515 211 l 515 567 l 318 567 l 318 211 m 257 919 l 257 1014 l 535 1014 l 535 919 l 438 819 l 292 819 l 389 919 l 257 919 z "},"Ỡ":{"ha":944,"x_min":56,"x_max":978,"o":"m 56 189 l 56 783 l 244 972 l 788 972 l 788 1083 l 978 1083 l 978 906 l 889 817 l 889 189 l 700 0 l 244 0 l 56 189 m 336 739 l 336 233 l 608 233 l 608 739 l 336 739 m 203 1000 l 175 1146 l 314 1232 l 597 1171 l 731 1236 l 758 1090 l 619 1004 l 336 1065 l 203 1000 z "},"ỡ":{"ha":869,"x_min":49,"x_max":894,"o":"m 49 169 l 49 608 l 218 778 l 703 778 l 703 889 l 894 889 l 894 711 l 785 601 l 785 169 l 615 0 l 218 0 l 49 169 m 318 211 l 515 211 l 515 567 l 318 567 l 318 211 m 129 806 l 101 951 l 240 1038 l 524 976 l 657 1042 l 685 896 l 546 810 l 263 871 l 129 806 z "},"Ợ":{"ha":944,"x_min":56,"x_max":978,"o":"m 56 189 l 56 783 l 244 972 l 788 972 l 788 1083 l 978 1083 l 978 906 l 889 817 l 889 189 l 700 0 l 244 0 l 56 189 m 336 739 l 336 233 l 608 233 l 608 739 l 336 739 m 338 -256 l 338 -89 l 607 -89 l 607 -256 l 338 -256 z "},"ợ":{"ha":869,"x_min":49,"x_max":894,"o":"m 49 169 l 49 608 l 218 778 l 703 778 l 703 889 l 894 889 l 894 711 l 785 601 l 785 169 l 615 0 l 218 0 l 49 169 m 318 211 l 515 211 l 515 567 l 318 567 l 318 211 m 282 -256 l 282 -89 l 551 -89 l 551 -256 l 282 -256 z "},"Ụ":{"ha":903,"x_min":61,"x_max":842,"o":"m 61 189 l 61 972 l 331 972 l 331 244 l 572 244 l 572 972 l 842 972 l 842 189 l 653 0 l 250 0 l 61 189 m 317 -256 l 317 -89 l 586 -89 l 586 -256 l 317 -256 z "},"ụ":{"ha":861,"x_min":61,"x_max":800,"o":"m 800 778 l 800 0 l 242 0 l 61 181 l 61 778 l 331 778 l 331 233 l 531 233 l 531 778 l 800 778 m 296 -256 l 296 -89 l 565 -89 l 565 -256 l 296 -256 z "},"Ủ":{"ha":903,"x_min":61,"x_max":842,"o":"m 61 189 l 61 972 l 331 972 l 331 244 l 572 244 l 572 972 l 842 972 l 842 189 l 653 0 l 250 0 l 61 189 m 315 1114 l 315 1208 l 593 1208 l 593 1114 l 496 1014 l 350 1014 l 447 1114 l 315 1114 z "},"ủ":{"ha":861,"x_min":61,"x_max":800,"o":"m 800 778 l 800 0 l 242 0 l 61 181 l 61 778 l 331 778 l 331 233 l 531 233 l 531 778 l 800 778 m 294 919 l 294 1014 l 572 1014 l 572 919 l 475 819 l 329 819 l 426 919 l 294 919 z "},"Ư":{"ha":903,"x_min":61,"x_max":975,"o":"m 61 189 l 61 972 l 331 972 l 331 244 l 572 244 l 572 972 l 785 972 l 785 1083 l 975 1083 l 975 906 l 842 772 l 842 189 l 653 0 l 250 0 l 61 189 z "},"ư":{"ha":872,"x_min":61,"x_max":911,"o":"m 61 181 l 61 778 l 331 778 l 331 233 l 531 233 l 531 778 l 719 778 l 719 889 l 911 889 l 911 711 l 800 600 l 800 0 l 242 0 l 61 181 z "},"Ứ":{"ha":903,"x_min":61,"x_max":975,"o":"m 61 189 l 61 972 l 331 972 l 331 244 l 572 244 l 572 972 l 785 972 l 785 1083 l 975 1083 l 975 906 l 842 772 l 842 189 l 653 0 l 250 0 l 61 189 m 271 1039 l 271 1167 l 715 1207 l 715 1039 l 271 1039 z "},"ứ":{"ha":872,"x_min":61,"x_max":911,"o":"m 61 181 l 61 778 l 331 778 l 331 233 l 531 233 l 531 778 l 719 778 l 719 889 l 911 889 l 911 711 l 800 600 l 800 0 l 242 0 l 61 181 m 256 844 l 256 972 l 700 1013 l 700 844 l 256 844 z "},"Ừ":{"ha":903,"x_min":61,"x_max":975,"o":"m 61 189 l 61 972 l 331 972 l 331 244 l 572 244 l 572 972 l 785 972 l 785 1083 l 975 1083 l 975 906 l 842 772 l 842 189 l 653 0 l 250 0 l 61 189 m 632 1039 l 188 1039 l 188 1207 l 632 1167 l 632 1039 z "},"ừ":{"ha":872,"x_min":61,"x_max":911,"o":"m 61 181 l 61 778 l 331 778 l 331 233 l 531 233 l 531 778 l 719 778 l 719 889 l 911 889 l 911 711 l 800 600 l 800 0 l 242 0 l 61 181 m 617 844 l 172 844 l 172 1013 l 617 972 l 617 844 z "},"Ử":{"ha":903,"x_min":61,"x_max":975,"o":"m 61 189 l 61 972 l 331 972 l 331 244 l 572 244 l 572 972 l 785 972 l 785 1083 l 975 1083 l 975 906 l 842 772 l 842 189 l 653 0 l 250 0 l 61 189 m 315 1114 l 315 1208 l 593 1208 l 593 1114 l 496 1014 l 350 1014 l 447 1114 l 315 1114 z "},"ử":{"ha":872,"x_min":61,"x_max":911,"o":"m 61 181 l 61 778 l 331 778 l 331 233 l 531 233 l 531 778 l 719 778 l 719 889 l 911 889 l 911 711 l 800 600 l 800 0 l 242 0 l 61 181 m 300 919 l 300 1014 l 578 1014 l 578 919 l 481 819 l 335 819 l 432 919 l 300 919 z "},"Ữ":{"ha":903,"x_min":61,"x_max":975,"o":"m 61 189 l 61 972 l 331 972 l 331 244 l 572 244 l 572 972 l 785 972 l 785 1083 l 975 1083 l 975 906 l 842 772 l 842 189 l 653 0 l 250 0 l 61 189 m 188 1000 l 160 1146 l 299 1232 l 582 1171 l 715 1236 l 743 1090 l 604 1004 l 321 1065 l 188 1000 z "},"ữ":{"ha":872,"x_min":61,"x_max":911,"o":"m 61 181 l 61 778 l 331 778 l 331 233 l 531 233 l 531 778 l 719 778 l 719 889 l 911 889 l 911 711 l 800 600 l 800 0 l 242 0 l 61 181 m 172 806 l 144 951 l 283 1038 l 567 976 l 700 1042 l 728 896 l 589 810 l 306 871 l 172 806 z "},"Ự":{"ha":903,"x_min":61,"x_max":975,"o":"m 61 189 l 61 972 l 331 972 l 331 244 l 572 244 l 572 972 l 785 972 l 785 1083 l 975 1083 l 975 906 l 842 772 l 842 189 l 653 0 l 250 0 l 61 189 m 317 -256 l 317 -89 l 586 -89 l 586 -256 l 317 -256 z "},"ự":{"ha":872,"x_min":61,"x_max":911,"o":"m 61 181 l 61 778 l 331 778 l 331 233 l 531 233 l 531 778 l 719 778 l 719 889 l 911 889 l 911 711 l 800 600 l 800 0 l 242 0 l 61 181 m 301 -256 l 301 -89 l 571 -89 l 571 -256 l 301 -256 z "},"Ỵ":{"ha":889,"x_min":13,"x_max":876,"o":"m 310 0 l 310 292 l 193 292 l 13 972 l 300 972 l 397 525 l 492 525 l 589 972 l 876 972 l 696 292 l 579 292 l 579 0 l 310 0 m 310 -256 l 310 -89 l 579 -89 l 579 -256 l 310 -256 z "},"ỵ":{"ha":833,"x_min":8,"x_max":825,"o":"m 56 -144 l 56 67 l 401 67 l 418 133 l 174 133 l 8 778 l 282 778 l 374 333 l 461 333 l 556 778 l 825 778 l 590 -144 l 56 -144 m 197 -347 l 197 -203 l 467 -203 l 467 -347 l 197 -347 z "},"Ỷ":{"ha":889,"x_min":13,"x_max":876,"o":"m 310 0 l 310 292 l 193 292 l 13 972 l 300 972 l 397 525 l 492 525 l 589 972 l 876 972 l 696 292 l 579 292 l 579 0 l 310 0 m 308 1114 l 308 1208 l 586 1208 l 586 1114 l 489 1014 l 343 1014 l 440 1114 l 308 1114 z "},"ỷ":{"ha":833,"x_min":8,"x_max":825,"o":"m 56 -194 l 56 28 l 397 28 l 417 111 l 175 111 l 8 778 l 283 778 l 378 322 l 460 322 l 551 778 l 825 778 l 588 -194 l 56 -194 m 281 919 l 281 1014 l 558 1014 l 558 919 l 461 819 l 315 819 l 413 919 l 281 919 z "},"Ǆ":{"ha":1665,"x_min":61,"x_max":1629,"o":"m 331 233 l 557 233 l 557 739 l 331 739 l 331 233 m 61 0 l 61 972 l 638 972 l 826 783 l 826 189 l 638 0 l 61 0 m 918 0 l 918 197 l 1322 750 l 924 750 l 924 972 l 1624 972 l 1624 775 l 1219 222 l 1629 222 l 1629 0 l 918 0 m 1538 1263 l 1538 1107 l 1274 1021 l 1010 1107 l 1010 1263 l 1274 1176 l 1538 1263 z "},"ǅ":{"ha":1618,"x_min":61,"x_max":1588,"o":"m 331 233 l 557 233 l 557 739 l 331 739 l 331 233 m 61 0 l 61 972 l 638 972 l 826 783 l 826 189 l 638 0 l 61 0 m 913 0 l 913 194 l 1256 556 l 914 556 l 914 778 l 1586 778 l 1586 583 l 1243 222 l 1588 222 l 1588 0 l 913 0 m 1514 1068 l 1514 913 l 1250 826 l 986 913 l 986 1068 l 1250 982 l 1514 1068 z "},"ǆ":{"ha":1597,"x_min":49,"x_max":1567,"o":"m 800 972 l 800 0 l 240 0 l 49 192 l 49 586 l 240 778 l 531 778 l 531 972 l 800 972 m 318 222 l 531 222 l 531 556 l 318 556 l 318 222 m 892 0 l 892 194 l 1235 556 l 893 556 l 893 778 l 1565 778 l 1565 583 l 1222 222 l 1567 222 l 1567 0 l 892 0 m 1493 1068 l 1493 913 l 1229 826 l 965 913 l 965 1068 l 1229 982 l 1493 1068 z "},"Ǉ":{"ha":1628,"x_min":61,"x_max":1572,"o":"m 61 0 l 61 972 l 331 972 l 331 222 l 524 222 l 524 389 l 758 389 l 758 0 l 61 0 m 822 192 l 822 472 l 1092 472 l 1092 244 l 1303 244 l 1303 739 l 872 739 l 872 972 l 1572 972 l 1572 192 l 1381 0 l 1014 0 l 822 192 z "},"ǈ":{"ha":1186,"x_min":61,"x_max":1125,"o":"m 61 0 l 61 972 l 331 972 l 331 222 l 524 222 l 524 389 l 758 389 l 758 0 l 61 0 m 856 -194 l 856 778 l 1125 778 l 1125 -194 l 856 -194 m 856 842 l 856 1008 l 1125 1008 l 1125 842 l 856 842 z "},"ǉ":{"ha":783,"x_min":61,"x_max":722,"o":"m 61 0 l 61 972 l 331 972 l 331 0 l 61 0 m 453 -194 l 453 778 l 722 778 l 722 -194 l 453 -194 m 453 842 l 453 1008 l 722 1008 l 722 842 l 453 842 z "},"Ǌ":{"ha":1778,"x_min":61,"x_max":1722,"o":"m 61 0 l 61 972 l 297 972 l 636 424 l 636 972 l 883 972 l 883 0 l 647 0 l 308 549 l 308 0 l 61 0 m 972 192 l 972 472 l 1242 472 l 1242 244 l 1453 244 l 1453 739 l 1022 739 l 1022 972 l 1722 972 l 1722 192 l 1531 0 l 1164 0 l 972 192 z "},"ǋ":{"ha":1336,"x_min":61,"x_max":1275,"o":"m 61 0 l 61 972 l 297 972 l 636 424 l 636 972 l 883 972 l 883 0 l 647 0 l 308 549 l 308 0 l 61 0 m 1006 -194 l 1006 778 l 1275 778 l 1275 -194 l 1006 -194 m 1006 842 l 1006 1008 l 1275 1008 l 1275 842 l 1006 842 z "},"ǌ":{"ha":1253,"x_min":61,"x_max":1192,"o":"m 61 0 l 61 778 l 619 778 l 800 597 l 800 0 l 531 0 l 531 544 l 331 544 l 331 0 l 61 0 m 922 -194 l 922 778 l 1192 778 l 1192 -194 l 922 -194 m 922 842 l 922 1008 l 1192 1008 l 1192 842 l 922 842 z "}," ":{"ha":361,"x_min":0,"x_max":0,"o":""}," ":{"ha":903,"x_min":0,"x_max":0,"o":""}," ":{"ha":381,"x_min":0,"x_max":0,"o":""}," ":{"ha":208,"x_min":0,"x_max":0,"o":""}," ":{"ha":139,"x_min":0,"x_max":0,"o":""},".":{"ha":381,"x_min":67,"x_max":314,"o":"m 67 0 l 67 250 l 314 250 l 314 0 l 67 0 z "},",":{"ha":381,"x_min":19,"x_max":329,"o":"m 81 0 l 81 250 l 329 250 l 329 0 l 179 -194 l 19 -194 l 171 0 l 81 0 z "},":":{"ha":381,"x_min":67,"x_max":314,"o":"m 67 0 l 67 250 l 314 250 l 314 0 l 67 0 m 67 500 l 67 750 l 314 750 l 314 500 l 67 500 z "},";":{"ha":381,"x_min":6,"x_max":314,"o":"m 65 0 l 65 250 l 314 250 l 314 0 l 164 -194 l 4 -194 l 156 0 l 65 0 m 51 500 l 51 750 l 299 750 l 299 500 l 51 500 z "},"…":{"ha":1142,"x_min":67,"x_max":1075,"o":"m 67 0 l 67 250 l 314 250 l 314 0 l 67 0 m 447 0 l 447 250 l 694 250 l 694 0 l 447 0 m 828 0 l 828 250 l 1075 250 l 1075 0 l 828 0 z "},"!":{"ha":408,"x_min":50,"x_max":358,"o":"m 81 0 l 81 250 l 328 250 l 328 0 l 81 0 m 100 339 l 50 972 l 358 972 l 308 339 l 100 339 z "},"¡":{"ha":408,"x_min":50,"x_max":358,"o":"m 328 778 l 328 528 l 81 528 l 81 778 l 328 778 m 308 439 l 358 -194 l 50 -194 l 100 439 l 308 439 z "},"?":{"ha":775,"x_min":21,"x_max":754,"o":"m 161 0 l 161 250 l 408 250 l 408 0 l 161 0 m 408 317 l 161 317 l 161 560 l 507 640 l 507 739 l 21 739 l 21 972 l 574 972 l 754 792 l 754 483 l 408 388 l 408 317 z "},"¿":{"ha":775,"x_min":21,"x_max":754,"o":"m 614 778 l 614 528 l 367 528 l 367 778 l 614 778 m 367 461 l 614 461 l 614 218 l 268 138 l 268 39 l 754 39 l 754 -194 l 201 -194 l 21 -14 l 21 294 l 367 390 l 367 461 z "},"'":{"ha":306,"x_min":28,"x_max":278,"o":"m 56 639 l 28 972 l 278 972 l 250 639 l 56 639 z "},"\"":{"ha":622,"x_min":39,"x_max":583,"o":"m 67 639 l 39 972 l 289 972 l 261 639 l 67 639 m 361 639 l 333 972 l 583 972 l 556 639 l 361 639 z "},"‘":{"ha":381,"x_min":51,"x_max":361,"o":"m 300 778 l 300 528 l 51 528 l 51 778 l 201 972 l 361 972 l 210 778 l 300 778 z "},"’":{"ha":381,"x_min":19,"x_max":329,"o":"m 81 722 l 81 972 l 329 972 l 329 722 l 179 528 l 19 528 l 171 722 l 81 722 z "},"‚":{"ha":381,"x_min":19,"x_max":329,"o":"m 81 0 l 81 250 l 329 250 l 329 0 l 179 -194 l 19 -194 l 171 0 l 81 0 z "},"“":{"ha":739,"x_min":51,"x_max":719,"o":"m 658 778 l 658 528 l 410 528 l 410 778 l 560 972 l 719 972 l 568 778 l 658 778 m 300 778 l 300 528 l 51 528 l 51 778 l 201 972 l 361 972 l 210 778 l 300 778 z "},"”":{"ha":739,"x_min":19,"x_max":688,"o":"m 81 722 l 81 972 l 329 972 l 329 722 l 179 528 l 19 528 l 171 722 l 81 722 m 439 722 l 439 972 l 688 972 l 688 722 l 538 528 l 378 528 l 529 722 l 439 722 z "},"„":{"ha":739,"x_min":19,"x_max":688,"o":"m 81 0 l 81 250 l 329 250 l 329 0 l 179 -194 l 19 -194 l 171 0 l 81 0 m 439 0 l 439 250 l 688 250 l 688 0 l 538 -194 l 378 -194 l 529 0 l 439 0 z "},"‹":{"ha":625,"x_min":28,"x_max":594,"o":"m 28 379 l 28 399 l 294 778 l 594 778 l 326 389 l 594 0 l 294 0 l 28 379 z "},"›":{"ha":625,"x_min":31,"x_max":597,"o":"m 597 399 l 597 379 l 331 0 l 31 0 l 299 389 l 31 778 l 331 778 l 597 399 z "},"«":{"ha":1025,"x_min":28,"x_max":994,"o":"m 28 379 l 28 399 l 294 778 l 594 778 l 326 389 l 594 0 l 294 0 l 28 379 m 428 379 l 428 399 l 694 778 l 994 778 l 726 389 l 994 0 l 694 0 l 428 379 z "},"»":{"ha":1025,"x_min":31,"x_max":997,"o":"m 997 399 l 997 379 l 731 0 l 431 0 l 699 389 l 431 778 l 731 778 l 997 399 m 597 399 l 597 379 l 331 0 l 31 0 l 299 389 l 31 778 l 331 778 l 597 399 z "},"(":{"ha":483,"x_min":61,"x_max":456,"o":"m 61 -6 l 61 853 l 250 1042 l 456 1042 l 456 825 l 331 825 l 331 22 l 456 22 l 456 -194 l 250 -194 l 61 -6 z "},")":{"ha":483,"x_min":28,"x_max":422,"o":"m 422 853 l 422 -6 l 233 -194 l 28 -194 l 28 22 l 153 22 l 153 825 l 28 825 l 28 1042 l 233 1042 l 422 853 z "},"[":{"ha":483,"x_min":61,"x_max":456,"o":"m 61 -194 l 61 1042 l 456 1042 l 456 836 l 319 836 l 319 11 l 456 11 l 456 -194 l 61 -194 z "},"]":{"ha":483,"x_min":28,"x_max":422,"o":"m 422 1042 l 422 -194 l 28 -194 l 28 11 l 164 11 l 164 836 l 28 836 l 28 1042 l 422 1042 z "},"{":{"ha":567,"x_min":28,"x_max":539,"o":"m 144 -6 l 144 318 l 28 318 l 28 529 l 144 529 l 144 853 l 333 1042 l 539 1042 l 539 825 l 414 825 l 414 529 l 308 424 l 414 318 l 414 22 l 539 22 l 539 -194 l 333 -194 l 144 -6 z "},"}":{"ha":567,"x_min":28,"x_max":539,"o":"m 422 853 l 422 529 l 539 529 l 539 318 l 422 318 l 422 -6 l 233 -194 l 28 -194 l 28 22 l 153 22 l 153 318 l 258 424 l 153 529 l 153 825 l 28 825 l 28 1042 l 233 1042 l 422 853 z "},"/":{"ha":611,"x_min":14,"x_max":597,"o":"m 14 0 l 321 972 l 597 972 l 290 0 l 14 0 z "},"\\":{"ha":611,"x_min":14,"x_max":597,"o":"m 597 0 l 321 0 l 14 972 l 290 972 l 597 0 z "},"¦":{"ha":414,"x_min":83,"x_max":331,"o":"m 83 -278 l 83 347 l 331 347 l 331 -278 l 83 -278 m 83 486 l 83 1111 l 331 1111 l 331 486 l 83 486 z "},"|":{"ha":414,"x_min":83,"x_max":331,"o":"m 83 -194 l 83 1056 l 331 1056 l 331 -194 l 83 -194 z "},"_":{"ha":900,"x_min":89,"x_max":811,"o":"m 89 -244 l 89 0 l 811 0 l 811 -244 l 89 -244 z "},"-":{"ha":472,"x_min":56,"x_max":417,"o":"m 56 321 l 56 568 l 417 568 l 417 321 l 56 321 z "},"–":{"ha":556,"x_min":56,"x_max":500,"o":"m 56 328 l 56 561 l 500 561 l 500 328 l 56 328 z "},"—":{"ha":833,"x_min":56,"x_max":778,"o":"m 56 328 l 56 561 l 778 561 l 778 328 l 56 328 z "},"―":{"ha":833,"x_min":-14,"x_max":847,"o":"m -14 328 l -14 561 l 847 561 l 847 328 l -14 328 z "},"‒":{"ha":903,"x_min":56,"x_max":847,"o":"m 56 328 l 56 561 l 847 561 l 847 328 l 56 328 z "},"·":{"ha":358,"x_min":56,"x_max":303,"o":"m 56 322 l 56 572 l 303 572 l 303 322 l 56 322 z "},"~":{"ha":833,"x_min":28,"x_max":806,"o":"m 56 261 l 28 499 l 208 667 l 606 510 l 778 644 l 806 407 l 625 239 l 228 396 l 56 261 z "},"•":{"ha":694,"x_min":50,"x_max":644,"o":"m 50 278 l 50 556 l 197 703 l 497 703 l 644 556 l 644 278 l 497 131 l 197 131 l 50 278 z "},"ª":{"ha":706,"x_min":47,"x_max":644,"o":"m 47 483 l 47 710 l 410 724 l 410 796 l 75 796 l 75 972 l 508 972 l 644 836 l 644 347 l 183 347 l 47 483 m 282 600 l 282 513 l 410 513 l 410 628 l 282 600 z "},"º":{"ha":717,"x_min":49,"x_max":668,"o":"m 49 494 l 49 825 l 196 972 l 521 972 l 668 825 l 668 494 l 521 347 l 196 347 l 49 494 m 285 536 l 432 536 l 432 783 l 285 783 l 285 536 z "},"°":{"ha":429,"x_min":17,"x_max":413,"o":"m 17 693 l 17 863 l 132 972 l 297 972 l 413 863 l 413 693 l 297 583 l 132 583 l 17 693 m 154 714 l 275 714 l 275 842 l 154 842 l 154 714 z "},"`":{"ha":3461,"x_min":3058,"x_max":3503,"o":"m 3503 844 l 3058 844 l 3058 1013 l 3503 972 l 3503 844 z "},"^":{"ha":750,"x_min":-1,"x_max":751,"o":"m -1 486 l 224 972 l 526 972 l 751 486 l 467 486 l 375 774 l 283 486 l -1 486 z "},"*":{"ha":744,"x_min":19,"x_max":725,"o":"m 472 311 l 272 311 l 272 469 l 119 381 l 19 553 l 172 642 l 19 731 l 119 903 l 272 814 l 272 972 l 472 972 l 472 814 l 625 903 l 725 731 l 572 642 l 725 553 l 625 381 l 472 469 l 472 311 z "},"†":{"ha":839,"x_min":61,"x_max":778,"o":"m 61 490 l 61 738 l 296 738 l 296 972 l 543 972 l 543 738 l 778 738 l 778 490 l 543 490 l 543 0 l 296 0 l 296 490 l 61 490 z "},"‡":{"ha":839,"x_min":61,"x_max":778,"o":"m 61 490 l 61 738 l 296 738 l 296 972 l 543 972 l 543 738 l 778 738 l 778 490 l 543 490 l 543 288 l 778 288 l 778 40 l 543 40 l 543 -194 l 296 -194 l 296 40 l 61 40 l 61 288 l 296 288 l 296 490 l 61 490 z "},"#":{"ha":1094,"x_min":61,"x_max":1033,"o":"m 214 0 l 214 972 l 450 972 l 450 0 l 214 0 m 642 0 l 642 972 l 878 972 l 878 0 l 642 0 m 1033 153 l 61 153 l 61 364 l 1033 364 l 1033 153 m 1033 608 l 61 608 l 61 819 l 1033 819 l 1033 608 z "},"§":{"ha":889,"x_min":60,"x_max":829,"o":"m 81 -137 l 81 63 l 571 63 l 571 183 l 207 183 l 60 331 l 60 803 l 229 972 l 801 972 l 801 772 l 318 772 l 318 651 l 682 651 l 829 504 l 829 29 l 663 -137 l 81 -137 m 318 339 l 571 339 l 571 496 l 318 496 l 318 339 z "},"¶":{"ha":1000,"x_min":33,"x_max":939,"o":"m 939 -194 l 703 -194 l 703 761 l 614 761 l 614 -194 l 378 -194 l 378 208 l 211 208 l 33 386 l 33 772 l 233 972 l 939 972 l 939 -194 z "},"&":{"ha":1132,"x_min":49,"x_max":1114,"o":"m 821 0 l 174 871 l 275 972 l 911 972 l 911 763 l 546 763 l 1114 0 l 821 0 m 524 456 l 318 456 l 318 211 l 499 211 l 831 639 l 1114 639 l 607 0 l 193 0 l 49 144 l 49 511 l 193 656 l 524 656 l 524 456 z "},"@":{"ha":1111,"x_min":61,"x_max":1050,"o":"m 61 -17 l 61 794 l 239 972 l 869 972 l 1050 792 l 1050 244 l 914 108 l 564 108 l 417 244 l 417 624 l 803 649 l 803 772 l 308 772 l 308 6 l 1050 6 l 1050 -194 l 239 -194 l 61 -17 m 664 297 l 803 297 l 803 553 l 664 525 l 664 297 z "},"©":{"ha":1250,"x_min":53,"x_max":1197,"o":"m 328 281 l 328 608 l 497 778 l 922 778 l 922 533 l 586 533 l 586 356 l 922 356 l 922 111 l 497 111 l 328 281 m 53 50 l 53 839 l 242 1028 l 1008 1028 l 1197 839 l 1197 50 l 1008 -139 l 242 -139 l 53 50 m 244 861 l 244 28 l 1006 28 l 1006 861 l 244 861 z "},"®":{"ha":556,"x_min":28,"x_max":528,"o":"m 278 514 q 149 544 206 514 q 60 628 92 575 q 28 750 28 682 q 60 872 28 818 q 149 956 92 925 q 278 986 206 986 q 408 956 351 986 q 496 872 464 925 q 528 750 528 818 q 496 628 528 682 q 408 544 464 575 q 278 514 351 514 m 96 751 q 146 623 96 671 q 278 575 196 575 q 410 623 361 575 q 460 751 460 671 q 410 878 460 831 q 278 925 361 925 q 146 878 196 925 q 96 751 96 831 m 179 631 l 179 875 l 286 875 q 365 851 336 875 q 394 786 394 828 q 383 740 394 758 q 349 710 371 721 l 406 631 l 318 631 l 286 699 l 253 699 l 253 631 l 179 631 m 253 753 l 285 753 q 321 785 321 753 q 285 815 321 815 l 253 815 l 253 753 z "},"™":{"ha":833,"x_min":28,"x_max":778,"o":"m 138 583 l 238 583 l 238 889 l 347 889 l 347 972 l 28 972 l 28 889 l 138 889 l 138 583 m 389 972 l 389 583 l 483 583 l 483 857 l 583 722 l 683 857 l 683 583 l 778 583 l 778 972 l 690 972 l 583 826 l 476 972 l 389 972 z "},"⁰":{"ha":672,"x_min":47,"x_max":625,"o":"m 47 535 l 47 854 l 189 972 l 483 972 l 625 854 l 625 535 l 483 417 l 189 417 l 47 535 m 269 826 l 269 563 l 403 563 l 403 826 l 269 826 z "},"¹":{"ha":508,"x_min":60,"x_max":446,"o":"m 60 414 l 60 538 l 144 543 l 144 814 l 63 807 l 63 936 l 367 972 l 367 543 l 446 538 l 446 414 l 253 421 l 60 414 z "},"²":{"ha":658,"x_min":58,"x_max":600,"o":"m 600 564 l 600 417 l 58 417 l 58 719 l 376 764 l 376 825 l 61 825 l 61 972 l 458 972 l 600 854 l 600 654 l 282 608 l 282 564 l 600 564 z "},"³":{"ha":642,"x_min":44,"x_max":606,"o":"m 506 417 l 44 417 l 44 563 l 361 563 l 361 635 l 104 635 l 104 763 l 342 763 l 342 826 l 54 826 l 54 972 l 486 972 l 586 875 l 586 754 l 514 707 l 606 646 l 606 514 l 506 417 z "},"⁴":{"ha":658,"x_min":40,"x_max":600,"o":"m 40 563 l 63 972 l 275 972 l 253 708 l 389 708 l 389 972 l 600 972 l 600 417 l 389 417 l 389 563 l 40 563 z "},"⁵":{"ha":658,"x_min":58,"x_max":600,"o":"m 599 826 l 281 826 l 281 775 l 600 747 l 600 525 l 465 417 l 60 417 l 60 563 l 378 563 l 378 633 l 58 658 l 58 972 l 599 972 l 599 826 z "},"⁶":{"ha":676,"x_min":53,"x_max":624,"o":"m 179 417 l 53 518 l 53 871 l 179 972 l 588 972 l 588 826 l 275 826 l 275 772 l 551 772 l 624 713 l 624 518 l 497 417 l 179 417 m 275 563 l 403 563 l 403 664 l 275 664 l 275 563 z "},"⁷":{"ha":606,"x_min":38,"x_max":568,"o":"m 64 417 l 346 782 l 346 839 l 221 839 l 221 747 l 38 747 l 38 972 l 568 972 l 568 756 l 336 417 l 64 417 z "},"⁸":{"ha":661,"x_min":36,"x_max":625,"o":"m 271 754 l 390 754 l 390 842 l 271 842 l 271 754 m 247 547 l 414 547 l 414 646 l 247 646 l 247 547 m 136 417 l 36 514 l 36 646 l 117 707 l 56 754 l 56 875 l 156 972 l 504 972 l 606 875 l 606 754 l 543 707 l 625 646 l 625 514 l 524 417 l 136 417 z "},"⁹":{"ha":676,"x_min":53,"x_max":624,"o":"m 497 972 l 624 871 l 624 518 l 497 417 l 89 417 l 89 563 l 403 563 l 403 617 l 125 617 l 53 676 l 53 871 l 179 972 l 497 972 m 403 826 l 275 826 l 275 725 l 403 725 l 403 826 z "},"₀":{"ha":672,"x_min":47,"x_max":625,"o":"m 47 -21 l 47 299 l 189 417 l 483 417 l 625 299 l 625 -21 l 483 -139 l 189 -139 l 47 -21 m 269 271 l 269 7 l 403 7 l 403 271 l 269 271 z "},"₁":{"ha":508,"x_min":60,"x_max":446,"o":"m 60 -139 l 60 -15 l 144 -10 l 144 261 l 63 254 l 63 383 l 367 419 l 367 -10 l 446 -15 l 446 -139 l 253 -132 l 60 -139 z "},"₂":{"ha":658,"x_min":58,"x_max":600,"o":"m 600 8 l 600 -139 l 58 -139 l 58 164 l 376 208 l 376 269 l 61 269 l 61 417 l 458 417 l 600 299 l 600 99 l 282 53 l 282 8 l 600 8 z "},"₃":{"ha":642,"x_min":44,"x_max":606,"o":"m 506 -139 l 44 -139 l 44 7 l 361 7 l 361 79 l 104 79 l 104 207 l 342 207 l 342 271 l 54 271 l 54 417 l 486 417 l 586 319 l 586 199 l 514 151 l 606 90 l 606 -42 l 506 -139 z "},"₄":{"ha":658,"x_min":40,"x_max":600,"o":"m 40 7 l 63 417 l 275 417 l 253 153 l 389 153 l 389 417 l 600 417 l 600 -139 l 389 -139 l 389 7 l 40 7 z "},"₅":{"ha":658,"x_min":58,"x_max":600,"o":"m 599 271 l 281 271 l 281 219 l 600 192 l 600 -31 l 465 -139 l 60 -139 l 60 7 l 378 7 l 378 78 l 58 103 l 58 417 l 599 417 l 599 271 z "},"₆":{"ha":676,"x_min":53,"x_max":624,"o":"m 179 -139 l 53 -37 l 53 315 l 179 417 l 588 417 l 588 271 l 275 271 l 275 217 l 551 217 l 624 157 l 624 -37 l 497 -139 l 179 -139 m 275 7 l 403 7 l 403 108 l 275 108 l 275 7 z "},"₇":{"ha":606,"x_min":38,"x_max":568,"o":"m 64 -139 l 346 226 l 346 283 l 221 283 l 221 192 l 38 192 l 38 417 l 568 417 l 568 200 l 336 -139 l 64 -139 z "},"₈":{"ha":661,"x_min":36,"x_max":625,"o":"m 271 199 l 390 199 l 390 286 l 271 286 l 271 199 m 247 -8 l 414 -8 l 414 90 l 247 90 l 247 -8 m 136 -139 l 36 -42 l 36 90 l 117 151 l 56 199 l 56 319 l 156 417 l 504 417 l 606 319 l 606 199 l 543 151 l 625 90 l 625 -42 l 524 -139 l 136 -139 z "},"₉":{"ha":676,"x_min":53,"x_max":624,"o":"m 497 417 l 624 315 l 624 -37 l 497 -139 l 89 -139 l 89 7 l 403 7 l 403 61 l 125 61 l 53 121 l 53 315 l 179 417 l 497 417 m 403 271 l 275 271 l 275 169 l 403 169 l 403 271 z "},"⁄":{"ha":319,"x_min":-181,"x_max":500,"o":"m -181 0 l 281 972 l 500 972 l 39 0 l -181 0 z "},"¼":{"ha":1486,"x_min":60,"x_max":1428,"o":"m 60 414 l 60 538 l 144 543 l 144 814 l 63 807 l 63 936 l 367 972 l 367 543 l 446 538 l 446 414 l 253 421 l 60 414 m 328 0 l 789 972 l 1008 972 l 547 0 l 328 0 m 868 146 l 890 556 l 1103 556 l 1081 292 l 1217 292 l 1217 556 l 1428 556 l 1428 0 l 1217 0 l 1217 146 l 868 146 z "},"½":{"ha":1486,"x_min":60,"x_max":1428,"o":"m 60 414 l 60 538 l 144 543 l 144 814 l 63 807 l 63 936 l 367 972 l 367 543 l 446 538 l 446 414 l 253 421 l 60 414 m 328 0 l 789 972 l 1008 972 l 547 0 l 328 0 m 1428 147 l 1428 0 l 886 0 l 886 303 l 1204 347 l 1204 408 l 889 408 l 889 556 l 1286 556 l 1428 438 l 1428 238 l 1110 192 l 1110 147 l 1428 147 z "},"¾":{"ha":1619,"x_min":44,"x_max":1561,"o":"m 506 417 l 44 417 l 44 563 l 361 563 l 361 635 l 104 635 l 104 763 l 342 763 l 342 826 l 54 826 l 54 972 l 486 972 l 586 875 l 586 754 l 514 707 l 606 646 l 606 514 l 506 417 m 461 0 l 922 972 l 1142 972 l 681 0 l 461 0 m 1001 146 l 1024 556 l 1236 556 l 1214 292 l 1350 292 l 1350 556 l 1561 556 l 1561 0 l 1350 0 l 1350 146 l 1001 146 z "},"%":{"ha":833,"x_min":19,"x_max":814,"o":"m 19 0 l 558 972 l 814 972 l 275 0 l 19 0 m 531 0 l 531 256 l 778 256 l 778 0 l 531 0 m 56 717 l 56 972 l 303 972 l 303 717 l 56 717 z "},"‰":{"ha":1106,"x_min":19,"x_max":1086,"o":"m 19 0 l 558 972 l 814 972 l 275 0 l 19 0 m 506 0 l 506 256 l 753 256 l 753 0 l 506 0 m 56 717 l 56 972 l 303 972 l 303 717 l 56 717 m 839 0 l 839 256 l 1086 256 l 1086 0 l 839 0 z "},"′":{"ha":322,"x_min":49,"x_max":288,"o":"m 49 617 l 49 972 l 288 972 l 232 617 l 49 617 z "},"″":{"ha":608,"x_min":49,"x_max":574,"o":"m 49 617 l 49 972 l 288 972 l 232 617 l 49 617 m 335 617 l 335 972 l 574 972 l 518 617 l 335 617 z "},"+":{"ha":833,"x_min":56,"x_max":778,"o":"m 56 328 l 56 561 l 778 561 l 778 328 l 56 328 m 540 83 l 293 83 l 293 806 l 540 806 l 540 83 z "},"−":{"ha":833,"x_min":56,"x_max":778,"o":"m 56 328 l 56 561 l 778 561 l 778 328 l 56 328 z "},"×":{"ha":833,"x_min":56,"x_max":778,"o":"m 56 247 l 253 444 l 56 642 l 219 806 l 417 608 l 614 806 l 778 642 l 581 444 l 778 247 l 614 83 l 417 281 l 219 83 l 56 247 z "},"÷":{"ha":833,"x_min":56,"x_max":778,"o":"m 293 53 l 293 269 l 540 269 l 540 53 l 293 53 m 293 619 l 293 836 l 540 836 l 540 619 l 293 619 m 56 328 l 56 561 l 778 561 l 778 328 l 56 328 z "},"=":{"ha":833,"x_min":56,"x_max":778,"o":"m 56 496 l 56 707 l 778 707 l 778 496 l 56 496 m 56 182 l 56 393 l 778 393 l 778 182 l 56 182 z "},"<":{"ha":833,"x_min":42,"x_max":778,"o":"m 42 271 l 42 507 l 778 778 l 778 538 l 328 389 l 778 240 l 778 0 l 42 271 z "},">":{"ha":833,"x_min":56,"x_max":792,"o":"m 792 507 l 792 271 l 56 0 l 56 240 l 506 389 l 56 538 l 56 778 l 792 507 z "},"≤":{"ha":833,"x_min":42,"x_max":778,"o":"m 42 465 l 42 701 l 778 919 l 778 679 l 328 583 l 778 488 l 778 247 l 42 465 m 56 0 l 56 200 l 778 200 l 778 0 l 56 0 z "},"≥":{"ha":833,"x_min":56,"x_max":792,"o":"m 792 465 l 56 247 l 56 488 l 506 583 l 56 679 l 56 919 l 792 701 l 792 465 m 778 0 l 56 0 l 56 200 l 778 200 l 778 0 z "},"±":{"ha":833,"x_min":56,"x_max":778,"o":"m 56 478 l 56 689 l 293 689 l 293 911 l 540 911 l 540 689 l 778 689 l 778 478 l 540 478 l 540 256 l 293 256 l 293 478 l 56 478 m 56 0 l 56 211 l 778 211 l 778 0 l 56 0 z "},"≠":{"ha":833,"x_min":56,"x_max":778,"o":"m 56 493 l 56 707 l 778 707 l 778 493 l 56 493 m 56 182 l 56 396 l 778 396 l 778 182 l 56 182 m 164 0 l 463 889 l 669 889 l 371 0 l 164 0 z "},"≈":{"ha":833,"x_min":28,"x_max":806,"o":"m 56 433 l 28 626 l 208 794 l 606 638 l 778 772 l 806 579 l 603 411 l 228 568 l 56 433 m 56 122 l 28 315 l 231 483 l 606 326 l 778 461 l 806 268 l 625 100 l 228 257 l 56 122 z "},"∕":{"ha":833,"x_min":42,"x_max":792,"o":"m 42 0 l 503 972 l 792 972 l 331 0 l 42 0 z "},"∙":{"ha":528,"x_min":140,"x_max":388,"o":"m 140 328 l 140 567 l 388 567 l 388 328 l 140 328 z "},"⁒":{"ha":833,"x_min":19,"x_max":814,"o":"m 19 0 l 558 972 l 814 972 l 275 0 l 19 0 m 531 0 l 531 256 l 778 256 l 778 0 l 531 0 m 56 717 l 56 972 l 303 972 l 303 717 l 56 717 z "},"¬":{"ha":833,"x_min":56,"x_max":778,"o":"m 56 321 l 56 568 l 778 568 l 778 85 l 531 85 l 531 321 l 56 321 z "},"µ":{"ha":861,"x_min":61,"x_max":800,"o":"m 800 778 l 800 0 l 331 0 l 331 -222 l 61 -222 l 61 778 l 331 778 l 331 233 l 531 233 l 531 778 l 800 778 z "},"√":{"ha":1021,"x_min":56,"x_max":1010,"o":"m 310 0 l 229 544 l 56 544 l 56 778 l 478 778 l 528 222 l 585 222 l 713 972 l 1010 972 l 824 0 l 310 0 z "},"∞":{"ha":1256,"x_min":49,"x_max":1207,"o":"m 499 319 l 296 319 l 296 653 l 499 653 l 499 319 m 960 303 l 746 303 l 746 686 l 960 686 l 960 303 m 1207 247 l 1207 725 l 1018 914 l 738 914 l 610 786 l 510 886 l 238 886 l 49 697 l 49 275 l 238 86 l 510 86 l 610 186 l 738 58 l 1018 58 l 1207 247 z "},"∫":{"ha":583,"x_min":0,"x_max":533,"o":"m 0 -194 l 0 39 l 203 39 l 61 803 l 231 972 l 533 972 l 533 739 l 331 739 l 472 -25 l 303 -194 l 0 -194 z "},"∂":{"ha":903,"x_min":56,"x_max":847,"o":"m 669 0 l 233 0 l 56 178 l 56 519 l 158 622 l 578 622 l 578 739 l 106 739 l 106 972 l 669 972 l 847 794 l 847 178 l 669 0 m 578 222 l 578 444 l 325 444 l 325 222 l 578 222 z "},"◊":{"ha":889,"x_min":7,"x_max":882,"o":"m 428 28 l 465 28 l 619 444 l 461 861 l 424 861 l 269 444 l 428 28 m 293 -194 l 7 444 l 293 1083 l 596 1083 l 882 444 l 596 -194 l 293 -194 z "},"∏":{"ha":925,"x_min":61,"x_max":864,"o":"m 61 -194 l 61 972 l 864 972 l 864 -194 l 594 -194 l 594 739 l 331 739 l 331 -194 l 61 -194 z "},"∑":{"ha":811,"x_min":36,"x_max":775,"o":"m 36 -194 l 36 3 l 343 394 l 43 775 l 43 972 l 768 972 l 768 750 l 375 750 l 633 394 l 351 28 l 775 28 l 775 -194 l 36 -194 z "},"№":{"ha":1661,"x_min":61,"x_max":1613,"o":"m 61 0 l 61 972 l 297 972 l 636 424 l 636 972 l 883 972 l 883 0 l 647 0 l 308 549 l 308 0 l 61 0 m 993 286 l 993 617 l 1140 764 l 1465 764 l 1613 617 l 1613 286 l 1465 139 l 1140 139 l 993 286 m 1229 328 l 1376 328 l 1376 575 l 1229 575 l 1229 328 z "},"¤":{"ha":919,"x_min":29,"x_max":890,"o":"m 150 367 l 150 606 l 217 672 l 29 972 l 329 972 l 419 750 l 500 750 l 590 972 l 890 972 l 703 672 l 769 606 l 769 367 l 703 300 l 890 0 l 590 0 l 500 222 l 419 222 l 329 0 l 29 0 l 217 300 l 150 367 m 397 397 l 522 397 l 522 575 l 397 575 l 397 397 z "},"$":{"ha":917,"x_min":56,"x_max":861,"o":"m 68 47 l 68 258 l 592 258 l 592 388 l 56 424 l 56 744 l 236 925 l 346 925 l 346 1056 l 604 1056 l 604 925 l 844 925 l 844 714 l 325 714 l 325 599 l 861 563 l 861 226 l 682 47 l 574 47 l 574 -83 l 315 -83 l 315 47 l 68 47 z "},"¢":{"ha":729,"x_min":49,"x_max":699,"o":"m 49 267 l 49 706 l 218 875 l 319 875 l 319 1028 l 531 1028 l 531 875 l 699 875 l 699 631 l 318 631 l 318 342 l 699 342 l 699 97 l 531 97 l 531 -56 l 319 -56 l 319 97 l 218 97 l 49 267 z "},"£":{"ha":892,"x_min":42,"x_max":861,"o":"m 683 361 l 486 361 l 486 222 l 861 222 l 861 0 l 42 0 l 42 222 l 217 222 l 217 361 l 97 361 l 97 572 l 217 572 l 217 861 l 328 972 l 819 972 l 819 661 l 614 661 l 614 761 l 486 761 l 486 572 l 683 572 l 683 361 z "},"€":{"ha":858,"x_min":17,"x_max":822,"o":"m 125 189 l 125 349 l 17 349 l 17 460 l 125 460 l 125 526 l 17 526 l 17 638 l 125 638 l 125 783 l 314 972 l 808 972 l 808 750 l 417 750 l 417 638 l 761 638 l 719 526 l 417 526 l 417 460 l 700 460 l 658 349 l 417 349 l 417 222 l 822 222 l 822 0 l 314 0 l 125 189 z "},"¥":{"ha":889,"x_min":13,"x_max":876,"o":"m 310 0 l 310 131 l 44 131 l 44 286 l 310 286 l 310 361 l 44 361 l 44 517 l 164 517 l 13 972 l 300 972 l 414 517 l 475 517 l 589 972 l 876 972 l 725 517 l 844 517 l 844 361 l 579 361 l 579 286 l 844 286 l 844 131 l 579 131 l 579 0 l 310 0 z "},"₣":{"ha":769,"x_min":14,"x_max":728,"o":"m 61 0 l 61 972 l 728 972 l 728 728 l 331 728 l 331 547 l 700 547 l 700 314 l 331 314 l 331 0 l 61 0 m 14 139 l 14 244 l 542 244 l 542 139 l 14 139 z "},"₽":{"ha":889,"x_min":14,"x_max":856,"o":"m 856 783 l 856 451 l 667 263 l 364 263 l 364 200 l 647 200 l 647 94 l 364 94 l 364 0 l 94 0 l 94 94 l 14 94 l 14 200 l 94 200 l 94 263 l 14 263 l 14 461 l 94 461 l 94 972 l 667 972 l 856 783 m 364 461 l 586 461 l 586 761 l 364 761 l 364 461 z "},"₿":{"ha":900,"x_min":61,"x_max":867,"o":"m 61 47 l 61 925 l 256 925 l 256 1056 l 375 1056 l 375 925 l 478 925 l 478 1056 l 597 1056 l 597 925 l 694 925 l 839 781 l 839 582 l 751 511 l 867 417 l 867 192 l 722 47 l 597 47 l 597 -83 l 478 -83 l 478 47 l 375 47 l 375 -83 l 256 -83 l 256 47 l 61 47 m 331 585 l 564 585 l 564 715 l 331 715 l 331 585 m 331 257 l 586 257 l 586 407 l 331 407 l 331 257 z "},"₮":{"ha":778,"x_min":28,"x_max":750,"o":"m 254 0 l 254 750 l 28 750 l 28 972 l 750 972 l 750 750 l 524 750 l 524 0 l 254 0 m 89 379 l 89 544 l 689 647 l 689 482 l 89 379 m 89 129 l 89 294 l 689 397 l 689 232 l 89 129 z "},"₴":{"ha":889,"x_min":50,"x_max":839,"o":"m 819 233 l 819 0 l 247 0 l 56 192 l 563 739 l 69 739 l 69 972 l 642 972 l 833 781 l 326 233 l 819 233 m 50 628 l 839 628 l 839 525 l 50 525 l 50 628 m 50 447 l 839 447 l 839 344 l 50 344 l 50 447 z "},"₸":{"ha":778,"x_min":28,"x_max":750,"o":"m 254 0 l 254 525 l 28 525 l 28 714 l 750 714 l 750 525 l 524 525 l 524 0 l 254 0 m 28 783 l 28 972 l 750 972 l 750 783 l 28 783 z "},"֏":{"ha":861,"x_min":56,"x_max":806,"o":"m 806 0 l 806 783 l 617 972 l 244 972 l 56 783 l 56 581 l 325 581 l 325 728 l 536 728 l 536 517 l 153 517 l 153 361 l 536 361 l 536 286 l 153 286 l 153 131 l 536 131 l 536 0 l 806 0 z "},"´":{"ha":556,"x_min":56,"x_max":500,"o":"m 56 844 l 56 972 l 500 1013 l 500 844 l 56 844 z "},"ˆ":{"ha":639,"x_min":56,"x_max":583,"o":"m 56 826 l 56 982 l 319 1068 l 583 982 l 583 826 l 319 913 l 56 826 z "},"ˇ":{"ha":639,"x_min":56,"x_max":583,"o":"m 583 1068 l 583 913 l 319 826 l 56 913 l 56 1068 l 319 982 l 583 1068 z "},"˘":{"ha":711,"x_min":56,"x_max":656,"o":"m 442 1031 l 656 1031 l 525 831 l 186 831 l 56 1031 l 269 1031 l 279 949 l 432 949 l 442 1031 z "},"˜":{"ha":694,"x_min":56,"x_max":639,"o":"m 83 806 l 56 951 l 194 1038 l 478 976 l 611 1042 l 639 896 l 500 810 l 217 871 l 83 806 z "},"¨":{"ha":708,"x_min":56,"x_max":653,"o":"m 56 842 l 56 1008 l 303 1008 l 303 842 l 56 842 m 406 842 l 406 1008 l 653 1008 l 653 842 l 406 842 z "},"˙":{"ha":381,"x_min":56,"x_max":325,"o":"m 56 842 l 56 1008 l 325 1008 l 325 842 l 56 842 z "},"˚":{"ha":483,"x_min":56,"x_max":428,"o":"m 56 890 l 56 1026 l 157 1108 l 326 1108 l 428 1026 l 428 890 l 326 808 l 157 808 l 56 890 m 179 915 l 304 915 l 304 1001 l 179 1001 l 179 915 z "},"¯":{"ha":583,"x_min":56,"x_max":528,"o":"m 56 849 l 56 1014 l 528 1014 l 528 849 l 56 849 z "},"˝":{"ha":624,"x_min":56,"x_max":568,"o":"m 56 825 l 111 1014 l 317 1014 l 210 825 l 56 825 m 279 825 l 363 1014 l 568 1014 l 435 825 l 279 825 z "},"¸":{"ha":417,"x_min":56,"x_max":361,"o":"m 56 -278 l 124 -72 l 361 -72 l 243 -278 l 56 -278 z "},"˛":{"ha":404,"x_min":56,"x_max":349,"o":"m 349 -61 l 293 -278 l 56 -278 l 163 -61 l 349 -61 z "},"ʹ":{"ha":322,"x_min":49,"x_max":288,"o":"m 49 617 l 49 972 l 288 972 l 232 617 l 49 617 z "},"ʺ":{"ha":608,"x_min":49,"x_max":574,"o":"m 49 617 l 49 972 l 288 972 l 232 617 l 49 617 m 335 617 l 335 972 l 574 972 l 518 617 l 335 617 z "},"ʻ":{"ha":381,"x_min":51,"x_max":361,"o":"m 300 778 l 300 528 l 51 528 l 51 778 l 201 972 l 361 972 l 210 778 l 300 778 z "},"ʼ":{"ha":381,"x_min":19,"x_max":329,"o":"m 81 722 l 81 972 l 329 972 l 329 722 l 179 528 l 19 528 l 171 722 l 81 722 z "},"̀":{"ha":0,"x_min":-264,"x_max":181,"o":"m 181 844 l -264 844 l -264 1013 l 181 972 l 181 844 z "},"́":{"ha":0,"x_min":-181,"x_max":264,"o":"m -181 844 l -181 972 l 264 1013 l 264 844 l -181 844 z "},"̂":{"ha":0,"x_min":-264,"x_max":264,"o":"m -264 826 l -264 982 l 0 1068 l 264 982 l 264 826 l 0 913 l -264 826 z "},"̌":{"ha":0,"x_min":-264,"x_max":264,"o":"m 264 1068 l 264 913 l 0 826 l -264 913 l -264 1068 l 0 982 l 264 1068 z "},"̑":{"ha":0,"x_min":-300,"x_max":300,"o":"m -86 822 l -300 822 l -169 1022 l 169 1022 l 300 822 l 86 822 l 76 904 l -76 904 l -86 822 z "},"̆":{"ha":0,"x_min":-300,"x_max":300,"o":"m 86 1031 l 300 1031 l 169 831 l -169 831 l -300 1031 l -86 1031 l -76 949 l 76 949 l 86 1031 z "},"̃":{"ha":0,"x_min":-292,"x_max":292,"o":"m -264 806 l -292 951 l -153 1038 l 131 976 l 264 1042 l 292 896 l 153 810 l -131 871 l -264 806 z "},"̈":{"ha":0,"x_min":-299,"x_max":299,"o":"m -299 842 l -299 1008 l -51 1008 l -51 842 l -299 842 m 51 842 l 51 1008 l 299 1008 l 299 842 l 51 842 z "},"̇":{"ha":0,"x_min":-135,"x_max":135,"o":"m -135 842 l -135 1008 l 135 1008 l 135 842 l -135 842 z "},"̊":{"ha":0,"x_min":-186,"x_max":186,"o":"m -186 890 l -186 1026 l -85 1108 l 85 1108 l 186 1026 l 186 890 l 85 808 l -85 808 l -186 890 m -62 915 l 63 915 l 63 1001 l -62 1001 l -62 915 z "},"̋":{"ha":0,"x_min":-206,"x_max":307,"o":"m -206 825 l -150 1014 l 56 1014 l -51 825 l -206 825 m 18 825 l 101 1014 l 307 1014 l 174 825 l 18 825 z "},"̏":{"ha":0,"x_min":-307,"x_max":206,"o":"m 150 1014 l 206 825 l 51 825 l -56 1014 l 150 1014 m -101 1014 l -18 825 l -174 825 l -307 1014 l -101 1014 z "},"̄":{"ha":0,"x_min":-236,"x_max":236,"o":"m -236 849 l -236 1014 l 236 1014 l 236 849 l -236 849 z "},"̒":{"ha":0,"x_min":-146,"x_max":160,"o":"m 160 1044 l 92 839 l -146 839 l -26 1044 l 160 1044 z "},"̉":{"ha":0,"x_min":-136,"x_max":142,"o":"m -136 919 l -136 1014 l 142 1014 l 142 919 l 44 819 l -101 819 l -4 919 l -136 919 z "},"̛":{"ha":0,"x_min":-257,"x_max":72,"o":"m -119 972 l -119 1083 l 72 1083 l 72 906 l -61 772 l -257 772 l -257 972 l -119 972 z "},"̕":{"ha":89,"x_min":0,"x_max":89,"o":"m 0 644 l 0 972 l 89 972 l 89 644 l 0 644 z "},"̦":{"ha":0,"x_min":-161,"x_max":144,"o":"m -161 -278 l -93 -72 l 144 -72 l 25 -278 l -161 -278 z "},"̧":{"ha":0,"x_min":-161,"x_max":144,"o":"m -161 -278 l -93 -72 l 144 -72 l 26 -278 l -161 -278 z "},"̨":{"ha":0,"x_min":-174,"x_max":119,"o":"m 119 -61 l 64 -278 l -174 -278 l -67 -61 l 119 -61 z "},"̣":{"ha":0,"x_min":-135,"x_max":135,"o":"m -135 -256 l -135 -89 l 135 -89 l 135 -256 l -135 -256 z "},"̩":{"ha":0,"x_min":-101,"x_max":101,"o":"m -101 -306 l -101 -56 l 101 -56 l 101 -306 l -101 -306 z "},"̱":{"ha":0,"x_min":-236,"x_max":236,"o":"m -236 -236 l -236 -71 l 236 -71 l 236 -236 l -236 -236 z "},"←":{"ha":1167,"x_min":28,"x_max":1139,"o":"m 28 379 l 28 399 l 328 778 l 617 778 l 390 506 l 1139 506 l 1139 272 l 390 272 l 617 0 l 328 0 l 28 379 z "},"↑":{"ha":833,"x_min":28,"x_max":806,"o":"m 407 1042 l 426 1042 l 806 742 l 806 453 l 533 679 l 533 -69 l 300 -69 l 300 679 l 28 453 l 28 742 l 407 1042 z "},"→":{"ha":1167,"x_min":28,"x_max":1139,"o":"m 1139 399 l 1139 379 l 839 0 l 550 0 l 776 272 l 28 272 l 28 506 l 776 506 l 550 778 l 839 778 l 1139 399 z "},"↓":{"ha":833,"x_min":28,"x_max":806,"o":"m 407 -69 l 426 -69 l 806 231 l 806 519 l 533 293 l 533 1042 l 300 1042 l 300 293 l 28 519 l 28 231 l 407 -69 z "},"↔":{"ha":1528,"x_min":28,"x_max":1500,"o":"m 28 399 l 28 379 l 328 0 l 617 0 l 390 272 l 1138 272 l 911 0 l 1200 0 l 1500 379 l 1500 399 l 1200 778 l 911 778 l 1138 506 l 390 506 l 617 778 l 328 778 l 28 399 z "},"↕":{"ha":833,"x_min":28,"x_max":806,"o":"m 28 47 l 28 336 l 300 110 l 300 857 l 28 631 l 28 919 l 407 1219 l 426 1219 l 806 919 l 806 631 l 533 857 l 533 110 l 806 336 l 806 47 l 426 -253 l 407 -253 l 28 47 z "},"↖":{"ha":1035,"x_min":53,"x_max":983,"o":"m 110 786 l 124 799 l 603 856 l 807 651 l 454 619 l 983 89 l 819 -75 l 289 456 l 257 101 l 53 306 l 110 786 z "},"↗":{"ha":1035,"x_min":50,"x_max":981,"o":"m 911 799 l 925 786 l 981 306 l 778 101 l 746 456 l 215 -75 l 50 89 l 581 619 l 228 651 l 431 856 l 911 799 z "},"↘":{"ha":1035,"x_min":50,"x_max":981,"o":"m 911 0 l 925 14 l 981 494 l 778 697 l 746 344 l 215 875 l 50 710 l 581 179 l 228 147 l 431 -56 l 911 0 z "},"↙":{"ha":1035,"x_min":53,"x_max":983,"o":"m 110 14 l 124 0 l 603 -56 l 807 147 l 454 179 l 983 710 l 819 875 l 289 344 l 257 697 l 53 494 l 110 14 z "},"ﬁ":{"ha":1006,"x_min":61,"x_max":944,"o":"m 61 0 l 61 803 l 231 972 l 586 972 l 586 739 l 331 739 l 331 597 l 586 597 l 586 375 l 331 375 l 331 0 l 61 0 m 675 0 l 675 778 l 944 778 l 944 0 l 675 0 m 675 842 l 675 1008 l 944 1008 l 944 842 l 675 842 z "},"ﬂ":{"ha":1006,"x_min":61,"x_max":944,"o":"m 61 0 l 61 803 l 231 972 l 586 972 l 586 739 l 331 739 l 331 597 l 586 597 l 586 375 l 331 375 l 331 0 l 61 0 m 675 0 l 675 972 l 944 972 l 944 0 l 675 0 z "},"ﬀ":{"ha":1228,"x_min":61,"x_max":1200,"o":"m 61 0 l 61 803 l 231 972 l 586 972 l 586 739 l 331 739 l 331 597 l 586 597 l 586 375 l 331 375 l 331 0 l 61 0 m 675 0 l 675 803 l 844 972 l 1200 972 l 1200 739 l 944 739 l 944 597 l 1200 597 l 1200 375 l 944 375 l 944 0 l 675 0 z "},"ﬃ":{"ha":1619,"x_min":61,"x_max":1558,"o":"m 61 0 l 61 803 l 231 972 l 586 972 l 586 739 l 331 739 l 331 597 l 586 597 l 586 375 l 331 375 l 331 0 l 61 0 m 675 0 l 675 803 l 844 972 l 1200 972 l 1200 739 l 944 739 l 944 597 l 1200 597 l 1200 375 l 944 375 l 944 0 l 675 0 m 1289 0 l 1289 778 l 1558 778 l 1558 0 l 1289 0 m 1289 842 l 1289 1008 l 1558 1008 l 1558 842 l 1289 842 z "},"ﬄ":{"ha":1619,"x_min":61,"x_max":1558,"o":"m 61 0 l 61 803 l 231 972 l 586 972 l 586 739 l 331 739 l 331 597 l 586 597 l 586 375 l 331 375 l 331 0 l 61 0 m 675 0 l 675 803 l 844 972 l 1200 972 l 1200 739 l 944 739 l 944 597 l 1200 597 l 1200 375 l 944 375 l 944 0 l 675 0 m 1289 0 l 1289 972 l 1558 972 l 1558 0 l 1289 0 z "},"Α":{"ha":914,"x_min":11,"x_max":903,"o":"m 11 0 l 211 972 l 703 972 l 903 0 l 617 0 l 583 194 l 331 194 l 297 0 l 11 0 m 361 383 l 553 383 l 489 761 l 425 761 l 361 383 z "},"Β":{"ha":911,"x_min":61,"x_max":878,"o":"m 331 585 l 575 585 l 575 761 l 331 761 l 331 585 m 331 211 l 597 211 l 597 407 l 331 407 l 331 211 m 850 794 l 850 582 l 763 511 l 878 417 l 878 178 l 700 0 l 61 0 l 61 972 l 672 972 l 850 794 z "},"Γ":{"ha":708,"x_min":61,"x_max":694,"o":"m 61 0 l 61 972 l 694 972 l 694 728 l 331 728 l 331 0 l 61 0 z "},"Δ":{"ha":967,"x_min":10,"x_max":957,"o":"m 728 972 l 957 0 l 660 0 l 515 750 l 451 750 l 307 0 l 10 0 l 239 972 l 728 972 m 86 0 l 86 222 l 886 222 l 886 0 l 86 0 z "},"Ε":{"ha":806,"x_min":61,"x_max":764,"o":"m 61 0 l 61 972 l 750 972 l 750 750 l 331 750 l 331 600 l 681 600 l 681 389 l 331 389 l 331 222 l 764 222 l 764 0 l 61 0 z "},"Ζ":{"ha":783,"x_min":36,"x_max":747,"o":"m 36 0 l 36 197 l 440 750 l 42 750 l 42 972 l 742 972 l 742 775 l 338 222 l 747 222 l 747 0 l 36 0 z "},"Η":{"ha":908,"x_min":61,"x_max":847,"o":"m 61 0 l 61 972 l 331 972 l 331 622 l 578 622 l 578 972 l 847 972 l 847 0 l 578 0 l 578 378 l 331 378 l 331 0 l 61 0 z "},"Θ":{"ha":903,"x_min":56,"x_max":847,"o":"m 56 189 l 56 783 l 244 972 l 658 972 l 847 783 l 847 189 l 658 0 l 244 0 l 56 189 m 325 750 l 325 575 l 578 575 l 578 750 l 325 750 m 325 222 l 578 222 l 578 397 l 325 397 l 325 222 z "},"Ι":{"ha":597,"x_min":63,"x_max":535,"o":"m 63 -6 l 63 200 l 164 207 l 164 765 l 63 772 l 63 978 l 299 967 l 535 978 l 535 772 l 433 765 l 433 207 l 535 200 l 535 -6 l 299 6 l 63 -6 z "},"Κ":{"ha":919,"x_min":61,"x_max":918,"o":"m 61 0 l 61 972 l 331 972 l 331 610 l 439 610 l 601 972 l 897 972 l 672 514 l 918 0 l 619 0 l 449 376 l 331 376 l 331 0 l 61 0 z "},"Λ":{"ha":892,"x_min":11,"x_max":881,"o":"m 692 972 l 881 0 l 590 0 l 478 728 l 414 728 l 301 0 l 11 0 l 200 972 l 692 972 z "},"Μ":{"ha":1083,"x_min":61,"x_max":1022,"o":"m 61 0 l 61 972 l 382 972 l 542 596 l 701 972 l 1022 972 l 1022 0 l 758 0 l 758 628 l 594 261 l 489 261 l 325 628 l 325 0 l 61 0 z "},"Ν":{"ha":944,"x_min":61,"x_max":883,"o":"m 61 0 l 61 972 l 297 972 l 636 424 l 636 972 l 883 972 l 883 0 l 647 0 l 308 549 l 308 0 l 61 0 z "},"Ξ":{"ha":917,"x_min":42,"x_max":875,"o":"m 42 0 l 42 222 l 324 222 l 324 389 l 125 389 l 125 600 l 324 600 l 324 750 l 56 750 l 56 972 l 861 972 l 861 750 l 593 750 l 593 600 l 792 600 l 792 389 l 593 389 l 593 222 l 875 222 l 875 0 l 42 0 z "},"Ο":{"ha":944,"x_min":56,"x_max":889,"o":"m 56 189 l 56 783 l 244 972 l 700 972 l 889 783 l 889 189 l 700 0 l 244 0 l 56 189 m 336 739 l 336 233 l 608 233 l 608 739 l 336 739 z "},"Π":{"ha":903,"x_min":61,"x_max":842,"o":"m 61 0 l 61 972 l 842 972 l 842 0 l 572 0 l 572 739 l 331 739 l 331 0 l 61 0 z "},"Ρ":{"ha":872,"x_min":61,"x_max":839,"o":"m 331 419 l 569 419 l 569 761 l 331 761 l 331 419 m 839 783 l 839 397 l 650 208 l 331 208 l 331 0 l 61 0 l 61 972 l 650 972 l 839 783 z "},"Σ":{"ha":783,"x_min":36,"x_max":747,"o":"m 36 0 l 36 197 l 343 486 l 43 775 l 43 972 l 740 972 l 740 750 l 376 750 l 635 486 l 353 222 l 747 222 l 747 0 l 36 0 z "},"Τ":{"ha":800,"x_min":28,"x_max":772,"o":"m 265 0 l 265 739 l 28 739 l 28 972 l 772 972 l 772 739 l 535 739 l 535 0 l 265 0 z "},"Υ":{"ha":889,"x_min":13,"x_max":876,"o":"m 310 0 l 310 292 l 193 292 l 13 972 l 300 972 l 397 525 l 492 525 l 589 972 l 876 972 l 696 292 l 579 292 l 579 0 l 310 0 z "},"Φ":{"ha":1189,"x_min":56,"x_max":1133,"o":"m 56 264 l 56 708 l 233 886 l 956 886 l 1133 708 l 1133 264 l 956 86 l 233 86 l 56 264 m 314 675 l 314 297 l 875 297 l 875 675 l 314 675 m 718 0 l 471 0 l 471 972 l 718 972 l 718 0 z "},"Χ":{"ha":917,"x_min":6,"x_max":911,"o":"m 6 0 l 211 514 l 26 972 l 315 972 l 428 622 l 489 622 l 601 972 l 890 972 l 706 514 l 911 0 l 619 0 l 497 378 l 419 378 l 297 0 l 6 0 z "},"Ψ":{"ha":1189,"x_min":56,"x_max":1133,"o":"m 244 228 l 56 417 l 56 972 l 314 972 l 314 439 l 471 439 l 471 972 l 718 972 l 718 439 l 875 439 l 875 972 l 1133 972 l 1133 417 l 944 228 l 718 228 l 718 0 l 471 0 l 471 228 l 244 228 z "},"Ω":{"ha":925,"x_min":19,"x_max":906,"o":"m 19 0 l 19 244 l 169 244 l 44 369 l 44 783 l 233 972 l 692 972 l 881 783 l 881 369 l 756 244 l 906 244 l 906 0 l 519 0 l 519 244 l 600 325 l 600 728 l 325 728 l 325 325 l 406 244 l 406 0 l 19 0 z "},"Ω":{"ha":925,"x_min":19,"x_max":906,"o":"m 19 0 l 19 244 l 169 244 l 44 369 l 44 783 l 233 972 l 692 972 l 881 783 l 881 369 l 756 244 l 906 244 l 906 0 l 519 0 l 519 244 l 600 325 l 600 728 l 325 728 l 325 325 l 406 244 l 406 0 l 19 0 z "},"Ά":{"ha":1236,"x_min":49,"x_max":1119,"o":"m 49 617 l 49 972 l 288 972 l 232 617 l 49 617 m 228 0 l 428 972 l 919 972 l 1119 0 l 833 0 l 800 194 l 547 194 l 514 0 l 228 0 m 578 383 l 769 383 l 706 761 l 642 761 l 578 383 z "},"Έ":{"ha":1128,"x_min":49,"x_max":1086,"o":"m 49 617 l 49 972 l 288 972 l 232 617 l 49 617 m 383 0 l 383 972 l 1072 972 l 1072 750 l 653 750 l 653 600 l 1003 600 l 1003 389 l 653 389 l 653 222 l 1086 222 l 1086 0 l 383 0 z "},"Ή":{"ha":1231,"x_min":49,"x_max":1169,"o":"m 49 617 l 49 972 l 288 972 l 232 617 l 49 617 m 383 0 l 383 972 l 653 972 l 653 622 l 900 622 l 900 972 l 1169 972 l 1169 0 l 900 0 l 900 378 l 653 378 l 653 0 l 383 0 z "},"Ί":{"ha":919,"x_min":49,"x_max":857,"o":"m 49 617 l 49 972 l 288 972 l 232 617 l 49 617 m 385 -6 l 385 200 l 486 207 l 486 765 l 385 772 l 385 978 l 621 967 l 857 978 l 857 772 l 756 765 l 756 207 l 857 200 l 857 -6 l 621 6 l 385 -6 z "},"Ϊ":{"ha":597,"x_min":0,"x_max":597,"o":"m 63 -6 l 63 200 l 164 207 l 164 765 l 63 772 l 63 978 l 299 967 l 535 978 l 535 772 l 433 765 l 433 207 l 535 200 l 535 -6 l 299 6 l 63 -6 m 0 1036 l 0 1203 l 247 1203 l 247 1036 l 0 1036 m 350 1036 l 350 1203 l 597 1203 l 597 1036 l 350 1036 z "},"Ό":{"ha":1267,"x_min":49,"x_max":1169,"o":"m 49 617 l 49 972 l 288 972 l 232 617 l 49 617 m 336 189 l 336 783 l 525 972 l 981 972 l 1169 783 l 1169 189 l 981 0 l 525 0 l 336 189 m 617 739 l 617 233 l 889 233 l 889 739 l 617 739 z "},"Ύ":{"ha":1211,"x_min":49,"x_max":1199,"o":"m 49 617 l 49 972 l 288 972 l 232 617 l 49 617 m 632 0 l 632 292 l 515 292 l 335 972 l 622 972 l 719 525 l 814 525 l 911 972 l 1199 972 l 1018 292 l 901 292 l 901 0 l 632 0 z "},"Ϋ":{"ha":889,"x_min":13,"x_max":876,"o":"m 310 0 l 310 292 l 193 292 l 13 972 l 300 972 l 397 525 l 492 525 l 589 972 l 876 972 l 696 292 l 579 292 l 579 0 l 310 0 m 146 1036 l 146 1203 l 393 1203 l 393 1036 l 146 1036 m 496 1036 l 496 1203 l 743 1203 l 743 1036 l 496 1036 z "},"Ώ":{"ha":1247,"x_min":49,"x_max":1186,"o":"m 49 617 l 49 972 l 288 972 l 232 617 l 49 617 m 300 0 l 300 244 l 450 244 l 325 369 l 325 783 l 514 972 l 972 972 l 1161 783 l 1161 369 l 1036 244 l 1186 244 l 1186 0 l 800 0 l 800 244 l 881 325 l 881 728 l 606 728 l 606 325 l 686 244 l 686 0 l 300 0 z "},"α":{"ha":853,"x_min":50,"x_max":814,"o":"m 194 0 l 50 144 l 50 633 l 194 778 l 436 778 l 526 640 l 539 778 l 814 778 l 761 389 l 814 0 l 539 0 l 526 138 l 436 0 l 194 0 m 319 217 l 526 217 l 526 561 l 319 561 l 319 217 z "},"β":{"ha":875,"x_min":61,"x_max":842,"o":"m 813 781 l 813 599 l 713 514 l 842 408 l 842 169 l 672 0 l 281 0 l 281 211 l 572 211 l 572 410 l 403 410 l 403 588 l 549 588 l 549 761 l 331 761 l 331 -139 l 61 -139 l 61 781 l 253 972 l 621 972 l 813 781 z "},"γ":{"ha":806,"x_min":8,"x_max":797,"o":"m 257 -32 l 8 778 l 283 778 l 389 253 l 421 253 l 528 778 l 797 778 l 549 -32 l 549 -194 l 257 -194 l 257 -32 z "},"δ":{"ha":850,"x_min":50,"x_max":800,"o":"m 231 0 l 50 181 l 50 611 l 343 736 l 469 633 l 319 542 l 319 222 l 531 222 l 531 550 l 126 792 l 126 972 l 765 972 l 765 785 l 433 785 l 800 625 l 800 181 l 619 0 l 231 0 z "},"ε":{"ha":808,"x_min":36,"x_max":764,"o":"m 181 0 l 36 144 l 36 315 l 154 410 l 64 481 l 64 644 l 197 778 l 750 778 l 750 578 l 346 578 l 346 474 l 706 474 l 706 307 l 318 307 l 318 200 l 764 200 l 764 0 l 181 0 z "},"ζ":{"ha":717,"x_min":49,"x_max":690,"o":"m 215 0 l 49 167 l 49 536 l 390 763 l 49 763 l 49 972 l 672 972 l 672 772 l 318 485 l 318 244 l 690 244 l 690 -178 l 457 -178 l 457 0 l 215 0 z "},"η":{"ha":861,"x_min":61,"x_max":800,"o":"m 61 0 l 61 778 l 619 778 l 800 597 l 800 0 l 531 0 l 531 544 l 331 544 l 331 0 l 61 0 z "},"θ":{"ha":872,"x_min":56,"x_max":817,"o":"m 56 189 l 56 783 l 244 972 l 628 972 l 817 783 l 817 189 l 628 0 l 244 0 l 56 189 m 314 761 l 314 575 l 558 575 l 558 761 l 314 761 m 314 211 l 558 211 l 558 397 l 314 397 l 314 211 z "},"ι":{"ha":464,"x_min":64,"x_max":436,"o":"m 64 778 l 333 778 l 333 233 l 436 233 l 436 0 l 208 0 l 64 144 l 64 778 z "},"κ":{"ha":864,"x_min":64,"x_max":861,"o":"m 64 0 l 64 778 l 333 778 l 333 515 l 431 515 l 551 778 l 853 778 l 654 418 l 861 0 l 557 0 l 440 293 l 333 293 l 333 0 l 64 0 z "},"λ":{"ha":833,"x_min":8,"x_max":825,"o":"m 161 972 l 588 972 l 825 0 l 551 0 l 460 467 l 376 467 l 283 0 l 8 0 l 175 667 l 421 667 l 392 772 l 161 772 l 161 972 z "},"μ":{"ha":931,"x_min":64,"x_max":903,"o":"m 64 -222 l 64 778 l 322 778 l 322 233 l 531 233 l 531 778 l 800 778 l 800 233 l 903 233 l 903 0 l 671 0 l 578 93 l 485 0 l 322 0 l 322 -222 l 64 -222 z "},"ν":{"ha":806,"x_min":8,"x_max":797,"o":"m 183 0 l 8 778 l 283 778 l 379 222 l 431 222 l 528 778 l 797 778 l 622 0 l 183 0 z "},"ξ":{"ha":750,"x_min":36,"x_max":708,"o":"m 169 0 l 36 133 l 36 418 l 154 513 l 64 583 l 64 839 l 197 972 l 701 972 l 701 750 l 322 750 l 322 593 l 690 593 l 690 382 l 300 382 l 300 222 l 708 222 l 708 -178 l 461 -178 l 461 0 l 169 0 z "},"ο":{"ha":836,"x_min":50,"x_max":786,"o":"m 50 169 l 50 608 l 219 778 l 617 778 l 786 608 l 786 169 l 617 0 l 219 0 l 50 169 m 319 211 l 517 211 l 517 567 l 319 567 l 319 211 z "},"π":{"ha":864,"x_min":63,"x_max":801,"o":"m 63 0 l 63 778 l 801 778 l 801 0 l 532 0 l 532 544 l 332 544 l 332 0 l 63 0 z "},"ρ":{"ha":865,"x_min":64,"x_max":815,"o":"m 64 -194 l 64 586 l 256 778 l 624 778 l 815 586 l 815 192 l 624 0 l 333 0 l 333 -194 l 64 -194 m 546 556 l 333 556 l 333 222 l 546 222 l 546 556 z "},"ς":{"ha":731,"x_min":50,"x_max":700,"o":"m 219 0 l 50 169 l 50 608 l 219 778 l 700 778 l 700 533 l 319 533 l 319 244 l 700 244 l 700 -178 l 453 -178 l 453 0 l 219 0 z "},"σ":{"ha":840,"x_min":50,"x_max":811,"o":"m 50 169 l 50 608 l 219 778 l 811 778 l 811 568 l 644 568 l 786 472 l 786 169 l 617 0 l 219 0 l 50 169 m 319 211 l 517 211 l 517 567 l 319 567 l 319 211 z "},"τ":{"ha":722,"x_min":28,"x_max":692,"o":"m 167 156 l 167 556 l 28 556 l 28 725 l 81 778 l 692 778 l 692 556 l 436 556 l 436 222 l 692 222 l 692 0 l 322 0 l 167 156 z "},"υ":{"ha":867,"x_min":64,"x_max":803,"o":"m 803 778 l 803 181 l 622 0 l 244 0 l 64 181 l 64 778 l 333 778 l 333 233 l 533 233 l 533 778 l 803 778 z "},"φ":{"ha":1133,"x_min":50,"x_max":1083,"o":"m 679 211 l 825 211 l 825 567 l 679 567 l 679 211 m 219 0 l 50 169 l 50 608 l 219 778 l 482 778 l 308 569 l 308 211 l 454 211 l 454 572 l 625 778 l 914 778 l 1083 608 l 1083 169 l 914 0 l 679 0 l 679 -194 l 454 -194 l 454 0 l 219 0 z "},"χ":{"ha":875,"x_min":18,"x_max":857,"o":"m 18 0 l 196 407 l 29 778 l 329 778 l 411 504 l 464 504 l 546 778 l 846 778 l 679 407 l 857 0 l 553 0 l 472 282 l 403 282 l 322 0 l 18 0 z "},"ψ":{"ha":1194,"x_min":61,"x_max":1133,"o":"m 239 0 l 61 178 l 61 778 l 319 778 l 319 211 l 474 211 l 474 861 l 721 861 l 721 211 l 875 211 l 875 778 l 1133 778 l 1133 178 l 956 0 l 721 0 l 721 -194 l 474 -194 l 474 0 l 239 0 z "},"ω":{"ha":1294,"x_min":57,"x_max":1238,"o":"m 782 706 l 782 233 l 968 233 l 968 778 l 1238 778 l 1238 181 l 1057 0 l 738 0 l 647 100 l 557 0 l 238 0 l 57 181 l 57 778 l 326 778 l 326 233 l 513 233 l 513 706 l 782 706 z "},"ά":{"ha":853,"x_min":50,"x_max":814,"o":"m 194 0 l 50 144 l 50 633 l 194 778 l 436 778 l 526 640 l 539 778 l 814 778 l 761 389 l 814 0 l 539 0 l 526 138 l 436 0 l 194 0 m 319 217 l 526 217 l 526 561 l 319 561 l 319 217 m 328 825 l 328 1014 l 567 1014 l 511 825 l 328 825 z "},"έ":{"ha":808,"x_min":36,"x_max":764,"o":"m 181 0 l 36 144 l 36 315 l 154 410 l 64 481 l 64 644 l 197 778 l 750 778 l 750 578 l 346 578 l 346 474 l 706 474 l 706 307 l 318 307 l 318 200 l 764 200 l 764 0 l 181 0 m 358 825 l 358 1014 l 597 1014 l 542 825 l 358 825 z "},"ή":{"ha":861,"x_min":61,"x_max":800,"o":"m 61 0 l 61 778 l 619 778 l 800 597 l 800 0 l 531 0 l 531 544 l 331 544 l 331 0 l 61 0 m 332 825 l 332 1014 l 571 1014 l 515 825 l 332 825 z "},"ί":{"ha":464,"x_min":64,"x_max":436,"o":"m 64 778 l 333 778 l 333 233 l 436 233 l 436 0 l 208 0 l 64 144 l 64 778 m 100 825 l 100 1014 l 339 1014 l 283 825 l 100 825 z "},"ϊ":{"ha":464,"x_min":-100,"x_max":497,"o":"m 64 778 l 333 778 l 333 233 l 436 233 l 436 0 l 208 0 l 64 144 l 64 778 m -100 842 l -100 1008 l 147 1008 l 147 842 l -100 842 m 250 842 l 250 1008 l 497 1008 l 497 842 l 250 842 z "},"ΐ":{"ha":464,"x_min":-100,"x_max":497,"o":"m 64 778 l 333 778 l 333 233 l 436 233 l 436 0 l 208 0 l 64 144 l 64 778 m -100 842 l -100 1008 l 147 1008 l 147 842 l -100 842 m 250 842 l 250 1008 l 497 1008 l 497 842 l 250 842 m 100 1056 l 100 1244 l 339 1244 l 283 1056 l 100 1056 z "},"ό":{"ha":836,"x_min":50,"x_max":786,"o":"m 50 169 l 50 608 l 219 778 l 617 778 l 786 608 l 786 169 l 617 0 l 219 0 l 50 169 m 319 211 l 517 211 l 517 567 l 319 567 l 319 211 m 319 825 l 319 1014 l 558 1014 l 503 825 l 319 825 z "},"ύ":{"ha":867,"x_min":64,"x_max":803,"o":"m 803 778 l 803 181 l 622 0 l 244 0 l 64 181 l 64 778 l 333 778 l 333 233 l 533 233 l 533 778 l 803 778 m 335 825 l 335 1014 l 574 1014 l 518 825 l 335 825 z "},"ϋ":{"ha":867,"x_min":64,"x_max":803,"o":"m 803 778 l 803 181 l 622 0 l 244 0 l 64 181 l 64 778 l 333 778 l 333 233 l 533 233 l 533 778 l 803 778 m 135 842 l 135 1008 l 382 1008 l 382 842 l 135 842 m 485 842 l 485 1008 l 732 1008 l 732 842 l 485 842 z "},"ΰ":{"ha":867,"x_min":64,"x_max":803,"o":"m 803 778 l 803 181 l 622 0 l 244 0 l 64 181 l 64 778 l 333 778 l 333 233 l 533 233 l 533 778 l 803 778 m 135 842 l 135 1008 l 382 1008 l 382 842 l 135 842 m 485 842 l 485 1008 l 732 1008 l 732 842 l 485 842 m 335 1056 l 335 1244 l 574 1244 l 518 1056 l 335 1056 z "},"ώ":{"ha":1294,"x_min":57,"x_max":1238,"o":"m 782 706 l 782 233 l 968 233 l 968 778 l 1238 778 l 1238 181 l 1057 0 l 738 0 l 647 100 l 557 0 l 238 0 l 57 181 l 57 778 l 326 778 l 326 233 l 513 233 l 513 706 l 782 706 m 549 825 l 549 1014 l 788 1014 l 732 825 l 549 825 z "},"Ϗ":{"ha":919,"x_min":61,"x_max":918,"o":"m 61 0 l 61 972 l 331 972 l 331 610 l 439 610 l 601 972 l 897 972 l 672 514 l 918 0 l 619 0 l 449 376 l 331 376 l 331 0 l 61 0 m 865 -61 l 810 -278 l 572 -278 l 679 -61 l 865 -61 z "},"ϗ":{"ha":864,"x_min":64,"x_max":861,"o":"m 64 0 l 64 778 l 333 778 l 333 515 l 431 515 l 551 778 l 853 778 l 654 418 l 861 0 l 557 0 l 440 293 l 333 293 l 333 0 l 64 0 m 826 -61 l 771 -278 l 533 -278 l 640 -61 l 826 -61 z "},"ϕ":{"ha":1133,"x_min":50,"x_max":1083,"o":"m 50 178 l 50 600 l 228 778 l 906 778 l 1083 600 l 1083 178 l 906 0 l 228 0 l 50 178 m 308 557 l 308 221 l 825 221 l 825 557 l 308 557 m 679 -194 l 454 -194 l 454 972 l 679 972 l 679 -194 z "},"ʹ":{"ha":322,"x_min":49,"x_max":288,"o":"m 49 617 l 49 972 l 288 972 l 232 617 l 49 617 z "},"͵":{"ha":322,"x_min":35,"x_max":274,"o":"m 274 139 l 274 -217 l 35 -217 l 90 139 l 274 139 z "},";":{"ha":381,"x_min":6,"x_max":314,"o":"m 65 0 l 65 250 l 314 250 l 314 0 l 164 -194 l 4 -194 l 156 0 l 65 0 m 51 500 l 51 750 l 299 750 l 299 500 l 51 500 z "},"·":{"ha":381,"x_min":67,"x_max":314,"o":"m 67 500 l 67 750 l 314 750 l 314 500 l 67 500 z "},"΄":{"ha":322,"x_min":49,"x_max":288,"o":"m 49 617 l 49 972 l 288 972 l 232 617 l 49 617 z "},"΅":{"ha":708,"x_min":56,"x_max":653,"o":"m 56 842 l 56 1008 l 303 1008 l 303 842 l 56 842 m 406 842 l 406 1008 l 653 1008 l 653 842 l 406 842 m 235 825 l 235 1014 l 474 1014 l 418 825 l 235 825 z "},"А":{"ha":914,"x_min":11,"x_max":903,"o":"m 11 0 l 211 972 l 703 972 l 903 0 l 617 0 l 583 194 l 331 194 l 297 0 l 11 0 m 361 383 l 553 383 l 489 761 l 425 761 l 361 383 z "},"Б":{"ha":900,"x_min":61,"x_max":867,"o":"m 61 0 l 61 972 l 789 972 l 789 761 l 331 761 l 331 606 l 689 606 l 867 428 l 867 178 l 689 0 l 61 0 m 331 211 l 586 211 l 586 406 l 331 406 l 331 211 z "},"В":{"ha":911,"x_min":61,"x_max":878,"o":"m 331 585 l 575 585 l 575 761 l 331 761 l 331 585 m 331 211 l 597 211 l 597 407 l 331 407 l 331 211 m 850 794 l 850 582 l 763 511 l 878 417 l 878 178 l 700 0 l 61 0 l 61 972 l 672 972 l 850 794 z "},"Г":{"ha":708,"x_min":61,"x_max":694,"o":"m 61 0 l 61 972 l 694 972 l 694 728 l 331 728 l 331 0 l 61 0 z "},"Д":{"ha":1000,"x_min":21,"x_max":979,"o":"m 21 -194 l 21 233 l 107 233 l 275 972 l 896 972 l 896 233 l 979 233 l 979 -194 l 776 -194 l 776 0 l 224 0 l 224 -194 l 21 -194 m 381 211 l 626 211 l 626 761 l 481 761 l 381 211 z "},"Е":{"ha":806,"x_min":61,"x_max":764,"o":"m 61 0 l 61 972 l 750 972 l 750 750 l 331 750 l 331 600 l 681 600 l 681 389 l 331 389 l 331 222 l 764 222 l 764 0 l 61 0 z "},"Ж":{"ha":1317,"x_min":1,"x_max":1315,"o":"m 793 0 l 524 0 l 524 376 l 431 376 l 306 0 l 1 0 l 199 514 l 22 972 l 324 972 l 439 610 l 524 610 l 524 972 l 793 972 l 793 610 l 878 610 l 994 972 l 1294 972 l 1118 514 l 1315 0 l 1011 0 l 888 376 l 793 376 l 793 0 z "},"З":{"ha":869,"x_min":40,"x_max":836,"o":"m 658 0 l 40 0 l 40 222 l 556 222 l 556 389 l 158 389 l 158 600 l 528 600 l 528 750 l 56 750 l 56 972 l 631 972 l 808 794 l 808 579 l 718 508 l 836 414 l 836 178 l 658 0 z "},"И":{"ha":944,"x_min":61,"x_max":883,"o":"m 883 0 l 619 0 l 619 574 l 297 0 l 61 0 l 61 972 l 325 972 l 325 399 l 647 972 l 883 972 l 883 0 z "},"Й":{"ha":944,"x_min":61,"x_max":883,"o":"m 883 0 l 619 0 l 619 574 l 297 0 l 61 0 l 61 972 l 325 972 l 325 399 l 647 972 l 883 972 l 883 0 m 531 1225 l 772 1225 l 675 1025 l 269 1025 l 172 1225 l 414 1225 l 418 1121 l 526 1121 l 531 1225 z "},"К":{"ha":919,"x_min":61,"x_max":918,"o":"m 61 0 l 61 972 l 331 972 l 331 610 l 439 610 l 601 972 l 897 972 l 672 514 l 918 0 l 619 0 l 449 376 l 331 376 l 331 0 l 61 0 z "},"Л":{"ha":936,"x_min":11,"x_max":875,"o":"m 875 972 l 875 0 l 606 0 l 606 735 l 424 735 l 297 0 l 11 0 l 200 972 l 875 972 z "},"М":{"ha":1083,"x_min":61,"x_max":1022,"o":"m 61 0 l 61 972 l 382 972 l 542 596 l 701 972 l 1022 972 l 1022 0 l 758 0 l 758 628 l 594 261 l 489 261 l 325 628 l 325 0 l 61 0 z "},"Н":{"ha":908,"x_min":61,"x_max":847,"o":"m 61 0 l 61 972 l 331 972 l 331 622 l 578 622 l 578 972 l 847 972 l 847 0 l 578 0 l 578 378 l 331 378 l 331 0 l 61 0 z "},"О":{"ha":944,"x_min":56,"x_max":889,"o":"m 56 189 l 56 783 l 244 972 l 700 972 l 889 783 l 889 189 l 700 0 l 244 0 l 56 189 m 336 739 l 336 233 l 608 233 l 608 739 l 336 739 z "},"П":{"ha":903,"x_min":61,"x_max":842,"o":"m 61 0 l 61 972 l 842 972 l 842 0 l 572 0 l 572 739 l 331 739 l 331 0 l 61 0 z "},"Р":{"ha":872,"x_min":61,"x_max":839,"o":"m 331 419 l 569 419 l 569 761 l 331 761 l 331 419 m 839 783 l 839 397 l 650 208 l 331 208 l 331 0 l 61 0 l 61 972 l 650 972 l 839 783 z "},"С":{"ha":775,"x_min":56,"x_max":739,"o":"m 56 189 l 56 783 l 244 972 l 725 972 l 725 728 l 336 728 l 336 244 l 739 244 l 739 0 l 244 0 l 56 189 z "},"Т":{"ha":800,"x_min":28,"x_max":772,"o":"m 265 0 l 265 739 l 28 739 l 28 972 l 772 972 l 772 739 l 535 739 l 535 0 l 265 0 z "},"У":{"ha":833,"x_min":8,"x_max":825,"o":"m 56 0 l 56 222 l 397 222 l 417 306 l 175 306 l 8 972 l 283 972 l 378 517 l 460 517 l 551 972 l 825 972 l 588 0 l 56 0 z "},"Ф":{"ha":1189,"x_min":56,"x_max":1133,"o":"m 56 264 l 56 708 l 233 886 l 956 886 l 1133 708 l 1133 264 l 956 86 l 233 86 l 56 264 m 314 675 l 314 297 l 875 297 l 875 675 l 314 675 m 718 0 l 471 0 l 471 972 l 718 972 l 718 0 z "},"Х":{"ha":917,"x_min":6,"x_max":911,"o":"m 6 0 l 211 514 l 26 972 l 315 972 l 428 622 l 489 622 l 601 972 l 890 972 l 706 514 l 911 0 l 619 0 l 497 378 l 419 378 l 297 0 l 6 0 z "},"Ц":{"ha":961,"x_min":61,"x_max":947,"o":"m 842 972 l 842 233 l 947 233 l 947 -194 l 744 -194 l 744 0 l 61 0 l 61 972 l 331 972 l 331 233 l 572 233 l 572 972 l 842 972 z "},"Ч":{"ha":889,"x_min":61,"x_max":828,"o":"m 828 972 l 828 0 l 558 0 l 558 194 l 242 194 l 61 375 l 61 972 l 331 972 l 331 417 l 558 417 l 558 972 l 828 972 z "},"Ш":{"ha":1347,"x_min":61,"x_max":1286,"o":"m 808 972 l 808 233 l 1017 233 l 1017 972 l 1286 972 l 1286 0 l 61 0 l 61 972 l 331 972 l 331 233 l 539 233 l 539 972 l 808 972 z "},"Щ":{"ha":1406,"x_min":61,"x_max":1392,"o":"m 808 972 l 808 233 l 1017 233 l 1017 972 l 1286 972 l 1286 233 l 1392 233 l 1392 -194 l 1189 -194 l 1189 0 l 61 0 l 61 972 l 331 972 l 331 233 l 539 233 l 539 972 l 808 972 z "},"Ъ":{"ha":1000,"x_min":28,"x_max":967,"o":"m 697 553 l 442 553 l 442 211 l 697 211 l 697 553 m 967 575 l 967 189 l 778 0 l 172 0 l 172 686 l 225 739 l 28 739 l 28 972 l 442 972 l 442 764 l 778 764 l 967 575 z "},"Ы":{"ha":1281,"x_min":61,"x_max":1219,"o":"m 586 553 l 331 553 l 331 211 l 586 211 l 586 553 m 856 575 l 856 189 l 667 0 l 61 0 l 61 972 l 331 972 l 331 764 l 667 764 l 856 575 m 950 0 l 950 972 l 1219 972 l 1219 0 l 950 0 z "},"Ь":{"ha":889,"x_min":61,"x_max":856,"o":"m 586 553 l 331 553 l 331 211 l 586 211 l 586 553 m 856 575 l 856 189 l 667 0 l 61 0 l 61 972 l 331 972 l 331 764 l 667 764 l 856 575 z "},"Э":{"ha":844,"x_min":36,"x_max":789,"o":"m 789 192 l 597 0 l 36 0 l 36 228 l 514 228 l 514 744 l 50 744 l 50 972 l 597 972 l 789 781 l 789 192 m 685 381 l 171 381 l 171 592 l 685 592 l 685 381 z "},"Ю":{"ha":1342,"x_min":61,"x_max":1286,"o":"m 61 0 l 61 972 l 331 972 l 331 603 l 499 603 l 499 783 l 688 972 l 1097 972 l 1286 783 l 1286 189 l 1097 0 l 688 0 l 499 189 l 499 369 l 331 369 l 331 0 l 61 0 m 764 728 l 764 244 l 1017 244 l 1017 728 l 764 728 z "},"Я":{"ha":914,"x_min":1,"x_max":853,"o":"m 583 467 l 583 761 l 319 761 l 319 467 l 583 467 m 50 783 l 239 972 l 853 972 l 853 0 l 583 0 l 583 256 l 417 256 l 304 0 l 1 0 l 168 335 l 50 453 l 50 783 z "},"а":{"ha":833,"x_min":47,"x_max":772,"o":"m 47 181 l 47 444 l 503 458 l 503 556 l 75 556 l 75 778 l 592 778 l 772 597 l 772 0 l 228 0 l 47 181 m 317 311 l 317 211 l 503 211 l 503 339 l 317 311 z "},"б":{"ha":861,"x_min":61,"x_max":813,"o":"m 331 222 l 543 222 l 543 486 l 331 486 l 331 222 m 242 0 l 61 181 l 61 803 l 231 972 l 775 972 l 775 761 l 331 761 l 331 675 l 690 675 l 813 553 l 813 181 l 632 0 l 242 0 z "},"в":{"ha":847,"x_min":61,"x_max":811,"o":"m 61 778 l 61 0 l 689 0 l 811 122 l 811 319 l 706 410 l 783 474 l 783 656 l 661 778 l 61 778 m 325 474 l 325 589 l 525 589 l 525 474 l 325 474 m 325 189 l 325 307 l 542 307 l 542 189 l 325 189 z "},"г":{"ha":653,"x_min":61,"x_max":625,"o":"m 61 0 l 61 778 l 625 778 l 625 533 l 331 533 l 331 0 l 61 0 z "},"д":{"ha":847,"x_min":49,"x_max":786,"o":"m 92 -194 l 92 28 l 517 28 l 517 111 l 218 111 l 49 281 l 49 608 l 221 778 l 786 778 l 786 14 l 578 -194 l 92 -194 m 318 556 l 318 322 l 517 322 l 517 556 l 318 556 z "},"е":{"ha":819,"x_min":49,"x_max":771,"o":"m 49 169 l 49 608 l 218 778 l 771 778 l 771 336 l 318 336 l 318 222 l 743 222 l 743 0 l 218 0 l 49 169 m 318 456 l 547 469 l 547 578 l 318 578 l 318 456 z "},"ж":{"ha":1308,"x_min":3,"x_max":1306,"o":"m 789 0 l 519 0 l 519 293 l 424 293 l 307 0 l 3 0 l 210 418 l 17 778 l 318 778 l 431 515 l 519 515 l 519 778 l 789 778 l 789 515 l 878 515 l 990 778 l 1292 778 l 1099 418 l 1306 0 l 1001 0 l 885 293 l 789 293 l 789 0 z "},"з":{"ha":808,"x_min":43,"x_max":771,"o":"m 771 133 l 638 0 l 43 0 l 43 211 l 489 211 l 489 307 l 101 307 l 101 474 l 461 474 l 461 567 l 57 567 l 57 778 l 610 778 l 743 644 l 743 481 l 653 410 l 771 315 l 771 133 z "},"и":{"ha":914,"x_min":61,"x_max":853,"o":"m 853 0 l 589 0 l 589 435 l 317 0 l 61 0 l 61 778 l 325 778 l 325 332 l 597 778 l 853 778 l 853 0 z "},"й":{"ha":914,"x_min":61,"x_max":853,"o":"m 853 0 l 589 0 l 589 435 l 317 0 l 61 0 l 61 778 l 325 778 l 325 332 l 597 778 l 853 778 l 853 0 m 543 1031 l 757 1031 l 626 831 l 288 831 l 157 1031 l 371 1031 l 381 949 l 533 949 l 543 1031 z "},"к":{"ha":861,"x_min":61,"x_max":858,"o":"m 61 0 l 61 778 l 331 778 l 331 515 l 428 515 l 549 778 l 850 778 l 651 418 l 858 0 l 554 0 l 438 293 l 331 293 l 331 0 l 61 0 z "},"л":{"ha":861,"x_min":21,"x_max":800,"o":"m 800 778 l 800 0 l 531 0 l 531 563 l 406 563 l 322 0 l 21 0 l 21 233 l 96 233 l 178 778 l 800 778 z "},"м":{"ha":986,"x_min":61,"x_max":925,"o":"m 61 0 l 61 778 l 353 778 l 493 461 l 633 778 l 925 778 l 925 0 l 679 0 l 679 478 l 546 150 l 440 150 l 308 478 l 308 0 l 61 0 z "},"н":{"ha":872,"x_min":61,"x_max":811,"o":"m 61 0 l 61 778 l 331 778 l 331 507 l 542 507 l 542 778 l 811 778 l 811 0 l 542 0 l 542 275 l 331 275 l 331 0 l 61 0 z "},"о":{"ha":833,"x_min":49,"x_max":785,"o":"m 49 169 l 49 608 l 218 778 l 615 778 l 785 608 l 785 169 l 615 0 l 218 0 l 49 169 m 318 211 l 515 211 l 515 567 l 318 567 l 318 211 z "},"п":{"ha":864,"x_min":63,"x_max":801,"o":"m 63 0 l 63 778 l 801 778 l 801 0 l 532 0 l 532 544 l 332 544 l 332 0 l 63 0 z "},"р":{"ha":861,"x_min":61,"x_max":813,"o":"m 61 -194 l 61 778 l 621 778 l 813 586 l 813 192 l 621 0 l 331 0 l 331 -194 l 61 -194 m 543 556 l 331 556 l 331 222 l 543 222 l 543 556 z "},"с":{"ha":729,"x_min":49,"x_max":699,"o":"m 49 169 l 49 608 l 218 778 l 699 778 l 699 533 l 318 533 l 318 244 l 699 244 l 699 0 l 218 0 l 49 169 z "},"т":{"ha":778,"x_min":28,"x_max":750,"o":"m 524 0 l 524 544 l 750 544 l 750 778 l 28 778 l 28 544 l 254 544 l 254 0 l 524 0 z "},"у":{"ha":833,"x_min":8,"x_max":825,"o":"m 56 -194 l 56 28 l 397 28 l 417 111 l 175 111 l 8 778 l 283 778 l 378 322 l 460 322 l 551 778 l 825 778 l 588 -194 l 56 -194 z "},"ф":{"ha":1133,"x_min":50,"x_max":1083,"o":"m 50 178 l 50 600 l 228 778 l 906 778 l 1083 600 l 1083 178 l 906 0 l 228 0 l 50 178 m 308 557 l 308 221 l 825 221 l 825 557 l 308 557 m 679 -194 l 454 -194 l 454 972 l 679 972 l 679 -194 z "},"х":{"ha":875,"x_min":18,"x_max":857,"o":"m 18 0 l 196 407 l 29 778 l 329 778 l 411 504 l 464 504 l 546 778 l 846 778 l 679 407 l 857 0 l 553 0 l 472 282 l 403 282 l 322 0 l 18 0 z "},"ц":{"ha":921,"x_min":61,"x_max":907,"o":"m 800 778 l 800 233 l 907 233 l 907 -194 l 704 -194 l 704 0 l 61 0 l 61 778 l 331 778 l 331 233 l 531 233 l 531 778 l 800 778 z "},"ч":{"ha":849,"x_min":49,"x_max":788,"o":"m 788 778 l 788 0 l 518 0 l 518 172 l 229 172 l 49 353 l 49 778 l 318 778 l 318 394 l 518 394 l 518 778 l 788 778 z "},"ш":{"ha":1292,"x_min":61,"x_max":1231,"o":"m 781 778 l 781 233 l 961 233 l 961 778 l 1231 778 l 1231 0 l 61 0 l 61 778 l 331 778 l 331 233 l 511 233 l 511 778 l 781 778 z "},"щ":{"ha":1350,"x_min":61,"x_max":1336,"o":"m 781 778 l 781 233 l 961 233 l 961 778 l 1231 778 l 1231 233 l 1336 233 l 1336 -194 l 1133 -194 l 1133 0 l 61 0 l 61 778 l 331 778 l 331 233 l 511 233 l 511 778 l 781 778 z "},"ъ":{"ha":928,"x_min":14,"x_max":879,"o":"m 128 0 l 128 481 l 203 556 l 14 556 l 14 778 l 397 778 l 397 606 l 710 606 l 879 436 l 879 169 l 710 0 l 128 0 m 397 211 l 610 211 l 610 394 l 397 394 l 397 211 z "},"ы":{"ha":1253,"x_min":61,"x_max":1192,"o":"m 61 0 l 61 778 l 331 778 l 331 606 l 643 606 l 813 436 l 813 169 l 643 0 l 61 0 m 331 211 l 543 211 l 543 394 l 331 394 l 331 211 m 922 0 l 922 778 l 1192 778 l 1192 0 l 922 0 z "},"ь":{"ha":847,"x_min":61,"x_max":813,"o":"m 61 0 l 61 778 l 331 778 l 331 606 l 643 606 l 813 436 l 813 169 l 643 0 l 61 0 m 331 211 l 543 211 l 543 394 l 331 394 l 331 211 z "},"э":{"ha":789,"x_min":43,"x_max":740,"o":"m 571 0 l 43 0 l 43 211 l 471 211 l 471 319 l 82 319 l 82 464 l 471 464 l 471 567 l 43 567 l 43 778 l 571 778 l 740 608 l 740 169 l 571 0 z "},"ю":{"ha":1225,"x_min":61,"x_max":1176,"o":"m 61 0 l 61 778 l 331 778 l 331 494 l 440 494 l 440 608 l 610 778 l 1007 778 l 1176 608 l 1176 169 l 1007 0 l 610 0 l 440 169 l 440 283 l 331 283 l 331 0 l 61 0 m 710 211 l 907 211 l 907 567 l 710 567 l 710 211 z "},"я":{"ha":867,"x_min":15,"x_max":806,"o":"m 332 394 l 536 394 l 536 567 l 332 567 l 332 394 m 63 336 l 63 622 l 218 778 l 806 778 l 806 0 l 536 0 l 536 194 l 401 194 l 318 0 l 15 0 l 163 236 l 63 336 z "},"Ӑ":{"ha":914,"x_min":11,"x_max":903,"o":"m 11 0 l 211 972 l 703 972 l 903 0 l 617 0 l 583 194 l 331 194 l 297 0 l 11 0 m 361 383 l 553 383 l 489 761 l 425 761 l 361 383 m 515 1225 l 757 1225 l 660 1025 l 254 1025 l 157 1225 l 399 1225 l 403 1121 l 511 1121 l 515 1225 z "},"ӑ":{"ha":833,"x_min":47,"x_max":772,"o":"m 47 181 l 47 444 l 503 458 l 503 556 l 75 556 l 75 778 l 592 778 l 772 597 l 772 0 l 228 0 l 47 181 m 317 311 l 317 211 l 503 211 l 503 339 l 317 311 m 449 1031 l 690 1031 l 593 831 l 188 831 l 90 1031 l 332 1031 l 336 926 l 444 926 l 449 1031 z "},"Ӓ":{"ha":914,"x_min":11,"x_max":903,"o":"m 11 0 l 211 972 l 703 972 l 903 0 l 617 0 l 583 194 l 331 194 l 297 0 l 11 0 m 361 383 l 553 383 l 489 761 l 425 761 l 361 383 m 158 1036 l 158 1203 l 406 1203 l 406 1036 l 158 1036 m 508 1036 l 508 1203 l 756 1203 l 756 1036 l 508 1036 z "},"ӓ":{"ha":833,"x_min":47,"x_max":772,"o":"m 47 181 l 47 444 l 503 458 l 503 556 l 75 556 l 75 778 l 592 778 l 772 597 l 772 0 l 228 0 l 47 181 m 317 311 l 317 211 l 503 211 l 503 339 l 317 311 m 92 842 l 92 1008 l 339 1008 l 339 842 l 92 842 m 442 842 l 442 1008 l 689 1008 l 689 842 l 442 842 z "},"Ә":{"ha":903,"x_min":56,"x_max":847,"o":"m 847 801 l 847 171 l 676 0 l 226 0 l 56 171 l 56 603 l 578 603 l 578 750 l 83 750 l 83 972 l 676 972 l 847 801 m 578 439 l 325 425 l 325 222 l 578 222 l 578 439 z "},"ә":{"ha":819,"x_min":49,"x_max":771,"o":"m 771 607 l 771 171 l 600 0 l 219 0 l 49 171 l 49 442 l 501 442 l 501 556 l 76 556 l 76 778 l 600 778 l 771 607 m 501 322 l 285 308 l 285 200 l 501 200 l 501 322 z "},"Ӕ":{"ha":1200,"x_min":11,"x_max":1158,"o":"m 11 0 l 218 972 l 1144 972 l 1144 750 l 783 750 l 783 600 l 1075 600 l 1075 389 l 783 389 l 783 222 l 1158 222 l 1158 0 l 525 0 l 525 194 l 331 194 l 297 0 l 11 0 m 358 383 l 525 383 l 525 761 l 424 761 l 358 383 z "},"ӕ":{"ha":1257,"x_min":47,"x_max":1208,"o":"m 47 181 l 47 444 l 494 458 l 494 556 l 75 556 l 75 778 l 514 778 l 629 663 l 744 778 l 1208 778 l 1208 336 l 764 336 l 764 211 l 1181 211 l 1181 0 l 228 0 l 47 181 m 764 456 l 983 469 l 983 578 l 764 578 l 764 456 m 317 311 l 317 200 l 494 200 l 494 339 l 317 311 z "},"Ѓ":{"ha":708,"x_min":61,"x_max":694,"o":"m 61 0 l 61 972 l 694 972 l 694 728 l 331 728 l 331 0 l 61 0 m 174 1039 l 174 1167 l 618 1207 l 618 1039 l 174 1039 z "},"ѓ":{"ha":653,"x_min":61,"x_max":625,"o":"m 61 0 l 61 778 l 625 778 l 625 533 l 331 533 l 331 0 l 61 0 m 169 844 l 169 972 l 614 1013 l 614 844 l 169 844 z "},"Ґ":{"ha":708,"x_min":61,"x_max":694,"o":"m 61 0 l 61 972 l 447 972 l 447 1144 l 694 1144 l 694 728 l 331 728 l 331 0 l 61 0 z "},"ґ":{"ha":653,"x_min":61,"x_max":625,"o":"m 61 0 l 61 778 l 381 778 l 381 956 l 625 956 l 625 533 l 331 533 l 331 0 l 61 0 z "},"Ғ":{"ha":708,"x_min":61,"x_max":694,"o":"m 111 329 l 111 517 l 550 517 l 550 329 l 111 329 m 61 0 l 61 972 l 694 972 l 694 728 l 331 728 l 331 0 l 61 0 z "},"ғ":{"ha":653,"x_min":8,"x_max":625,"o":"m 8 218 l 8 406 l 489 406 l 489 218 l 8 218 m 61 0 l 61 778 l 625 778 l 625 533 l 331 533 l 331 0 l 61 0 z "},"Ҕ":{"ha":879,"x_min":61,"x_max":831,"o":"m 61 0 l 61 972 l 804 972 l 804 750 l 342 750 l 342 550 l 694 550 l 831 414 l 831 -58 l 694 -194 l 403 -194 l 403 28 l 561 28 l 561 328 l 342 328 l 342 0 l 61 0 z "},"ҕ":{"ha":838,"x_min":61,"x_max":789,"o":"m 61 0 l 61 778 l 785 778 l 785 556 l 342 556 l 342 447 l 653 447 l 789 311 l 789 -58 l 653 -194 l 397 -194 l 397 28 l 542 28 l 542 247 l 342 247 l 342 0 l 61 0 z "},"Ӷ":{"ha":708,"x_min":61,"x_max":694,"o":"m 61 0 l 61 972 l 694 972 l 694 728 l 331 728 l 331 233 l 447 233 l 447 -194 l 244 -194 l 244 0 l 61 0 z "},"ӷ":{"ha":653,"x_min":61,"x_max":625,"o":"m 61 0 l 61 778 l 625 778 l 625 533 l 331 533 l 331 233 l 447 233 l 447 -194 l 244 -194 l 244 0 l 61 0 z "},"Ђ":{"ha":1019,"x_min":28,"x_max":971,"o":"m 232 0 l 232 750 l 28 750 l 28 972 l 839 972 l 839 750 l 501 750 l 501 606 l 801 606 l 971 436 l 971 169 l 801 0 l 596 0 l 596 211 l 701 211 l 701 394 l 501 394 l 501 0 l 232 0 z "},"ђ":{"ha":861,"x_min":61,"x_max":800,"o":"m 61 0 l 61 972 l 331 972 l 331 883 l 613 883 l 613 779 l 331 779 l 331 700 l 619 700 l 800 519 l 800 -61 l 639 -222 l 447 -222 l 447 -33 l 531 -33 l 531 478 l 331 478 l 331 0 l 61 0 z "},"Ҙ":{"ha":869,"x_min":42,"x_max":836,"o":"m 658 0 l 501 0 l 501 -194 l 299 -194 l 299 0 l 42 0 l 42 222 l 561 222 l 561 389 l 125 389 l 125 600 l 533 600 l 533 750 l 56 750 l 56 972 l 631 972 l 808 794 l 808 579 l 718 508 l 836 414 l 836 178 l 658 0 z "},"ҙ":{"ha":808,"x_min":43,"x_max":771,"o":"m 771 133 l 638 0 l 508 0 l 508 -194 l 306 -194 l 306 0 l 43 0 l 43 211 l 489 211 l 489 307 l 101 307 l 101 474 l 461 474 l 461 567 l 57 567 l 57 778 l 610 778 l 743 644 l 743 481 l 653 410 l 771 315 l 771 133 z "},"Ѐ":{"ha":806,"x_min":61,"x_max":764,"o":"m 61 0 l 61 972 l 750 972 l 750 750 l 331 750 l 331 600 l 681 600 l 681 389 l 331 389 l 331 222 l 764 222 l 764 0 l 61 0 m 593 1039 l 149 1039 l 149 1207 l 593 1167 l 593 1039 z "},"ѐ":{"ha":819,"x_min":49,"x_max":771,"o":"m 49 169 l 49 608 l 218 778 l 771 778 l 771 336 l 318 336 l 318 222 l 743 222 l 743 0 l 218 0 l 49 169 m 318 456 l 547 469 l 547 578 l 318 578 l 318 456 m 611 844 l 167 844 l 167 1013 l 611 972 l 611 844 z "},"Ӗ":{"ha":806,"x_min":61,"x_max":764,"o":"m 61 0 l 61 972 l 750 972 l 750 750 l 331 750 l 331 600 l 681 600 l 681 389 l 331 389 l 331 222 l 764 222 l 764 0 l 61 0 m 471 1225 l 713 1225 l 615 1025 l 210 1025 l 113 1225 l 354 1225 l 358 1121 l 467 1121 l 471 1225 z "},"ӗ":{"ha":819,"x_min":49,"x_max":771,"o":"m 49 169 l 49 608 l 218 778 l 771 778 l 771 336 l 318 336 l 318 222 l 743 222 l 743 0 l 218 0 l 49 169 m 318 456 l 547 469 l 547 578 l 318 578 l 318 456 m 489 1031 l 731 1031 l 633 831 l 228 831 l 131 1031 l 372 1031 l 376 926 l 485 926 l 489 1031 z "},"Ё":{"ha":806,"x_min":61,"x_max":764,"o":"m 61 0 l 61 972 l 750 972 l 750 750 l 331 750 l 331 600 l 681 600 l 681 389 l 331 389 l 331 222 l 764 222 l 764 0 l 61 0 m 114 1036 l 114 1203 l 361 1203 l 361 1036 l 114 1036 m 464 1036 l 464 1203 l 711 1203 l 711 1036 l 464 1036 z "},"ё":{"ha":819,"x_min":49,"x_max":771,"o":"m 49 169 l 49 608 l 218 778 l 771 778 l 771 336 l 318 336 l 318 222 l 743 222 l 743 0 l 218 0 l 49 169 m 318 456 l 547 469 l 547 578 l 318 578 l 318 456 m 132 842 l 132 1008 l 379 1008 l 379 842 l 132 842 m 482 842 l 482 1008 l 729 1008 l 729 842 l 482 842 z "},"Є":{"ha":844,"x_min":56,"x_max":808,"o":"m 56 192 l 56 781 l 247 972 l 794 972 l 794 744 l 331 744 l 331 228 l 808 228 l 808 0 l 247 0 l 56 192 m 160 381 l 160 592 l 674 592 l 674 381 l 160 381 z "},"є":{"ha":789,"x_min":49,"x_max":746,"o":"m 218 0 l 49 169 l 49 608 l 218 778 l 746 778 l 746 567 l 318 567 l 318 464 l 707 464 l 707 319 l 318 319 l 318 211 l 746 211 l 746 0 l 218 0 z "},"Ӂ":{"ha":1317,"x_min":1,"x_max":1315,"o":"m 793 0 l 524 0 l 524 376 l 431 376 l 306 0 l 1 0 l 199 514 l 22 972 l 324 972 l 439 610 l 524 610 l 524 972 l 793 972 l 793 610 l 878 610 l 994 972 l 1294 972 l 1118 514 l 1315 0 l 1011 0 l 888 376 l 793 376 l 793 0 m 717 1225 l 958 1225 l 861 1025 l 456 1025 l 358 1225 l 600 1225 l 604 1121 l 713 1121 l 717 1225 z "},"ӂ":{"ha":1308,"x_min":3,"x_max":1306,"o":"m 789 0 l 519 0 l 519 293 l 424 293 l 307 0 l 3 0 l 210 418 l 17 778 l 318 778 l 431 515 l 519 515 l 519 778 l 789 778 l 789 515 l 878 515 l 990 778 l 1292 778 l 1099 418 l 1306 0 l 1001 0 l 885 293 l 789 293 l 789 0 m 713 1031 l 954 1031 l 857 831 l 451 831 l 354 1031 l 596 1031 l 600 926 l 708 926 l 713 1031 z "},"Ӝ":{"ha":1317,"x_min":1,"x_max":1315,"o":"m 793 0 l 524 0 l 524 376 l 431 376 l 306 0 l 1 0 l 199 514 l 22 972 l 324 972 l 439 610 l 524 610 l 524 972 l 793 972 l 793 610 l 878 610 l 994 972 l 1294 972 l 1118 514 l 1315 0 l 1011 0 l 888 376 l 793 376 l 793 0 m 360 1036 l 360 1203 l 607 1203 l 607 1036 l 360 1036 m 710 1036 l 710 1203 l 957 1203 l 957 1036 l 710 1036 z "},"ӝ":{"ha":1308,"x_min":3,"x_max":1306,"o":"m 789 0 l 519 0 l 519 293 l 424 293 l 307 0 l 3 0 l 210 418 l 17 778 l 318 778 l 431 515 l 519 515 l 519 778 l 789 778 l 789 515 l 878 515 l 990 778 l 1292 778 l 1099 418 l 1306 0 l 1001 0 l 885 293 l 789 293 l 789 0 m 356 842 l 356 1008 l 603 1008 l 603 842 l 356 842 m 706 842 l 706 1008 l 953 1008 l 953 842 l 706 842 z "},"Җ":{"ha":1372,"x_min":0,"x_max":1358,"o":"m 792 0 l 522 0 l 522 376 l 428 376 l 304 0 l 0 0 l 197 514 l 21 972 l 322 972 l 438 610 l 522 610 l 522 972 l 792 972 l 792 610 l 876 610 l 992 972 l 1293 972 l 1117 514 l 1228 233 l 1358 233 l 1358 -194 l 1156 -194 l 1156 0 l 1010 0 l 886 376 l 792 376 l 792 0 z "},"җ":{"ha":1367,"x_min":3,"x_max":1353,"o":"m 789 0 l 519 0 l 519 293 l 424 293 l 307 0 l 3 0 l 210 418 l 17 778 l 318 778 l 431 515 l 519 515 l 519 778 l 789 778 l 789 515 l 878 515 l 990 778 l 1292 778 l 1099 418 l 1194 233 l 1353 233 l 1353 -194 l 1150 -194 l 1150 0 l 1001 0 l 885 293 l 789 293 l 789 0 z "},"Ӟ":{"ha":869,"x_min":40,"x_max":836,"o":"m 658 0 l 40 0 l 40 222 l 556 222 l 556 389 l 158 389 l 158 600 l 528 600 l 528 750 l 56 750 l 56 972 l 631 972 l 808 794 l 808 579 l 718 508 l 836 414 l 836 178 l 658 0 m 69 1036 l 69 1203 l 317 1203 l 317 1036 l 69 1036 m 419 1036 l 419 1203 l 667 1203 l 667 1036 l 419 1036 z "},"ӟ":{"ha":808,"x_min":43,"x_max":771,"o":"m 771 133 l 638 0 l 43 0 l 43 211 l 489 211 l 489 307 l 101 307 l 101 474 l 461 474 l 461 567 l 57 567 l 57 778 l 610 778 l 743 644 l 743 481 l 653 410 l 771 315 l 771 133 m 51 842 l 51 1008 l 299 1008 l 299 842 l 51 842 m 401 842 l 401 1008 l 649 1008 l 649 842 l 401 842 z "},"Ѕ":{"ha":889,"x_min":56,"x_max":833,"o":"m 69 0 l 69 233 l 564 233 l 564 374 l 56 419 l 56 794 l 233 972 l 819 972 l 819 739 l 325 739 l 325 613 l 833 567 l 833 178 l 656 0 l 69 0 z "},"ѕ":{"ha":811,"x_min":49,"x_max":763,"o":"m 49 0 l 49 211 l 493 211 l 493 324 l 49 324 l 49 608 l 218 778 l 763 778 l 763 567 l 318 567 l 318 457 l 763 457 l 763 165 l 597 0 l 49 0 z "},"Ѝ":{"ha":944,"x_min":61,"x_max":883,"o":"m 883 0 l 619 0 l 619 574 l 297 0 l 61 0 l 61 972 l 325 972 l 325 399 l 647 972 l 883 972 l 883 0 m 653 1039 l 208 1039 l 208 1207 l 653 1167 l 653 1039 z "},"ѝ":{"ha":914,"x_min":61,"x_max":853,"o":"m 853 0 l 589 0 l 589 435 l 317 0 l 61 0 l 61 778 l 325 778 l 325 332 l 597 778 l 853 778 l 853 0 m 638 844 l 193 844 l 193 1013 l 638 972 l 638 844 z "},"Ӥ":{"ha":944,"x_min":61,"x_max":883,"o":"m 883 0 l 619 0 l 619 574 l 297 0 l 61 0 l 61 972 l 325 972 l 325 399 l 647 972 l 883 972 l 883 0 m 174 1036 l 174 1203 l 421 1203 l 421 1036 l 174 1036 m 524 1036 l 524 1203 l 771 1203 l 771 1036 l 524 1036 z "},"ӥ":{"ha":914,"x_min":61,"x_max":853,"o":"m 853 0 l 589 0 l 589 435 l 317 0 l 61 0 l 61 778 l 325 778 l 325 332 l 597 778 l 853 778 l 853 0 m 158 842 l 158 1008 l 406 1008 l 406 842 l 158 842 m 508 842 l 508 1008 l 756 1008 l 756 842 l 508 842 z "},"Ӣ":{"ha":944,"x_min":61,"x_max":883,"o":"m 883 0 l 619 0 l 619 574 l 297 0 l 61 0 l 61 972 l 325 972 l 325 399 l 647 972 l 883 972 l 883 0 m 236 1043 l 236 1208 l 708 1208 l 708 1043 l 236 1043 z "},"ӣ":{"ha":914,"x_min":61,"x_max":853,"o":"m 853 0 l 589 0 l 589 435 l 317 0 l 61 0 l 61 778 l 325 778 l 325 332 l 597 778 l 853 778 l 853 0 m 221 849 l 221 1014 l 693 1014 l 693 849 l 221 849 z "},"І":{"ha":597,"x_min":63,"x_max":535,"o":"m 63 -6 l 63 200 l 164 207 l 164 765 l 63 772 l 63 978 l 299 967 l 535 978 l 535 772 l 433 765 l 433 207 l 535 200 l 535 -6 l 299 6 l 63 -6 z "},"і":{"ha":392,"x_min":61,"x_max":331,"o":"m 61 0 l 61 778 l 331 778 l 331 0 l 61 0 m 61 842 l 61 1008 l 331 1008 l 331 842 l 61 842 z "},"Ї":{"ha":597,"x_min":63,"x_max":535,"o":"m 63 -6 l 63 200 l 164 207 l 164 765 l 63 772 l 63 978 l 299 967 l 535 978 l 535 772 l 433 765 l 433 207 l 535 200 l 535 -6 l 299 6 l 63 -6 m 86 1036 l 86 1203 l 267 1203 l 267 1036 l 86 1036 m 331 1036 l 331 1203 l 511 1203 l 511 1036 l 331 1036 z "},"ї":{"ha":392,"x_min":-17,"x_max":408,"o":"m 61 0 l 61 778 l 331 778 l 331 0 l 61 0 m -17 842 l -17 1008 l 164 1008 l 164 842 l -17 842 m 228 842 l 228 1008 l 408 1008 l 408 842 l 228 842 z "},"Ј":{"ha":833,"x_min":28,"x_max":778,"o":"m 28 192 l 28 472 l 297 472 l 297 244 l 508 244 l 508 739 l 78 739 l 78 972 l 778 972 l 778 192 l 586 0 l 219 0 l 28 192 z "},"ј":{"ha":392,"x_min":61,"x_max":331,"o":"m 61 -194 l 61 778 l 331 778 l 331 -194 l 61 -194 m 61 842 l 61 1008 l 331 1008 l 331 842 l 61 842 z "},"Ќ":{"ha":919,"x_min":61,"x_max":918,"o":"m 61 0 l 61 972 l 331 972 l 331 610 l 439 610 l 601 972 l 897 972 l 672 514 l 918 0 l 619 0 l 449 376 l 331 376 l 331 0 l 61 0 m 268 1039 l 268 1167 l 713 1207 l 713 1039 l 268 1039 z "},"ќ":{"ha":861,"x_min":61,"x_max":858,"o":"m 61 0 l 61 778 l 331 778 l 331 515 l 428 515 l 549 778 l 850 778 l 651 418 l 858 0 l 554 0 l 438 293 l 331 293 l 331 0 l 61 0 m 231 844 l 231 972 l 675 1013 l 675 844 l 231 844 z "},"Қ":{"ha":961,"x_min":61,"x_max":947,"o":"m 61 0 l 61 972 l 331 972 l 331 610 l 443 610 l 581 972 l 882 972 l 683 514 l 806 233 l 947 233 l 947 -194 l 744 -194 l 744 0 l 599 0 l 453 376 l 331 376 l 331 0 l 61 0 z "},"қ":{"ha":919,"x_min":61,"x_max":906,"o":"m 61 0 l 61 778 l 331 778 l 331 515 l 428 515 l 549 778 l 850 778 l 651 418 l 747 233 l 906 233 l 906 -194 l 703 -194 l 703 0 l 554 0 l 438 293 l 331 293 l 331 0 l 61 0 z "},"Ҡ":{"ha":1058,"x_min":14,"x_max":1058,"o":"m 14 750 l 14 972 l 486 972 l 486 610 l 599 610 l 736 972 l 1038 972 l 839 514 l 1058 0 l 754 0 l 608 376 l 486 376 l 486 0 l 217 0 l 217 750 l 14 750 z "},"ҡ":{"ha":1019,"x_min":14,"x_max":1017,"o":"m 14 556 l 14 778 l 489 778 l 489 515 l 586 515 l 707 778 l 1008 778 l 810 418 l 1017 0 l 713 0 l 596 293 l 489 293 l 489 0 l 219 0 l 219 556 l 14 556 z "},"Ҝ":{"ha":949,"x_min":61,"x_max":947,"o":"m 61 0 l 61 972 l 331 972 l 331 610 l 532 610 l 632 972 l 926 972 l 761 514 l 947 0 l 650 0 l 542 376 l 331 376 l 331 0 l 61 0 m 501 167 l 396 167 l 396 819 l 501 819 l 501 167 z "},"ҝ":{"ha":917,"x_min":61,"x_max":914,"o":"m 61 0 l 61 778 l 331 778 l 331 515 l 517 515 l 607 778 l 900 778 l 743 418 l 914 0 l 610 0 l 517 293 l 331 293 l 331 0 l 61 0 m 493 126 l 392 126 l 392 682 l 493 682 l 493 126 z "},"Ԛ":{"ha":944,"x_min":56,"x_max":911,"o":"m 56 189 l 56 783 l 244 972 l 700 972 l 889 783 l 889 247 l 608 64 l 608 739 l 336 739 l 336 217 l 911 114 l 911 -136 l 244 0 l 56 189 z "},"ԛ":{"ha":861,"x_min":49,"x_max":800,"o":"m 800 778 l 800 -194 l 531 -194 l 531 0 l 240 0 l 49 192 l 49 586 l 240 778 l 800 778 m 531 556 l 318 556 l 318 222 l 531 222 l 531 556 z "},"Љ":{"ha":1378,"x_min":11,"x_max":1344,"o":"m 869 972 l 869 764 l 1156 764 l 1344 575 l 1344 189 l 1156 0 l 606 0 l 606 735 l 424 735 l 297 0 l 11 0 l 200 972 l 869 972 m 1075 553 l 869 553 l 869 211 l 1075 211 l 1075 553 z "},"љ":{"ha":1283,"x_min":21,"x_max":1249,"o":"m 21 0 l 21 233 l 96 233 l 178 778 l 800 778 l 800 606 l 1079 606 l 1249 436 l 1249 169 l 1079 0 l 531 0 l 531 563 l 406 563 l 322 0 l 21 0 m 800 211 l 979 211 l 979 394 l 800 394 l 800 211 z "},"Ң":{"ha":961,"x_min":61,"x_max":947,"o":"m 61 0 l 61 972 l 331 972 l 331 622 l 572 622 l 572 972 l 842 972 l 842 233 l 947 233 l 947 -194 l 744 -194 l 744 0 l 572 0 l 572 378 l 331 378 l 331 0 l 61 0 z "},"ң":{"ha":919,"x_min":61,"x_max":906,"o":"m 61 0 l 61 778 l 331 778 l 331 522 l 531 522 l 531 778 l 800 778 l 800 233 l 906 233 l 906 -194 l 703 -194 l 703 0 l 531 0 l 531 278 l 331 278 l 331 0 l 61 0 z "},"Ҥ":{"ha":1058,"x_min":61,"x_max":1044,"o":"m 61 0 l 61 972 l 331 972 l 331 622 l 572 622 l 572 972 l 1044 972 l 1044 750 l 842 750 l 842 0 l 572 0 l 572 378 l 331 378 l 331 0 l 61 0 z "},"ҥ":{"ha":1017,"x_min":61,"x_max":1003,"o":"m 61 0 l 61 778 l 331 778 l 331 522 l 531 522 l 531 778 l 1003 778 l 1003 556 l 800 556 l 800 0 l 531 0 l 531 278 l 331 278 l 331 0 l 61 0 z "},"Њ":{"ha":1350,"x_min":61,"x_max":1317,"o":"m 61 0 l 61 972 l 331 972 l 331 622 l 571 622 l 571 972 l 842 972 l 842 764 l 1128 764 l 1317 575 l 1317 189 l 1128 0 l 571 0 l 571 378 l 331 378 l 331 0 l 61 0 m 1047 553 l 842 553 l 842 211 l 1047 211 l 1047 553 z "},"њ":{"ha":1283,"x_min":61,"x_max":1249,"o":"m 531 0 l 531 278 l 331 278 l 331 0 l 61 0 l 61 778 l 331 778 l 331 522 l 531 522 l 531 778 l 800 778 l 800 606 l 1079 606 l 1249 436 l 1249 169 l 1079 0 l 531 0 m 800 211 l 979 211 l 979 394 l 800 394 l 800 211 z "},"Ӧ":{"ha":944,"x_min":56,"x_max":889,"o":"m 56 189 l 56 783 l 244 972 l 700 972 l 889 783 l 889 189 l 700 0 l 244 0 l 56 189 m 336 739 l 336 233 l 608 233 l 608 739 l 336 739 m 174 1036 l 174 1203 l 421 1203 l 421 1036 l 174 1036 m 524 1036 l 524 1203 l 771 1203 l 771 1036 l 524 1036 z "},"ӧ":{"ha":833,"x_min":49,"x_max":785,"o":"m 49 169 l 49 608 l 218 778 l 615 778 l 785 608 l 785 169 l 615 0 l 218 0 l 49 169 m 318 211 l 515 211 l 515 567 l 318 567 l 318 211 m 118 842 l 118 1008 l 365 1008 l 365 842 l 118 842 m 468 842 l 468 1008 l 715 1008 l 715 842 l 468 842 z "},"Ө":{"ha":903,"x_min":56,"x_max":847,"o":"m 56 189 l 56 783 l 244 972 l 658 972 l 847 783 l 847 189 l 658 0 l 244 0 l 56 189 m 325 750 l 325 575 l 578 575 l 578 750 l 325 750 m 325 222 l 578 222 l 578 397 l 325 397 l 325 222 z "},"ө":{"ha":831,"x_min":49,"x_max":782,"o":"m 49 167 l 49 611 l 215 778 l 615 778 l 782 611 l 782 167 l 615 0 l 215 0 l 49 167 m 313 600 l 313 458 l 518 458 l 518 600 l 313 600 m 313 189 l 518 189 l 518 336 l 313 336 l 313 189 z "},"Ҫ":{"ha":764,"x_min":56,"x_max":739,"o":"m 56 189 l 56 783 l 244 972 l 725 972 l 725 722 l 347 722 l 347 250 l 739 250 l 739 0 l 588 0 l 588 -194 l 385 -194 l 385 0 l 244 0 l 56 189 z "},"ҫ":{"ha":729,"x_min":49,"x_max":699,"o":"m 49 169 l 49 608 l 218 778 l 699 778 l 699 533 l 318 533 l 318 244 l 699 244 l 699 0 l 560 0 l 560 -194 l 357 -194 l 357 0 l 218 0 l 49 169 z "},"Ћ":{"ha":1032,"x_min":28,"x_max":971,"o":"m 232 0 l 232 750 l 28 750 l 28 972 l 839 972 l 839 750 l 501 750 l 501 606 l 790 606 l 971 425 l 971 0 l 701 0 l 701 383 l 501 383 l 501 0 l 232 0 z "},"ћ":{"ha":861,"x_min":61,"x_max":800,"o":"m 61 0 l 61 972 l 331 972 l 331 700 l 619 700 l 800 519 l 800 0 l 531 0 l 531 478 l 331 478 l 331 0 l 61 0 m 71 779 l 71 883 l 613 883 l 613 779 l 71 779 z "},"Ў":{"ha":833,"x_min":8,"x_max":825,"o":"m 56 0 l 56 222 l 397 222 l 417 306 l 175 306 l 8 972 l 283 972 l 378 517 l 460 517 l 551 972 l 825 972 l 588 0 l 56 0 m 475 1225 l 717 1225 l 619 1025 l 214 1025 l 117 1225 l 358 1225 l 363 1121 l 471 1121 l 475 1225 z "}}}
